<svg xmlns="http://www.w3.org/2000/svg" xmlns:xlink="http://www.w3.org/1999/xlink" viewBox="0 0 3698.95 2197.38"><defs><clipPath id="a" transform="translate(-353.89 -309)"><rect width="4453.39" height="2867.83" fill="none"/></clipPath></defs><g clip-path="url(#a)"><path d="M2843.4,2259l-94.88-135.28a31.2,31.2,0,0,0-46.47-5.24c-22.18,20-49.25,44.66-52.07,52.18a59.74,59.74,0,0,1,53.73,84.54,21.83,21.83,0,0,0,11.38,29.34l101.15,39.37a19.73,19.73,0,0,0,18.21-2.4l.1-.07a43.88,43.88,0,0,0,8.85-62.44" transform="translate(-353.89 -309)" fill="#fff"/><path d="M1140.83,613.09c0,138.81-112.53,251.35-251.35,251.35S638.13,751.9,638.13,613.09,750.67,361.73,889.48,361.73s251.35,112.54,251.35,251.36" transform="translate(-353.89 -309)" fill="#f08dab"/><path d="M889.48,879.44a266.36,266.36,0,1,1,188.34-78,264.62,264.62,0,0,1-188.34,78m0-502.71A236.35,236.35,0,1,0,1056.61,446a234.8,234.8,0,0,0-167.13-69.23" transform="translate(-353.89 -309)" fill="#1d1d1b"/><path d="M3984.93,2312.84l-22.63-149.65c-6.41-35.05-42.65-56.18-76.7-45.68l-22,6.79c15.07,10.62,26.49,18.36,32.9,22.29,23.93,14.66,31.61,46.33,16.18,69.77-15.95,22.52-48.38,30.91-70.41,16.56l43.52,105.56c9.42,23.16,32.61,36.56,56.5,33.16a50.54,50.54,0,0,0,42.64-58.8" transform="translate(-353.89 -309)" fill="#ea332f"/><path d="M3896.5,2146.59C3871.12,2131,3767.12,2055.68,3669,1978a471,471,0,0,1-177.32-330.56c-9-110.17-51.48-243.13-196-288.22l120.28-70.3c23.51-13.73,79.49-54.75,96.85-75.73,211.43-255.63,85.69-703.92,32.43-829.36a38.94,38.94,0,0,0-56.29-17.92L3020.48,644.07c-103.36,61.39-187.54,150.84-240.9,258.57-32.38,65.36-52.72,135.28-58.88,204.87,0,0-24.09,368.29-24.1,368.3-4.56,69.83,5.66,142.28,34.55,206.33,53.7,119.1,185.68,171.18,303.45,204.76,71.09,20.28,140.63,26.89,213.54,19.92,135-12.91,270.05,66.51,376.15,141,75.34,52.92,146.57,113,210.7,179.09,21.46,22.13,59.87,14.59,77.69-10.58,15.43-23.44,7.75-55.11-16.18-69.77" transform="translate(-353.89 -309)" fill="#ffec00"/><polygon points="1857.35 476.85 2435.72 263.83 1894.54 14.99 1857.35 476.85" fill="#00973a"/><path d="M2078,2318.27l-140.4-54.34c-20.4-7.9-43.9-.53-55.33,18.13-13.1,21.38-10,47.93,13.16,67.29l134.32,98c.42.33-.44-.31,0,0,20,14.42,48.4,5.58,57.65-17.31l33.72-83.53Z" transform="translate(-353.89 -309)" fill="#ea332f"/><path d="M2653.53,1677.16l-66.34-191.54-148.61-368.55a522.82,522.82,0,0,0-320-320.75L1571.15,613.19a40.58,40.58,0,0,0-52.37,40.89c47.5,943,688.64,962.08,688.64,962.08-51.94,86.79-93.33,140.81-67.77,300.42,7.89,49.23,34.42,93,39.84,142.85,4.12,38-6,74.05-28.47,104.72-35.81,49-86.78,82.34-126.79,127.27a56.87,56.87,0,1,0,95.55,58.24c28.86-71.87,81.68-128.11,147.35-168,57.36-34.87,121.61-53.95,180.63-85,138.31-72.83,279.13-257.17,205.77-419.42" transform="translate(-353.89 -309)" fill="#ffec00"/><path d="M4000.14,2310.36l-22.6-149.47-.08-.47a74.22,74.22,0,0,0-34.58-50,76,76,0,0,0-61.82-7.65l-15.27,4.71c-45-31.94-117.65-86-187.53-141.31a456,456,0,0,1-171.68-320c-5.59-68.25-22.1-127-49.08-174.67-30-53-72.61-91.65-127-115.34l93-54.32c24.06-14.07,81.84-56.16,100.84-79.13,50.52-61.09,85.8-137.19,104.86-226.21,15.89-74.23,20.61-157.65,14-247.94-12-164.3-58.57-310.28-84.2-370.63a53.92,53.92,0,0,0-77.84-24.9L3012.82,631.18c-107.07,63.59-192.37,155.15-246.68,264.8-33.28,67.17-54.16,139.86-60.38,210.21,0,.12,0,.23,0,.34-.24,3.65-23.71,362.34-24.1,368.22v.08q-1.41,21.6-1,42.84-9.37-8-19.55-15.16l-50.38-35.21a57.57,57.57,0,0,0-41.83-83.21c-7.65-35.94-11.49-74.94-11.43-116.71.05-36.76,2.91-76,9-123.36,11.06-86.06,31.53-157,62.59-217,36.1-69.73,87-123.36,151.45-159.4a15,15,0,1,0-14.66-26.18c-69.6,39-124.59,96.76-163.43,171.79-32.7,63.17-54.2,137.42-65.71,227-6.25,48.69-9.19,89.09-9.24,127.15q0,16.15.7,31.78l-75.53-187.33A536.69,536.69,0,0,0,2222.8,829.07l2.61-32.45,569.38-209.71a15,15,0,0,0,1.08-27.7L2254.69,310.36l-.25-.1-.87-.35-.59-.2-.77-.22c-.25-.07-.5-.13-.76-.18l-.63-.12c-.3,0-.61-.09-.92-.12l-.27,0h-.28l-.93,0h-.63l-.77.06c-.26,0-.51.05-.76.09l-.62.1c-.28.06-.57.11-.85.18l-.51.15a9.18,9.18,0,0,0-.89.28l-.48.18c-.28.11-.56.23-.83.36l-.52.26c-.25.13-.49.25-.73.39l-.58.37-.6.4c-.21.15-.41.31-.61.48l-.5.41c-.2.18-.4.36-.59.55l-.46.46-.51.58c-.15.19-.31.37-.45.56s-.27.37-.41.56-.31.46-.46.7-.2.33-.29.51-.31.55-.45.84l-.12.24a2.77,2.77,0,0,0-.1.26c-.13.28-.24.57-.35.86l-.21.6c-.08.25-.15.5-.21.76s-.13.51-.18.77-.08.41-.12.62-.09.61-.12.92c0,.09,0,.18,0,.28L2194,812.86a534.84,534.84,0,0,0-70.44-30.69l-.22-.08L1575.91,599l-.38-.12a55.59,55.59,0,0,0-71.73,56C1514.74,872,1558.2,1058.4,1633,1208.89c60.16,121.06,140.57,219.27,239,291.91,87.73,64.74,173.8,96.7,230.56,112.12a580.23,580.23,0,0,0,79.61,16c-46,76.07-81.69,138-57.34,290,3.92,24.46,12.1,47.4,20,69.57,8.77,24.6,17,47.84,19.73,72.52,3.66,33.69-5.21,66.28-25.66,94.25-19.74,27-44.18,48.91-70,72.12-17.81,16-36.17,32.48-52.87,50.78l-73-28.26c-27.48-10.64-58.4-.42-73.54,24.28-8.55,14-11.66,29.45-9,44.81,2.74,15.79,11.5,30.25,25.31,41.82l.39.32,134.32,98,.24.19c.25.19.51.37.77.54a52,52,0,0,0,29.92,9.46,54,54,0,0,0,49.86-33.71l33-81.66c26.18-64.31,74.79-119.45,140.69-159.52,31.66-19.25,66.55-34,100.29-48.26,26.3-11.11,53.5-22.61,79.54-36.32,75.22-39.61,145.6-107.65,188.28-182,23.88-41.61,38.56-83.71,43.63-125.15a259.65,259.65,0,0,0,1.92-37.07c2.26,1.19,5.43,3,9.14,5.07a129.25,129.25,0,0,1,51.92,55c9.73,19.71,17,40.94,24.68,62.27,24.95,69.41,46.49,147.68,81.17,212.89,13.45,25.28,46.41,33.33,69.26,16.06,18.6-14.05,22.65-36.44,12.42-59.76l-117.29-248q14.77,10.55,31.35,20.32c29.16,17.2,79.47,43.36,179.26,71.82,73.09,20.85,144.75,27.53,219.07,20.42,131.91-12.62,264.94,67.33,366.11,138.38,76.29,53.58,146.45,113.21,208.55,177.25a58.37,58.37,0,0,0,5.16,4.7l42.14,102.2c10.76,26.46,36,43.29,63.44,43.29a66.4,66.4,0,0,0,9.5-.68,66,66,0,0,0,55.68-76.53M2261.66,346.58,2750.37,571.3l-522.3,192.37ZM2209,1001h0l11.13-138.25A506.53,506.53,0,0,1,2424.42,1122c.08.22.16.44.25.66l90.09,223.44c-14.88-16.95-31.34-33.8-49.59-50.83-31-28.94-65.18-54.44-98.24-79.11-24.86-18.56-50.57-37.74-74.39-58-31.17-26.54-58.28-50.52-74.47-75.32-6.41-9.82-10.86-19.31-13.39-28.76Zm-135.51,1423.4a23.81,23.81,0,0,1-15.54,14,22.4,22.4,0,0,1-19.41-3.23l-133.84-97.62c-16-13.61-19.6-31.39-9.64-47.65,7.56-12.34,23.18-17.37,37.13-12l67.28,26a71.82,71.82,0,0,0,84.23,95.12Zm583.44-625.3c-4.59,37.44-18,75.74-39.88,113.85-40,69.62-105.84,133.31-176.24,170.38-24.91,13.12-51.52,24.37-77.24,35.24-34.74,14.68-70.66,29.86-104.2,50.26-71.92,43.73-125,104.33-153.47,175.26l-.08.21a41.87,41.87,0,1,1-70.35-42.88c16.36-18.37,35.22-35.29,53.47-51.65,25.87-23.21,52.63-47.21,74.23-76.75,24.94-34.11,35.75-73.94,31.27-115.19-3.07-28.19-12.34-54.2-21.3-79.35-7.79-21.86-15.15-42.51-18.64-64.25-10.65-66.52-10.05-118.08,1.91-162.29,11-40.52,30.76-73.23,53.7-111.11,3.35-5.53,6.76-11.16,10.22-16.94a15,15,0,0,0-12.41-22.7c-.39,0-40-1.44-99-17.63-54.28-14.89-136.6-45.71-220.47-107.92-94.24-69.91-171.33-164.53-229.13-281.22-72.58-146.57-114.82-328.61-125.52-541.07a25.66,25.66,0,0,1,25.44-26.94,25.9,25.9,0,0,1,7.4,1.09l547.12,183a505.62,505.62,0,0,1,77.66,35l-12.19,151.43c-7.22,20.22-8.82,39.85-4.77,59.21l-21.3,264.49a15,15,0,0,0,13.75,16.16c.41,0,.81,0,1.22,0a15,15,0,0,0,14.93-13.8l17.2-213.51c18.28,24.18,44,46.84,72.87,71.45,24.55,20.91,50.66,40.39,75.9,59.23,32.4,24.19,65.91,49.19,95.71,77,29.56,27.58,54.16,54.6,74.78,82.37a57.58,57.58,0,0,0-16,54.45,175.31,175.31,0,0,0-32.9-1.17,127.16,127.16,0,0,0-119.41,134.2,93,93,0,0,0,92.7,87.57c1.85,0,3.69-.05,5.55-.16a69.37,69.37,0,0,0,65.13-73.21,52.84,52.84,0,0,0-55.78-49.62,41.31,41.31,0,0,0-38.83,43.64,15,15,0,1,0,29.95-1.75,11.3,11.3,0,0,1,10.63-11.94,22.82,22.82,0,0,1,24.08,21.42,39.33,39.33,0,0,1-36.93,41.51,63,63,0,0,1-66.55-59.21,97,97,0,0,1,91.21-102.5,145,145,0,0,1,63.12,10.38h0a57.33,57.33,0,0,0,37.23,3.74c6.42,45.29,15.24,117.32,17.25,126.48,3.92,25.93,10.08,51.35,21.88,74.75,11.51,22.82,27.4,37.56,45.55,49.56a224.91,224.91,0,0,1-.51,51.36m1188.86,417.41c-63.4-65.38-135-126.25-212.84-180.91-97.7-68.63-224.4-145.15-355.27-145.15q-15.42,0-30.93,1.46c-70.53,6.74-138.57.39-208-19.41-46.2-13.18-114.32-34.65-172.24-68.81-58.73-34.64-98.52-76.41-121.65-127.7-26.44-58.63-37.94-127.51-33.25-199.18h0c.45-6.31,3.29-49.8,24.12-368.12,5.91-66.62,25.75-135.56,57.36-199.37,51.74-104.45,133-191.7,235.12-252.33l468.44-278.21.22-.13a23.93,23.93,0,0,1,34.6,11c24.91,58.65,70.18,200.7,81.89,361.09,6.39,87.45,1.87,168-13.42,239.47-18,84.25-51.23,156-98.65,213.37-15.41,18.63-68.78,58.27-92.86,72.34l-120.28,70.3a15,15,0,0,0,3.1,27.27c61.54,19.2,108.72,57.15,140.21,112.77,24.82,43.85,40.06,98.47,45.29,162.35a486,486,0,0,0,183,341.1c98.48,78,203.06,153.76,229,169.67h0a35.88,35.88,0,0,1,16.17,22.63,33.73,33.73,0,0,1-4.55,25.89,42.34,42.34,0,0,1-30.41,17c-5.54.42-16.05-.1-24.13-8.43m117.85,125.74a34.82,34.82,0,0,1-23.48,14.16c-16.93,2.41-33.4-7.34-40.09-23.78l-32-77.6c1.38,0,2.76-.08,4.15-.18a72,72,0,0,0,52.73-29.8l.29-.42a63.49,63.49,0,0,0,8.91-49.13,66,66,0,0,0-29.78-41.68h0c-1.49-.91-3.26-2-5.27-3.35a45.16,45.16,0,0,1,27.83,6.34,42.8,42.8,0,0,1,20.21,29l22.59,149.39.06.37a34.81,34.81,0,0,1-6.16,26.72" transform="translate(-353.89 -309)" fill="#1d1d1b"/><path d="M3912.68,2216.36c-.33.49.34-.49,0,0" transform="translate(-353.89 -309)" fill="#ffec00"/><path d="M3912.68,2216.36C3912.35,2216.85,3913,2215.87,3912.68,2216.36Z" transform="translate(-353.89 -309)" fill="none" stroke="#1d1d1b" stroke-linecap="round" stroke-linejoin="round" stroke-width="30"/><path d="M933.62,2021.31s196-199.4,397.49-130.43,135.79,146.7,44.91,146.95c-56.09.16-211.42-6.17-322.15-11-68.71-3-120.25-5.48-120.25-5.48" transform="translate(-353.89 -309)" fill="#fff"/><path d="M933.62,2023.46s-65.57-280,101.77-411.68,207.42-37.71,152.38,49.2c-30,47.38-120,174.16-184.23,264.49-39.86,56-69.92,98-69.92,98" transform="translate(-353.89 -309)" fill="#fff"/><polygon points="563.07 640.24 353.76 1096.38 1001.45 1103.52 563.07 640.24" fill="#1d70b7"/><path d="M1366.23,1402.22,928,939.13l0,0-.14-.15c-.25-.26-.5-.5-.76-.74l-.3-.27c-.27-.23-.55-.45-.83-.66l-.18-.14c-.35-.26-.72-.5-1.1-.73l-.21-.12a12.94,12.94,0,0,0-1.22-.64l0,0-.09,0c-.43-.19-.88-.37-1.33-.53h0a12.5,12.5,0,0,0-1.29-.37l-.29-.07c-.4-.09-.81-.17-1.22-.22l-.33,0c-.34,0-.68-.06-1-.08l-.31,0c-.4,0-.79,0-1.19,0l-.39,0a9.82,9.82,0,0,0-1.09.12,15.92,15.92,0,0,0-1.79.4l-.48.15c-.38.12-.75.26-1.12.41l-.5.21c-.39.18-.77.37-1.15.58l-.33.19a13.38,13.38,0,0,0-1.41.95l-.11.08c-.41.32-.79.66-1.17,1l-.3.31c-.3.3-.58.61-.86.94-.1.13-.21.25-.31.39-.26.33-.5.67-.73,1l-.26.39a15.72,15.72,0,0,0-.81,1.52L355.26,2137.36a15,15,0,0,0,27.26,12.51l334.7-729.39,638,7h.17a15,15,0,0,0,10.89-25.31m-635.31-11.59,190.41-415,398.8,421.46Z" transform="translate(-353.89 -309)" fill="#1d1d1b"/><path d="M1447.24,1932.83c-23.82-20.13-61.26-39-111.27-56.14-48.46-16.59-100.54-19.7-154.8-9.26-42.89,8.26-87.18,25-131.64,49.69-13.58,7.55-26.31,15.35-38.07,23.09q2.13-3,4.3-6c74.14-104.26,155.66-219.33,184.68-265.16,14.31-22.6,23-45.89,25-67.36,2.28-23.82-4.07-43.81-17.9-56.29-11.39-10.28-33-20.18-71.36-8.94-31,9.08-68,30.47-110.1,63.58-40.31,31.73-71,74.2-91.2,126.25-16,41.09-25.43,88.19-28.14,140a654.06,654.06,0,0,0,7.69,136.83,57.3,57.3,0,0,0-53.83,17,38.79,38.79,0,0,0-61.12-38.58l-10.75-11.92c-16.63-18.46-43.58-23.85-65.54-13.11a52.32,52.32,0,0,0-4.92,2.74,16.21,16.21,0,0,1-22.25-4.89L687.47,1941a46,46,0,0,0-54.28-18.48l-43,15.28a16.1,16.1,0,0,1-13.94-1.48l-103.45-64.11a15,15,0,1,0-15.8,25.5l103.45,64.11a46,46,0,0,0,39.8,4.25l43-15.28a16.11,16.11,0,0,1,19,6.47l8.58,13.31a46.3,46.3,0,0,0,63.53,14,22,22,0,0,1,2-1.13c10-4.89,22.36-2.32,30.08,6.24l17.45,19.37a38.8,38.8,0,0,0,63.84,33.16,57.3,57.3,0,0,0-.22,33.58,58.14,58.14,0,0,0,3.94,9.8,273.08,273.08,0,0,1-35.67,16.08c-50.87,18.59-99.74,19.24-145.25,1.93a15,15,0,0,0-20,17.4c2.22,9.82,4.1,36.88-4.69,69.05-6.43,23.57-17.47,46.54-32.78,68.27-13,18.45-29.16,36-48.22,52.59l-115-40.15c-23.87-6-40.25,24.34-21.61,40.42.39.34.79.67,1.21,1l101,79.35c18,14.11,44.67,4.26,48.87-18.2a79.18,79.18,0,0,0-.94-34.54c24-20,44.1-41.51,60-64.34,17.33-24.85,29.75-51.25,36.91-78.46a206.66,206.66,0,0,0,7-57.15c45.94,12,95.49,8.84,144.71-9.36a303.67,303.67,0,0,0,45.31-21.17,57.58,57.58,0,0,0,5.94,3.21,271.73,271.73,0,0,1,45.9,42.16c35.39,41,53.29,86.48,53.2,135.17a15,15,0,0,0,23.34,12.5c8.39-5.55,33-16.88,66.24-20.05,24.33-2.32,49.71-.13,75.46,6.51a272.58,272.58,0,0,1,35.06,11.71,50.59,50.59,0,0,1,17.1,11.6l74.33,76.76c18.62,16.09,46.89-3.69,37.45-26.42q-.3-.72-.63-1.44l-54.66-116.24c-9.67-20.59-37.87-23.92-51.69-5.85a79.18,79.18,0,0,0-14.93,32.08,297.8,297.8,0,0,0-35.92-11.6c-29.38-7.42-58.46-9.69-86.45-6.77a206.81,206.81,0,0,0-55.93,13.67c-5.06-47.2-25.52-92.44-60-132-6.9-8-13.81-15-20.36-21.21a57.23,57.23,0,0,0,21.92-16.94c9.23,8.83,33.27,32.84,84.83,89.81,38.28,42.3,102.25,37.63,152.87,24.45a10.34,10.34,0,0,0,5.31-16.64c-24.34-29.12-51.32-62.11-76.49-81.51-45.54-35.08-111.44-46.52-154.09-50.19a57.42,57.42,0,0,0-3.45-21.38c-.28-.77-.58-1.52-.89-2.27,21.57,1,56.52,2.61,97.28,4.4,115.17,5.06,263.53,11.06,320.7,11.06h2.15c24-.06,47.17-5.15,65.14-14.33,20.63-10.54,33.6-26,36.51-43.67,2.39-14.52-1-37.06-30.47-62m-510.47-65.78c2.6-48.47,11.44-92.32,26.25-130.33,18.24-46.8,45.71-84.87,81.65-113.15,58.55-46.09,99.17-62.07,122.95-62.07,9,0,15.61,2.3,19.85,6.12,6.6,6,9.49,17,8.14,31.16-1.59,16.56-8.88,35.8-20.51,54.17-31,49-130.4,188.74-183.79,263.82-19.43,27.33-36.62,51.43-49.09,68.88-4-28.16-8-71-5.45-118.6M1448.11,1990c-3,18-35.34,32.78-72.14,32.88-55,.18-205.12-5.91-321.44-11-33.15-1.46-62.46-2.8-83.83-3.78a602.67,602.67,0,0,1,94.07-65.06c41.6-23,82.81-38.57,122.49-46.16,48.9-9.35,95.67-6.57,139,8.27,94.92,32.49,125,66,121.86,84.87" transform="translate(-353.89 -309)" fill="#1d1d1b"/><path d="M1512.35,2332.37q-1-.67-1.92-1.38l-.12-.09-.11-.09c-26.7-20.18-43-50.51-47.8-86A46.94,46.94,0,0,0,1429,2206l-32.31-9.37-47.07-14.81a19.51,19.51,0,0,0-18,3.31,43.87,43.87,0,0,0-6.26,62.75l107.43,126.88c20.37,24.06,50.82,12.77,70.33-12,3.08-3.9,6.91-8.11,11.13-12.54a11.83,11.83,0,0,0-1.78-17.78l-.11-.08" transform="translate(-353.89 -309)" fill="#fff"/><path d="M2693.12,2189.73a59.75,59.75,0,0,0-84.44-3.12c-21.06,19.56-48.11,24.78-67.09,25.72a156.41,156.41,0,0,1-81.62-18.9c-47.59-26-89-75.84-123.12-148-44.89-97.07-100.46-163.84-169.91-204.14-41.66-24.17-89-38.76-140.59-43.35a407.61,407.61,0,0,0-80.15,1c.3-34.15-4.41-65.82-14.19-95.76-16.71-51.24-49.7-98.2-95.38-135.81-40.13-33-89.34-58.5-142.32-73.66-99.8-28.54-205.07-22.48-289.65-17.6a59.74,59.74,0,0,0,6.87,119.29c96.1-5.54,175.52-8.08,249.91,13.2,92.72,26.52,141.88,85.39,157,131.64,9.09,27.89,10,58.25,5.95,89.74-57.32,22.78-114.94,57.16-177.42,105.56-60.28,46.71-144.18,121-176.6,226.64-21.29,69.36-6,134,39.85,168.63l.11.08.12.09c.63.47,1.27.94,1.92,1.38,20.43,14.72,44.91,22.28,71.39,22.63,28.41.38,59.1-7.51,89.42-23.7,59.28-31.63,108.21-80.75,149.6-150.18,35.22-59.08,60.29-125.65,80.18-183,8.39-24.19,16.75-49.39,23.85-75.16,66.2-14.44,131.24-6.75,180.17,21.65,47.53,27.57,87.27,77,121.52,151.12l.21.45c45.14,95.6,103.65,163.58,173.9,202a277.43,277.43,0,0,0,144.87,33.43c55.69-2.74,105-22.62,142.54-57.5a59.76,59.76,0,0,0,3.12-84.44M1780,1987.47c-34.59,95.43-80.13,194.16-163,238.41a87.8,87.8,0,0,1-23.11,8.77,11.1,11.1,0,0,1-13.33-10.67,87.23,87.23,0,0,1,4.11-26.73c17.1-55.69,60.17-108.83,135.56-167.24" transform="translate(-353.89 -309)" fill="#f08dab"/><polygon points="1051.18 595.47 1677.2 694.32 1187.58 1053.1 1051.18 595.47" fill="#ea332f"/><path d="M2855.49,2250.1l-94.69-135a46.21,46.21,0,0,0-68.8-7.76c-28.67,25.89-43.12,39.72-50.31,48.73a74.36,74.36,0,0,0-43.22,19.55c-17.75,16.48-41.13,20.91-57.62,21.72a141.08,141.08,0,0,1-73.68-17.07c-44.73-24.49-84-72-116.73-141.2-46.22-99.93-103.78-168.87-176-210.76-43.56-25.28-92.94-40.53-146.75-45.32h0l-.8-.06c-2.6-.23-5.2-.43-7.82-.61l-2.69-.15c-2-.12-4-.24-6.07-.33l-3-.11c-1.94-.07-3.87-.14-5.82-.18l-3.12-.06c-1.92,0-3.84,0-5.77,0h-3.16c-1.93,0-3.85,0-5.78.07l-3.18.08c-1.94.05-3.87.12-5.8.19l-3.19.14c-2,.09-3.91.21-5.87.33l-3.11.19-1.52.1a304.35,304.35,0,0,0-14.7-84c-17.6-54-52.22-103.3-100.11-142.73-41.7-34.33-92.79-60.79-147.73-76.5-37.37-10.69-75.32-16.63-112.63-19.65l-27.21-91.51L2040,1015.42a15,15,0,0,0-6.52-26.92l-626-98.85-.26,0c-.32,0-.63-.08-1-.1l-.57,0h-.87l-.67,0-.74.07-.8.11-.61.12-.88.22-.27.06-.3.11c-.28.09-.55.18-.83.29l-.62.25-.67.32c-.23.12-.47.24-.69.37l-.54.32c-.24.15-.48.3-.71.47l-.47.34-.67.54-.45.42-.58.55c-.16.18-.32.35-.47.53s-.31.35-.45.53-.33.43-.49.66-.23.32-.34.49-.31.49-.45.75-.19.33-.28.49-.25.51-.37.78-.17.38-.25.57-.18.48-.27.73-.16.48-.23.72-.11.42-.16.63-.14.59-.19.89l-.06.29,0,.26c0,.31-.07.62-.1.94s0,.39,0,.58,0,.57,0,.85,0,.47,0,.7,0,.47.06.71.07.55.12.82.07.39.11.59.14.61.22.91c0,.08,0,.17.07.26l163.24,549c-53.41-2.15-104.71.8-150.13,3.42a74.75,74.75,0,0,0,8.6,149.25l11.76-.67h.21c.27,0,.54,0,.81,0,1.22-.06,2.46-.15,3.72-.25,63.16-3.43,118.95-5,170.69,1.82l83.1,279.46q-7.9,5.46-15.88,11.21l-2.33,1.7c-1.32.95-2.63,1.91-4,2.88q-3,2.22-6.09,4.5l-2.43,1.81-5,3.74-2.23,1.7q-3.52,2.68-7,5.41c-61.91,48-148.09,124.41-181.76,234.1a232.13,232.13,0,0,0-8.59,40,61.57,61.57,0,0,0-14.29-6.18l-32.15-9.33-46.91-14.75a34.48,34.48,0,0,0-31.77,5.85,58.85,58.85,0,0,0-8.39,84.2l107.42,126.88c10.33,12.2,23.58,18.63,38.36,18.63h.9c19.24-.34,39-11.64,54.3-31,2.41-3,5.65-6.7,10.2-11.48a25.58,25.58,0,0,0,2.13-2.54,143.93,143.93,0,0,0,56.32,12l2.13,0c30.63,0,63.28-8.79,94.56-25.48,61.75-32.95,112.59-83.9,155.41-155.74,35.91-60.23,61.34-127.69,81.47-185.73,6.43-18.53,14.49-42.36,21.63-67.19l1-.18c51.57-9.47,102.16-4.69,142.76,13.29l.19.09c1.31.58,2.61,1.18,3.9,1.79l1.22.59q1.51.72,3,1.47l2.31,1.21c.66.34,1.33.68,2,1q2.19,1.18,4.35,2.43h0c44.75,26,82.51,73.22,115.44,144.5l.23.49c46.53,98.53,107.18,168.78,180.27,208.79a292.62,292.62,0,0,0,152.81,35.26c57.22-2.82,108.19-22.74,147.8-57.7a36.63,36.63,0,0,0,13.36,9.44l.29.12,101.15,39.37.35.13a35.36,35.36,0,0,0,12,2.11,34.29,34.29,0,0,0,20.07-6.44l.05-.05.1-.06a58.89,58.89,0,0,0,12.13-83.48M1827.09,1579c43.48,35.8,74.83,80.36,90.66,128.88a275.53,275.53,0,0,1,13.3,77.91,451.36,451.36,0,0,0-51.07,10.18q-19.38,5.07-38.61,11.73c1.22-26.69-1.64-50.44-8.69-72.06-13-40-49.32-88.61-113.81-120.83L1749,1530.1a366.8,366.8,0,0,1,78.09,48.86m-277.58-241.35L1426.22,923l566.94,89.51Zm-42.3,239a146.69,146.69,0,0,0,26.34-31.77,15,15,0,1,0-25.46-15.87c-19.16,30.74-46.39,47.74-81,50.57q-8.14.43-16.45.92a44.75,44.75,0,0,1-5.14-89.35c47.53-2.74,101.68-5.85,157.47-2.88l27.29,91.75c-26.65-2.79-54.18-3.66-83.07-3.37m87.8-86c31.8,3.12,63.82,8.57,95.17,17.53q15.83,4.53,31.12,10.31l-30,84.27q-12.3-4.67-25.74-8.53a412.42,412.42,0,0,0-42.65-9.73Zm37.55,126.28q12.51,2.65,24.76,6.14a287,287,0,0,1,36.37,13l.24.1c63.56,27.9,98.42,72.57,110.23,108.74,7,21.5,9.09,45.95,6.3,74.54-33.46,13.94-67.06,31.76-101.65,53.89Zm23.58,330.52q3.42-2.65,6.83-5.25l2.34-1.78,4.44-3.34,2.82-2.11,3.87-2.86q3.39-2.5,6.77-5l1.63-1.18c1.65-1.19,3.3-2.38,5-3.55l.81-.58a790.86,790.86,0,0,1,67.78-43.33l38,81.35c-27.35,15.91-55.61,35.23-85.42,58.33h0c-24.71,19.14-46.07,37.79-64.31,56.22l-66.34-60.33c25.84-26.5,52.64-48.67,75.85-66.65m-46.29,265.23a80.67,80.67,0,0,1-14.23,6.05,77.89,77.89,0,0,1,3.3-17c16.07-52.36,57.23-102.92,129.47-159l5.5,18.74c-29.31,63.34-67.83,121.3-124,151.29m-118.52,140.85c-9.38,11.91-21.37,19.41-31.27,19.59h-.35c-5.85,0-10.92-2.62-15.48-8L1336.8,2238.19a28.89,28.89,0,0,1,4.1-41.29,4.52,4.52,0,0,1,4.17-.77l47.07,14.81.32.09,32.31,9.38a31.92,31.92,0,0,1,22.58,25.31,162.05,162.05,0,0,0,7.76,33.15c.19.55.4,1.09.59,1.63l.42,1.16a134.81,134.81,0,0,0,35.5,53.18l.43.4,1.66,1.47.87.76c.47.4.94.81,1.42,1.2s.83.69,1.25,1,.77.64,1.17,1l1.78,1.39.66.51c-4,4.27-7,7.72-9.53,10.94m174.77-35.42c-27.55,14.7-55.94,22.28-82.16,21.93-23.89-.31-45-7-62.82-19.8l-.17-.11h0l-.06,0c-.49-.34-1-.69-1.46-1.05l-.07-.06-.11-.08c-1.2-.9-2.36-1.83-3.51-2.78l-.34-.29q-1.73-1.44-3.38-2.94l-.15-.15c-17.37-15.93-28.68-37.57-33.42-62.58,0-.14,0-.28-.08-.42-.27-1.49-.53-3-.76-4.5,0-.33-.09-.67-.14-1-3.45-23.72-1.19-50.2,7.22-77.59,15.56-50.7,43.69-94.08,75.27-130.46l66.28,60.26c-27.66,32.08-46,63.76-56,96.46a101.35,101.35,0,0,0-4.76,31.42,26.06,26.06,0,0,0,31.38,25.06,102.58,102.58,0,0,0,27.11-10.22,220.19,220.19,0,0,0,20.72-12.59l56.51,69.75a316.28,316.28,0,0,1-35.1,21.8m222.67-324.84c-19.64,56.62-44.37,122.3-78.9,180.21-25.29,42.44-53.43,77-85.09,104.28L1668.33,2208c31.85-28.18,57.11-64.63,78-104.21l21.93,74.74a15,15,0,0,0,14.38,10.78,14.77,14.77,0,0,0,4.23-.61,15,15,0,0,0,10.18-18.61l-31.26-106.54c9.75-21.93,18.48-44.27,26.51-66.21,39.33-24.85,76.2-42.22,112.64-53.2-5.57,18.09-11.35,35.1-16.19,49m63.22-89.81-.18,0q-3.09.39-6.18.86l-1,.15c-1.73.26-3.47.55-5.2.84l-1.91.32c-1.41.24-2.81.51-4.22.77l-2.76.52c-1.09.21-2.18.44-3.27.67s-2.37.48-3.56.74l-.09,0-.06,0q-6.67,1.46-13.35,3.19c-28.88,7.54-57.73,18.68-87.43,33.87l-37.89-81.13q14.23-7.18,28.29-13.36l1.78-.78,3.87-1.66,2.45-1c1.87-.79,3.75-1.56,5.62-2.32a493.34,493.34,0,0,1,60.7-20.19,419,419,0,0,1,60.23-11.1h0l1-.11c2.23-.24,4.46-.45,6.69-.66l1.66-.15q3.6-.32,7.19-.55l1.72-.12c2.43-.16,4.86-.29,7.29-.41l1.38-.06q3.83-.16,7.65-.26h.55q3.93-.09,7.84-.1h.49c2.6,0,5.19,0,7.77.07l1.07,0c2.51,0,5,.13,7.49.23l1.22.06q3.73.17,7.43.4l1,.07c1.5.1,3,.23,4.5.35l-11.36,88.87a302.21,302.21,0,0,0-58.49,1.92m162.52,28.25h0c-.2-.12-.41-.23-.62-.34-1.49-.87-3-1.71-4.52-2.54-.34-.19-.7-.36-1-.55q-2.16-1.15-4.33-2.26l-.59-.29q-2.47-1.23-5-2.42h0a232.42,232.42,0,0,0-58.13-18.15l11.36-88.88c39.12,6.43,75.28,19.17,107.79,38,52.41,30.41,96.73,76.83,134.44,141l-74.26,50.33c-30.42-53.2-65-90.7-105.08-113.94m127.76,158.17-.18-.37q-4.08-8.86-8.29-17.25l74.64-50.59q7.59,14.52,14.8,30.08a.61.61,0,0,0,.05.12c35.49,75.09,79.05,127.15,129.48,154.76q2.49,1.36,5,2.64l-33.45,83.21q-7.41-3.45-14.56-7.35c-67.41-36.9-123.78-102.61-167.52-195.25m437.52,173.34c-34.94,32.44-80.95,51-133.06,53.51a261.19,261.19,0,0,1-94.5-13.18l33.46-83.23a169.9,169.9,0,0,0,56.64,7c21.47-1.06,52.18-7.07,76.56-29.71a44.59,44.59,0,0,1,31.72-11.91l.73,0c.52,0,1,.05,1.57.09l.47.05c.63,0,1.25.12,1.87.2h.05a44.57,44.57,0,0,1,26.83,13.88l.06.07q.66.72,1.29,1.47l.4.47,1,1.23.3.4c.86,1.14,1.65,2.31,2.38,3.51l.1.16a44.82,44.82,0,0,1-7.85,55.93M2837.36,2290a28.66,28.66,0,0,1-11.63,19.31l-.06,0a4.69,4.69,0,0,1-4.22.5l-100.74-39.21a6.47,6.47,0,0,1-3.53-3.65,7,7,0,0,1,.18-5.55,74.56,74.56,0,0,0-4-69.7l-.17-.27q-1.84-3-4-5.87l-.45-.6c-.56-.73-1.13-1.44-1.72-2.15l-.58-.71c-.75-.88-1.51-1.75-2.3-2.6s-1.82-1.91-2.75-2.81c-.56-.55-1.14-1.06-1.72-1.59-.36-.33-.72-.68-1.09-1-.82-.72-1.65-1.4-2.49-2.08l-.37-.31a73.73,73.73,0,0,0-17.76-10.46c11.47-11.17,26.67-24.9,34.17-31.67a16.21,16.21,0,0,1,24.14,2.72l94.88,135.28.44.6a28.61,28.61,0,0,1,5.8,21.78" transform="translate(-353.89 -309)" fill="#1d1d1b"/><path d="M3616.92,2357c-.16-2.85-.63,2.77,0,0" transform="translate(-353.89 -309)" fill="#1d70b7"/><path d="M3616.92,2357C3616.76,2354.11,3616.29,2359.73,3616.92,2357Z" transform="translate(-353.89 -309)" fill="none" stroke="#1d1d1b" stroke-linecap="round" stroke-linejoin="round" stroke-width="30.24"/><path d="M3722.11,2313.86l-30.49-23.69c-.29-.27-.59-.54-.89-.79-10.07-8.7-25.52-6.45-33.27,4.37a352.09,352.09,0,0,1-36.89,43.63q-3.77,3.78-7.63,7.38a42.17,42.17,0,0,0-13.4,32.06l.33,11a70.6,70.6,0,0,1-9.16,37.32c-1,1.75-6.61,7-14,13.71-10.86,9.82-12.56,26.55-3.33,37.92a27.35,27.35,0,0,0,37,5.14l25.5-15.35a78.28,78.28,0,0,0,24.36-23.05l66.29-97.51a23.16,23.16,0,0,0-4.36-32.1" transform="translate(-353.89 -309)" fill="#1d70b7"/><polygon points="3556.1 691.13 3098.72 958.44 3655.61 1356.27 3556.1 691.13" fill="#fff"/><path d="M3637.27,1840.28c-123.45-122.82-316.1-153.38-471.91-98.92,5.61,34.56,13.64,68.66,25.54,101.82,12.51,34.87,27.65,68.68,42,102.82-1.51,1.26-3,2.55-4.47,3.85l-.13.11q-2.14,1.9-4.25,3.86l-.21.19q-2.05,1.92-4.08,3.89l-.25.25q-2,1.95-3.95,3.95l-.26.28q-2,2-3.84,4l-.26.28q-1.9,2.05-3.76,4.16l-.21.25q-1.89,2.15-3.73,4.34s-.09.1-.13.16q-1.89,2.27-3.73,4.57v0a236.24,236.24,0,0,0-25.83,40.31l-.33.68q-1.16,2.3-2.26,4.62l-.54,1.16c-.65,1.4-1.3,2.8-1.92,4.21l-.65,1.49c-.57,1.32-1.14,2.63-1.69,4-.24.57-.47,1.15-.7,1.73q-.76,1.88-1.5,3.78l-.72,1.92c-.46,1.22-.91,2.44-1.34,3.67-.25.68-.49,1.38-.73,2.07-.41,1.19-.81,2.38-1.2,3.58-.24.73-.48,1.46-.71,2.2-.37,1.17-.73,2.34-1.09,3.52-.23.76-.45,1.53-.67,2.3-.34,1.16-.66,2.32-1,3.49-.21.79-.43,1.58-.64,2.38-.3,1.15-.58,2.31-.87,3.47-.2.82-.4,1.63-.59,2.46-.27,1.15-.52,2.3-.77,3.46-.18.83-.37,1.67-.54,2.51-.24,1.15-.46,2.32-.68,3.48-.16.85-.33,1.69-.48,2.54-.21,1.17-.4,2.35-.59,3.53-.14.84-.29,1.69-.41,2.54-.19,1.2-.35,2.41-.51,3.62-.12.83-.24,1.66-.35,2.5-.15,1.26-.29,2.53-.43,3.79-.09.79-.18,1.58-.26,2.38-.14,1.4-.25,2.81-.37,4.22-.05.67-.12,1.32-.17,2q-.23,3.12-.38,6.26h0c-.11,2.32-.18,4.64-.24,6.94,0,.27,0,.54,0,.81q-.06,3.25-.05,6.5v1.2q0,3.14.1,6.24c0,.47,0,.94,0,1.4.07,2,.15,4.07.26,6.09,0,.49.05,1,.08,1.47q.18,3,.4,6l.12,1.37q.22,2.64.48,5.25c.07.62.13,1.23.2,1.84.18,1.73.39,3.45.6,5.17.09.67.17,1.33.26,2,.23,1.75.48,3.49.74,5.22l.36,2.28c.24,1.5.49,3,.75,4.48v0c22.72,129,131,230.08,266.53,239.2,1.12.08,2.23.13,3.35.2.88.05,1.75.11,2.63.15h0a280.51,280.51,0,0,0,213.23-82.51c136.92-137.62,136.36-360.18-1.26-497.1" transform="translate(-353.89 -309)" fill="#c99d66"/><path d="M3008.82,2392.61a28.74,28.74,0,0,1-.89-16.4c2.43-11.32-7.53-21.63-18.87-19.31l-.26.06-40.81,8.91c-17.91,3.6-29.66,3-45.23-5.16a23.94,23.94,0,0,0-22.41,42.31l56.79,30.24c5.6,3,50.51,28.51,87,48.09a23.76,23.76,0,0,0,31.38-8.34l22.18-35.49c.07-.09.13-.19.2-.29,8.34-12.54-2.66-29-17.46-26.25-22.74,4.25-44.07,2-51.59-18.37" transform="translate(-353.89 -309)" fill="#1d70b7"/><path d="M3148.7,2116a235.9,235.9,0,0,1,84.17-170c-14.32-34.14-29.46-68-42-102.82-21.18-59-30.1-121-35-183.32-6.57-84-3.57-165.44,31.85-243.13,7.45-14.55,15.48-28.83,23.82-42.89,9.79-16.51,25.37-31.4,32.56-49.08,10.2-25.07-5.7-53.08-30.78-61-21.11-6.66-45.31,4.18-54.72,24.18-5.08,10.79-5.59,22.69-8.17,34.16q-4.51,20.13-10.35,39.93A782.5,782.5,0,0,1,3069,1529c-.5.88-1,1.74-1.5,2.57-2.47,4.18-4.81,7.83-7,10.84,12.48-62,26.34-124,37.93-186.11,2.51-13.45,5-26.7,8.11-40.09,3.59-15.72,6.77-34.22-2-48.72-7.53-12.41-19.75-21.18-34.29-23.16a46.88,46.88,0,0,0-46.44,70.78c19.21,31.53,14.2,69.65,4.23,103.39-11.84,40-24.3,79.88-36.45,119.82-15.87,52.17-32.19,104-37.4,158.46a614.63,614.63,0,0,0,5.61,159.19,569,569,0,0,0,35.67,125.57c17,41.25,36.48,81.84,47.39,125.31,20.31,80.9,11.22,168.85-24.38,244.19-6.15,13-15,26.94-9.64,41.56,15.13,40.94,86.07,8.71,112-2.49a328.12,328.12,0,0,0,100.56-67.91A289.62,289.62,0,0,1,3148.7,2116" transform="translate(-353.89 -309)" fill="#89aabc"/><path d="M4024.33,1663.05l-99.47-664.84v-.05l0-.25c0-.08,0-.15-.05-.23a12.65,12.65,0,0,0-.29-1.36c0-.16-.09-.32-.13-.47-.12-.39-.25-.78-.4-1.16-.07-.16-.13-.33-.2-.5-.16-.37-.35-.74-.54-1.11-.08-.14-.14-.28-.22-.42a.47.47,0,0,1,0-.1c-.28-.46-.57-.9-.88-1.32a1.47,1.47,0,0,0-.1-.13,12.61,12.61,0,0,0-1-1.18l-.29-.3c-.31-.31-.63-.61-.95-.89l-.36-.29c-.34-.28-.7-.54-1.07-.79-.11-.07-.21-.15-.33-.22a15,15,0,0,0-3-1.46l-.51-.16a10.88,10.88,0,0,0-1.12-.3,5.05,5.05,0,0,0-.56-.12c-.41-.08-.82-.14-1.24-.18l-.4,0a13.58,13.58,0,0,0-1.69,0l-.19,0a14.84,14.84,0,0,0-1.48.15l-.44.08c-.41.07-.82.17-1.23.28l-.48.13c-.4.13-.79.27-1.19.43l-.43.17a15.89,15.89,0,0,0-1.54.78L3445,1254.49h0L3222.8,1384.37c.57-1,1.12-1.91,1.7-2.88a192.9,192.9,0,0,1,12.66-17.89c7.78-10.19,15.83-20.73,20.9-33.18a58.11,58.11,0,0,0-1.55-47.1,64.2,64.2,0,0,0-38.62-33.86c-28.17-8.88-60.15,5.22-72.8,32.1-4.39,9.32-6,18.89-7.39,27.34-.59,3.49-1.14,6.78-1.84,9.93-2.93,13-6.33,26.13-10.11,39a777.24,777.24,0,0,1-27.91,78.58c5.3-25.64,10.54-51.59,15.34-77.3,2.35-12.57,4.9-26,8-39.5,4.62-20.21,7.35-41.44-3.83-59.85-10.14-16.7-26.57-27.72-45.09-30.24a61.87,61.87,0,0,0-61.27,93.44c13.62,22.36,14.46,51.39,2.65,91.34-7.87,26.61-16.16,53.63-24.18,79.75q-5,16.29-10,32.57l-112.75,65.89a15,15,0,1,0,15.13,25.9l84.81-49.56c-12.14,40.88-23.26,83-27.44,126.55a629.5,629.5,0,0,0,5.75,163.08,583.46,583.46,0,0,0,36.6,128.84c3.7,8.94,7.55,18,11.27,26.67,13.35,31.26,27.16,63.58,35.44,96.56a345,345,0,0,1,8.4,119,351,351,0,0,1-31.62,114.73,30.89,30.89,0,0,0-19.11-2.15l-.25,0-.13,0-40.69,8.88c-15.72,3.15-23.61,2.31-35.09-3.74a39.06,39.06,0,0,0-36.56,69l56.79,30.24c1.54.82,7.07,3.91,14.06,7.83,17.66,9.9,47.22,26.46,72.86,40.23a38.58,38.58,0,0,0,18.3,4.6,39,39,0,0,0,33.06-18.25l22-35.24.12-.18a32,32,0,0,0,3.52-28.4c11.56-4.11,22.1-8.67,30.36-12.25l2.42-1.06a344.73,344.73,0,0,0,93.91-60.42,303.22,303.22,0,0,0,196.42,91q11,.81,22.08.81h.77a294.56,294.56,0,0,0,144.37-37.85,54.18,54.18,0,0,1-6.25,19.36c-1.11,1.21-4.06,4.09-11.52,10.85-17,15.37-19.15,41.13-4.93,58.66a42.6,42.6,0,0,0,56.92,8.31l25.08-15.1a93.9,93.9,0,0,0,29.07-27.5l66.14-97.28a38.48,38.48,0,0,0-7.44-52.77h0l-28.66-22.27a366.23,366.23,0,0,0-54.87-450,428.09,428.09,0,0,0-115.51-81.56,474.84,474.84,0,0,0-133.14-41.5c-74.48-11.81-151.47-6.41-221.63,15-2.71-19.46-4.92-40.31-6.69-62.93-3.7-47.3-3.65-85.79.14-121.15,4-37.54,12.38-71.37,25.41-103l255.36-149.24,549,392.19a15,15,0,0,0,23.55-14.43M3018.12,1502.82c8.05-26.2,16.37-53.29,24.28-80.06,14.19-48,12.29-85.74-5.8-115.45a31.88,31.88,0,0,1,27.18-48.41,32.93,32.93,0,0,1,4.42.3c9.51,1.3,18.08,7.16,23.5,16.09,5.91,9.74,3.21,24.51.22,37.59-3.21,14.08-5.83,27.82-8.23,40.68-7.21,38.64-15.45,78-23.43,116-.77,3.71-1.56,7.44-2.34,11.18l-40.23,23.52c.14-.48.29-1,.43-1.43m47.11,926.12c-.13.19-.26.38-.38.57L3042.66,2465a8.65,8.65,0,0,1-11.4,3c-25.41-13.64-54.81-30.12-72.38-40-7.72-4.32-12.81-7.17-14.64-8.14l-56.78-30.24a8.82,8.82,0,0,1,8.25-15.6c20.28,10.68,36.18,10.45,55.26,6.61l.25-.05,40.76-8.9.11,0c.16,0,.39-.08.73.26a1.08,1.08,0,0,1,.33,1.05,43.81,43.81,0,0,0,1.49,24.82h0c5.18,14,15.61,23.61,30.15,27.72,10.67,3,23.22,3.11,38.39.28a1.8,1.8,0,0,1,2.06.91,1.73,1.73,0,0,1,0,2.18m647.6-103.14a8.07,8.07,0,0,1,1.51,11.13c-.13.17-.25.35-.37.53l-66.3,97.51a63.68,63.68,0,0,1-19.65,18.6l-25.5,15.34c-.3.19-.6.38-.89.59a12.28,12.28,0,0,1-16.54-2.3c-4-5-3.25-12.67,1.73-17.18,12.48-11.29,15.19-14.24,17-17.37a85.7,85.7,0,0,0,11.17-45.31l-.28-9.64a300.2,300.2,0,0,0,34.46-29.74,371.45,371.45,0,0,0,36.76-43.07Zm-318.32-589.58a444.91,444.91,0,0,1,124.73,38.86,398.44,398.44,0,0,1,107.45,75.83,336.51,336.51,0,0,1,1.2,475.89,264.46,264.46,0,0,1-188,78.44h-.69c-4,0-7.91-.07-11.85-.2-.44-.06-.87-.11-1.31-.13a275.54,275.54,0,0,1-262.32-288.18,221.52,221.52,0,0,1,231.69-210.9c97.8,4.59,173.63,87.9,169,185.7a141.78,141.78,0,0,1-148.27,135,112.62,112.62,0,0,1-107.21-117.79,89,89,0,0,1,93-84.62,69.57,69.57,0,0,1,66.24,72.77,53.85,53.85,0,0,1-56.32,51.27,15,15,0,1,0-1.41,30,83.86,83.86,0,0,0,87.7-79.83,99.7,99.7,0,0,0-94.8-104.14A119,119,0,0,0,3279,2107.29a142.63,142.63,0,0,0,135.78,149.16c2.76.13,5.5.2,8.25.2a171.77,171.77,0,0,0,171.38-163.71c5.37-114.33-83.27-211.71-197.59-217.08a249.61,249.61,0,0,0-157.71,46.33c-.89-2.12-1.8-4.24-2.69-6.34-10.8-25.34-22-51.55-31.37-77.73-9.51-26.5-16.95-54.68-22.7-86.56,66.89-21.16,140.72-26.67,212.19-15.34m-195.81-370c-9.33,15.71-17.26,30-24.27,43.71-.11.2-.2.41-.3.61-17.28,37.92-28.06,78.43-32.93,123.83-4,37.24-4.07,77.5-.22,126.69,6.05,77.33,17.09,135.08,35.8,187.22,9.69,27,21,53.62,32,79.37,2,4.71,4,9.47,6.06,14.24a249.87,249.87,0,0,0-81.13,173.46,303.29,303.29,0,0,0,67,205.72,314.48,314.48,0,0,1-85.89,55.31l-2.47,1.07c-10.7,4.64-32.61,14.14-52.33,18.34-.81.09-1.63.21-2.44.36-29.37,5.49-33.19-4.85-34.63-8.75h0a13.63,13.63,0,0,1-.29-8c.13-.59.23-1.19.32-1.78,1.16-4.06,3.39-8.77,6.26-14.56.94-1.88,1.86-3.75,2.74-5.6a381.09,381.09,0,0,0,34.51-124.91,375.27,375.27,0,0,0-9.15-129.33c-8.86-35.29-23.14-68.72-36.95-101-3.69-8.64-7.51-17.58-11.13-26.35a553.66,553.66,0,0,1-34.73-122.3,599.26,599.26,0,0,1-5.48-155.3c4.84-50.55,19.33-98.13,34.68-148.5l1-3.16,45-26.28q-2,9.62-3.9,19.17a15,15,0,0,0,26.9,11.7c2.36-3.29,4.94-7.3,7.68-11.92l1.6-2.74a801.73,801.73,0,0,0,72.54-170.21c4-13.46,7.54-27.21,10.61-40.88.89-4,1.53-7.83,2.16-11.56,1.19-7.17,2.32-13.93,4.94-19.5,6.29-13.36,22.72-20.66,36.64-16.27a34.54,34.54,0,0,1,20.49,18,28.45,28.45,0,0,1,.91,23c-3.56,8.74-10.06,17.26-16.95,26.28a218.88,218.88,0,0,0-14.62,20.8m281.47-97.49,245.1-143.24,173.16-101.2,91,608.24Z" transform="translate(-353.89 -309)" fill="#1d1d1b"/><path d="M3060.83,1692.94c-20.1,0-44.37-6.78-69.9-29a15,15,0,1,1,19.7-22.62c22.24,19.37,45,25.78,67.77,19a73.26,73.26,0,0,0,27.85-15.62,15,15,0,0,1,21.24,21.19,101.51,101.51,0,0,1-40.57,23.19,91.68,91.68,0,0,1-26.09,3.83" transform="translate(-353.89 -309)" fill="#1d1d1b"/><path d="M4037.84,2506.38h-3629a15,15,0,1,1,0-30h3629a15,15,0,0,1,0,30" transform="translate(-353.89 -309)" fill="#1d1d1b"/></g></svg>