<svg xmlns="http://www.w3.org/2000/svg" viewBox="0 0 418.35 482.58"><path d="M145.17,162.43l-1.29,14.47H97.42l4.65-53.31h19.72l-3.35,38.84Z" transform="translate(-11.59 -11.18)" fill="#002dfb"/><path d="M186,122.83c21.4,0,33.66,10,33.66,24.9,0,18-15.31,29.93-38.46,29.93-21.18,0-33.59-9.9-33.59-24.9C147.61,134.78,163,122.83,186,122.83Zm-3.51,39.83c10.28,0,16.91-5.33,16.91-13.63,0-7.24-5.79-11.28-14.7-11.28-10.28,0-16.83,5.41-16.83,13.71C167.87,158.62,173.58,162.66,182.49,162.66Z" transform="translate(-11.59 -11.18)" fill="#002dfb"/><path d="M253.85,164.26c6.71,0,10.29-1.52,10.29-4.65,0-2.66-3.28-3-6.86-3.2l-12.72-.61c-7.92-.38-21.63-1.29-21.63-13.4,0-12.41,11.88-19.57,32.14-19.57,20.49,0,31.46,6.77,30.47,18.73H265.35c0-3.81-4-5.71-11.42-5.71-6.93,0-10.66,1.68-10.66,4.87,0,2.52,3.2,2.9,8.6,3.13l12.87.61c14.7.68,19.58,6.47,19.58,14.09,0,12.64-10.82,19.11-31.76,19.11s-32.22-6.85-31.46-19.11h20.19C241.29,162.58,246.69,164.26,253.85,164.26Z" transform="translate(-11.59 -11.18)" fill="#002dfb"/><path d="M346.31,138.06h-19l-3.43,38.84H304.12l3.42-38.84h-19l1.3-14.47h57.81Z" transform="translate(-11.59 -11.18)" fill="#002dfb"/><path d="M60.18,234.72l15.31,16H51.19L36.26,234.27h-3.5l-1.45,16.45H11.59l4.64-53.32H58.28c13.09,0,20.25,6.55,20.25,16.53,0,10.89-6.93,18.59-18,20ZM58.05,216.6c0-3.58-2.59-4.95-6.4-4.95H34.74l-1,11.42H50.66C55.46,223.07,58.05,220.79,58.05,216.6Z" transform="translate(-11.59 -11.18)" fill="#002dfb"/><path d="M82.19,226.35,84.7,197.4h19.73l-2.44,28c-.61,7,3.2,10.28,10.2,10.28,7.85,0,11.58-4,12.11-10.28l2.44-28h19.73L144,226.35c-1.38,16.07-13,25.05-33.06,25.05C90.72,251.4,80.82,242.42,82.19,226.35Z" transform="translate(-11.59 -11.18)" fill="#002dfb"/><path d="M259.26,197.4l-4.64,53.32H231.77l-17-26.35h-1l-2.28,26.35H188.66l-17-26.35h-1l-2.28,26.35H148.67l4.65-53.32h23.23L193,225.05h1l2.44-27.65h23.23l16.45,27.65h1.06l2.37-27.65Z" transform="translate(-11.59 -11.18)" fill="#002dfb"/><path d="M281.19,250.72H261.47l4.64-53.32h19.73Z" transform="translate(-11.59 -11.18)" fill="#002dfb"/><path d="M355.53,197.4l-4.65,53.32H328l-17-26.35h-1l-2.29,26.35H288.05l4.64-53.32h23.23l16.45,27.65h1.07l2.36-27.65Z" transform="translate(-11.59 -11.18)" fill="#002dfb"/><path d="M377.92,225.36c0,7.16,5.86,11.12,14.85,11.12,6.4,0,11.65-2,14.62-5.18H387.51l.61-7.69h41.51l-.3,4-.23,2.51v.08l-1.83,20.64h-10L414.17,244h-1.3c-5.78,4.87-14.16,7.46-24.44,7.46-19.35,0-30.85-9.37-30.85-23.69,0-18.43,16-31.15,38.92-31.15,20.11,0,33.66,9.52,33.44,23.61H409.75c-1.14-5.63-7.31-8.6-15-8.6C384.54,211.65,377.92,217.05,377.92,225.36Z" transform="translate(-11.59 -11.18)" fill="#002dfb"/><path d="M132.22,270.46c20.72,0,34.2,9.6,33.82,23.92H145.55c-1.29-5.79-7-8.92-15-8.92-10.05,0-16.45,5.34-16.45,13.71,0,7.16,5.56,11.12,14.24,11.12s14.55-3.65,16.6-8.91h20.49c-2.28,14.4-17.21,23.92-38,23.92-21.18,0-33.59-9.9-33.59-24.91C93.84,282.42,109.15,270.46,132.22,270.46Z" transform="translate(-11.59 -11.18)" fill="#002dfb"/><path d="M215.7,310.07l-1.3,14.47H167.94l4.65-53.32h19.72L189,310.07Z" transform="translate(-11.59 -11.18)" fill="#002dfb"/><path d="M220,300.16l2.51-28.94H242.2l-2.44,27.95c-.61,7,3.2,10.29,10.21,10.29,7.84,0,11.57-4,12.11-10.29l2.44-27.95h19.72l-2.51,28.94c-1.37,16.07-13,25.06-33.06,25.06S218.59,316.23,220,300.16Z" transform="translate(-11.59 -11.18)" fill="#002dfb"/><path d="M347.68,309.84c0,8.91-6.7,14.7-17.06,14.7H286.45l4.64-53.32h42.27c9.14,0,15,4.88,15,12.19,0,6.93-4.19,11.88-10.74,13.94l-.08.83C344.33,299.55,347.68,304.12,347.68,309.84Zm-20-2.82c0-2-1.29-3.89-4.42-3.89H308.08l-.77,8.61h15.16C325.82,311.74,327.65,309.53,327.65,307Zm.38-19.19c0-2-1.37-3.81-4.42-3.81H309.75l-.76,8.6h13.86A4.82,4.82,0,0,0,328,287.83Z" transform="translate(-11.59 -11.18)" fill="#002dfb"/><path d="M17.84,299.41c-.36,22.36,18.26,39.44,38,46.45,10.66,3.78,23.54,5.57,34.25,1.11,10.88-4.53,16.35-15.38,18.55-26.41,4.81-24.08-2.84-54.55,18-72.76,8.63-7.53,20.21-8.21,29.81-2.06,10.23,6.55,15.92,17.69,19.88,28.78,4.35,12.19,7.33,25.35,14.93,36.07,6.37,9,15.85,16.7,27.25,17.4s21.33-6.34,27.29-15.47c7.09-10.86,8.16-24.46,7.9-37.09-.56-26-7-56.84,10.68-79,3.25-4.07,8.62-9.95,14.38-9.43,3.27.3,4.95,3.19,6.37,5.79,1.23,2.27,2.39,4.59,3.57,6.88,4.58,8.91,9.65,18.79,18.61,24.05,9.22,5.42,20,3.76,28.08-2.84a36.5,36.5,0,0,0,13.11-28.61c-.23-13-5.89-25-12.26-36-7.34-12.7-15.3-25.06-23-37.55L301.69,99.77l-1.9,3.31,22.38.83c6,.23,13,1.36,18.78-1,10.1-4.19,9.53-17.31,3.58-24.69C341,73.76,335.94,70.76,331,68.14a186,186,0,0,0-18.24-8.32,184.1,184.1,0,0,0-38.35-10.47c-20.42-3.26-47-5.55-63.58,9.56-17.79,16.16-11.18,42.89-1.31,61.44C233,164.52,275,194.49,302.13,236c13.3,20.28,23.77,43.69,24.65,68.25a83.14,83.14,0,0,1-6,34.65,96.33,96.33,0,0,1-18.55,28.36c-16.83,18.25-38.62,30.54-60.9,40.94-12.19,5.69-24.6,10.9-36.83,16.52-10.68,4.91-22.26,9.68-31.11,17.61-7.78,7-12,17.1-7.68,27.17,4.44,10.26,14.95,16.68,25,20.33,22.58,8.15,48.2,3.12,68.23-9.23,20.56-12.69,36.53-32.43,48.06-53.42,6.08-11.1,11-23.14,13.21-35.66,1.83-10.53,1.48-22.6-6.16-30.9-7.3-7.94-19.4-9.82-29.4-6.77a43.39,43.39,0,0,0-15,8.44c-4.53,3.8-7.76,8.84-12.24,12.65-4.86,4.14-11.9,4.9-18,5.22a68.94,68.94,0,0,1-17.08-1.25,85.69,85.69,0,0,1-32.18-14c-20.21-14.12-33.59-36-42.18-58.72-9.37-24.81-15.53-52.34-12.94-79,2.4-24.75,14.1-47.43,30.94-65.48,4.1-4.4,8.53-8.4,13-12.37,4-3.51,8.08-7.29,10.6-12.05,5.2-9.83,1-20.09-7-26.81-8.89-7.44-20.89-11.63-32.23-13.3-11.81-1.73-24.55-.33-34.54,6.66-8.62,6-15.14,15.51-16,26.18-.74,9.57,3.91,18.23,11.81,23.51,7.15,4.77,16.91,6.41,24.63,2,8.35-4.78,11.61-14.56,11.05-23.74-1.31-21.47-18.63-40-36.88-49.56C101.66,77.6,92,74.43,82,75.78,73.21,77,65,82.42,64.32,91.94c-.87,11.73,9.63,20.32,19.88,23.2,5.77,1.62,11.83,2,17.78,2.39a111.19,111.19,0,0,0,20.48-.15c11.29-1.4,22.25-6.24,28.57-16.1,6.46-10.08,4.08-21.46-2.52-30.78-6.42-9.08-15-18.62-25.46-23-9.31-3.92-20.58-2.42-27.27,5.65-6.5,7.85-4.06,18.47,4.35,23.78,9.87,6.24,21.52,2.93,30.78-2.78,11.3-7,21.32-16.07,31.89-24.07a179.15,179.15,0,0,1,33.07-20.36,156.78,156.78,0,0,1,72.46-13.95c23.47,1.11,51.14,6.36,64.8,27.55,12.46,19.33,12.55,44.56,6.67,66.11A110.11,110.11,0,0,1,324.17,143c-7,10.14-15.91,18.79-25.5,26.5-18.86,15.14-40.52,26.69-58.37,43.11-16.56,15.23-30.94,36-32.31,59.09a55.3,55.3,0,0,0,8.11,31.95c5.91,9.7,14.3,17.64,23.4,24.32,18.66,13.72,43.62,25.71,66.92,17.07a42.9,42.9,0,0,0,13-7.49c4.13-3.52,6.63-7.73,9.3-12.36,1.13-1.95,2.77-4.68,5.32-3.15s4.68,4.21,6.6,6.36a70.1,70.1,0,0,1,10.16,15c5.67,11.17,7.6,23,7.51,35.46-.08,12.27.17,24.46,8.17,34.49a35.59,35.59,0,0,0,26,13.41,36.27,36.27,0,0,0,28.31-12.05c1.87-2.12-1.23-5.23-3.11-3.11a31,31,0,0,1-51.93-7.78c-5.14-11.53-2.14-24.78-3.48-36.94a74.64,74.64,0,0,0-10.59-30.92,73.58,73.58,0,0,0-10.49-13.35c-3.27-3.29-7.6-7.49-12.37-4.25-3.87,2.63-5.18,7.85-8,11.43A34.18,34.18,0,0,1,309,339.15c-21.43,10.73-45.57,0-63.69-12.44-17.91-12.24-33.49-30-33-52.91.47-22.46,14.67-42.81,30.56-57.59,16.84-15.68,37.3-26.88,55.45-40.9,9.09-7,17.71-14.73,24.89-23.73a114.44,114.44,0,0,0,17.18-29.91c7.84-20.16,10.4-43.47,3.95-64.38-3-9.78-8.11-19.07-15.58-26.15-8.45-8-19.38-12.62-30.54-15.44a157.31,157.31,0,0,0-69.65-1.21c-23.41,4.77-45,14.88-64.21,29-10.3,7.55-20,15.86-30.39,23.32-8.61,6.2-20,12.69-30.55,7-3.93-2.14-7.12-5.9-7.11-10.57,0-4.45,3-8.25,6.66-10.54,9.68-6.13,20.5-1.51,28.39,5.34a92.34,92.34,0,0,1,11.38,12.09c3.68,4.62,7.14,10,7.8,16,1.16,10.58-7.05,19.63-16.15,23.71-11.44,5.12-25,4-37.18,3C86.42,111.93,73,109,69.34,97.2A12.29,12.29,0,0,1,72,84.82c2.9-3,7.12-4.34,11.16-4.79,9.54-1.07,18.77,2.39,27,7,17,9.5,34.2,28.23,32.79,49-.57,8.45-6,16.69-14.94,17.58-8.33.82-16.93-4.17-21.12-11.26-5.13-8.69-2.41-19.6,3.36-27.24,6.82-9.05,17.46-13.72,28.62-14.23a66.17,66.17,0,0,1,34.27,8.36c8.35,4.67,17.5,13.33,13.6,23.83-1.83,4.93-5.9,8.74-9.72,12.16-4.26,3.82-8.57,7.54-12.55,11.67a131.67,131.67,0,0,0-19.9,26.46c-12.3,21.73-16.24,46.25-13.64,70.95a206.78,206.78,0,0,0,20.05,69.56c10.17,20.43,25.12,38.74,45.29,49.92A85.83,85.83,0,0,0,226.85,384a69.49,69.49,0,0,0,17,.1c5.49-.65,11.09-1.74,15.56-5.19s7.4-8.09,11.4-11.82a39.18,39.18,0,0,1,15-9.07c9.73-3,21.66-.62,27.29,8.51,5.88,9.56,3.74,22.08.92,32.27a130.06,130.06,0,0,1-15.43,33.94c-11.92,19.14-27.56,36.78-47.77,47.35S204.7,493.29,184.12,482c-8.56-4.69-17.72-13.47-15.59-24.21,2-10.05,12.19-16.39,20.57-20.8,22.49-11.85,46.5-20.52,69-32.26,19.83-10.33,38.8-23.35,52.79-41,13.67-17.26,21.18-38.16,20.21-60.28-2.1-47.82-35.35-85.9-66.21-119.22C249,167,232.86,149.78,220.2,130c-6.06-9.5-11.52-19.52-14.35-30.49-2.67-10.33-3-21.88,2.84-31.24,11.48-18.47,37.83-17.81,56.71-15.7a180.72,180.72,0,0,1,37.39,8.35,178.32,178.32,0,0,1,17.58,6.95c5.5,2.53,11.22,5.16,16.1,8.77,4,2.93,7.46,6.94,8,12,.51,4.9-1.7,9.43-6.7,10.73a25.86,25.86,0,0,1-7.4.48c-3.35-.1-6.71-.24-10.06-.37l-20.51-.77a2.22,2.22,0,0,0-1.9,3.31q11.61,18.87,23.23,37.75c7,11.31,14.75,22.57,19.42,35.08,4.21,11.3,5.46,23.7-.92,34.43-5.07,8.53-14.69,15.55-25,12.77-9.81-2.65-15.47-12.14-19.95-20.52-2.48-4.62-4.51-9.78-7.59-14-3.45-4.78-8.81-6-14.18-3.71-10.19,4.28-16.9,15.77-20.49,25.69-4.33,12-5,24.85-4.51,37.46.49,14.22,2.53,28.61.93,42.83-1.33,11.77-6.1,23.85-16.6,30.3-9.91,6.09-21.38,3.68-29.89-3.67-9.64-8.33-14.14-20.14-18-31.93-3.79-11.49-7.36-23.24-15-32.82-6.64-8.3-16.44-15-27.46-14.57-10.31.38-18.91,6.77-24.71,14.94-6.84,9.61-9.22,21.07-10.1,32.64-1.66,21.79,1.95,59.08-28.9,60.46-20.79.94-44.65-11.56-53-31.14a35.19,35.19,0,0,1-2.82-14.53c0-2.83-4.35-2.83-4.4,0Z" transform="translate(-11.59 -11.18)" fill="#ff0019"/></svg>