<svg xmlns="http://www.w3.org/2000/svg" viewBox="0 0 234.68 175.47"><path d="M84,114.77,96.2,130.84,48.5,174.25l-45-59.08L23.71,96.74l32.85,43Z" transform="translate(-3.45 -1.57)" fill="#fff"/><path d="M134.65,75.15l9.13,29.35-30.19-15-8.37-29.68-4.35-2.17-12,19.55L64.37,65,103.15,1.57l52.24,26c16.28,8.11,21.12,20.68,14.94,33.07-6.74,13.54-20.11,18.81-34.73,13.77Zm8.57-23.84c2.22-4.45-.15-7.76-4.88-10.12l-21-10.46L109,44.31l21,10.47C136,57.75,140.63,56.51,143.22,51.31Z" transform="translate(-3.45 -1.57)" fill="#fff"/><path d="M191.17,100.91c28.76,0,47.48,13.33,47,33.2H209.68c-1.8-8-9.73-12.37-20.83-12.37-14,0-22.84,7.41-22.84,19,0,9.93,7.72,15.43,19.77,15.43s20.2-5.07,23.05-12.37h28.44c-3.17,20-23.89,33.2-52.76,33.2-29.39,0-46.63-13.74-46.63-34.57C137.88,117.51,159.14,100.91,191.17,100.91Z" transform="translate(-3.45 -1.57)" fill="#fff"/></svg>