<svg xmlns="http://www.w3.org/2000/svg" viewBox="0 0 204.1 48.93"><path d="M52.66,53.55V13.64h5.69V5H37.11v8.67h5.63v22.7h-.69L28.57,7.89C27.4,5.6,26.64,5,24.06,5H6.71v8.67h5.83V44.81H6.71v8.74H28.3V44.81H22.47V19.9h.69L37.81,50.64c1.1,2.29,1.87,2.91,4.5,2.91Z" transform="translate(-6.71 -4.77)" fill="#fff"/><path d="M88.21,44c-.49.43-1.11.7-3.34.63H75.62c-2.23,0-2.86-.2-3.34-.63-.63-.62-1.54-2.29-1.54-14.68s.91-14.12,1.54-14.68,1.11-.7,3.34-.7h9.25c2.23,0,2.85.21,3.34.7s1.53,2.29,1.53,14.68S88.84,43.39,88.21,44M96.57,7.34C94.82,5.67,92.59,5,87.79,5H72.69c-4.8,0-7,.7-8.77,2.37-2.78,2.58-4.8,7-4.8,22s2,19.34,4.8,22c1.75,1.66,4,2.37,8.77,2.37h15.1c4.8,0,7-.71,8.78-2.37,2.77-2.65,4.79-7.09,4.79-22s-2-19.41-4.79-22" transform="translate(-6.71 -4.77)" fill="#fff"/><path d="M161.38,53.69V5H146.21c-2.09,0-2.71.63-3.27,2.65l-8.07,29.09H134L125.69,7.62c-.56-2-1.26-2.65-3.27-2.65H107V53.69h10.64V17.85h.83l10.1,33.33c.55,2,1,2.51,2.92,2.51h5c1.81,0,2.3-.56,2.92-2.51l10-33h.9V53.69Z" transform="translate(-6.71 -4.77)" fill="#fff"/><path d="M180.75,33.09,186.18,15h.91l5.43,18.1Zm30.07,20.6L195.71,8c-.89-2.58-1.45-3.2-4-3.2h-9.4c-2.58,0-3.06.56-4,3.2l-15.1,45.72h11.34l3.62-12.11H195l3.69,12.11Z" transform="translate(-6.71 -4.77)" fill="#fff"/></svg>