<svg xmlns="http://www.w3.org/2000/svg" viewBox="0 0 547.99 342.75"><path d="M145.53,162.92a1.14,1.14,0,0,1,.41-.34.47.47,0,0,1,.43,0,.72.72,0,0,1,.3.34,1.38,1.38,0,0,1,.06.78,2.38,2.38,0,0,1-.43,1c-.58.93-1.17,1.83-1.78,2.7s-1.25,1.71-1.93,2.53-1.19,1.42-1.85,2.14-1.38,1.4-2.11,2.06a23.24,23.24,0,0,1-2.3,1.82,13.84,13.84,0,0,1-2.44,1.37,9,9,0,0,1-3.26.82c-.08.64-.17,1.27-.27,1.88s-.2,1.2-.3,1.79c1.83.17,3.62.36,5.37.59s3.42.45,5,.69,3,.48,4.38.72,2.53.46,3.55.66,1.85.37,2.49.52,1,.24,1.19.29a2.87,2.87,0,0,1,1.13.58,2.42,2.42,0,0,1,.62.79,1.16,1.16,0,0,1,.09.67.59.59,0,0,1-.37.44,1.41,1.41,0,0,1-.88.06,4.49,4.49,0,0,1-1.3-.57,8.69,8.69,0,0,0-1.6-.58c-.73-.2-1.62-.42-2.67-.64s-2.22-.44-3.54-.65-2.74-.4-4.23-.58-3.07-.33-4.72-.46-3.31-.24-5-.3a27.24,27.24,0,0,1-1.76,5.1,20.26,20.26,0,0,1-2.56,4.15,17.79,17.79,0,0,1-3.43,3.28,22.52,22.52,0,0,1-4.38,2.49,13,13,0,0,1-5,1.2,10.94,10.94,0,0,1-4.25-.74,9.6,9.6,0,0,1-3.3-2.18,10.27,10.27,0,0,1-2.17-3.15,11.54,11.54,0,0,1-1-3.69,6.47,6.47,0,0,1,.43-2.94,6.12,6.12,0,0,1,1.67-2.27,10.87,10.87,0,0,1,2.72-1.67,20.07,20.07,0,0,1,3.92-1.23,41.79,41.79,0,0,1,4.69-.7c1.66-.15,3.4-.24,5.21-.26s3.65,0,5.5.08c.12-.62.22-1.25.3-1.88l.24-1.9a3.45,3.45,0,0,1-.72-.32,1,1,0,0,1-.42-.48,1.63,1.63,0,0,1,.12-1.19,5.31,5.31,0,0,1,1.36-1.76c.14-2.4.2-4.81.2-7.23s0-4.74-.09-7-.11-4.34-.16-6.31-.06-3.71,0-5.21a21.78,21.78,0,0,1,.35-3.66c.19-.94.5-1.51.93-1.69a33.76,33.76,0,0,1-4.44,1.55c-1.71.49-3.52,1-5.44,1.42l-5.84,1.37L106,148.67l-5.09,1.2A20.3,20.3,0,0,0,97.51,151a10.6,10.6,0,0,0-3,1.91,6.69,6.69,0,0,0-1.59,2.26,5.27,5.27,0,0,0-.38,2.44,7.62,7.62,0,0,0,.62,2.45,9.82,9.82,0,0,0,1.9,2.81A11.51,11.51,0,0,0,97.75,165a9.06,9.06,0,0,0,3.1,1.06,5.51,5.51,0,0,0,3-.38,19.6,19.6,0,0,0,4.29-2.44,10.3,10.3,0,0,0,2.29-2.41,5.33,5.33,0,0,0,.84-2.22,6.51,6.51,0,0,0,0-1.83,6.94,6.94,0,0,0-.34-1.26c-.13-.31-.15-.49-.06-.53a.79.79,0,0,1,.53,0,1.71,1.71,0,0,1,.61.26,2.41,2.41,0,0,1,.55.47,2.11,2.11,0,0,1,.39.58,6.62,6.62,0,0,1,.57,3.39,7.57,7.57,0,0,1-1.06,3.13,10.38,10.38,0,0,1-2.33,2.66,13.8,13.8,0,0,1-3.21,2,12.1,12.1,0,0,1-5.2,1.11,12.77,12.77,0,0,1-4.74-1,12.53,12.53,0,0,1-3.83-2.49,10.79,10.79,0,0,1-2.49-3.49,8.62,8.62,0,0,1-.73-3.11,7.15,7.15,0,0,1,.59-3.17,9.19,9.19,0,0,1,2.15-3,13.75,13.75,0,0,1,3.89-2.45,41,41,0,0,1,5.83-2.15L107,146.6l5.43-1.37,4.89-1.24c1.22-.3,2.68-.68,4.39-1.13a30.88,30.88,0,0,0,9.6-4.28,31.83,31.83,0,0,0,4.68-3.86l.59,0a4.14,4.14,0,0,1,.63.1,2.93,2.93,0,0,1,.53.21.72.72,0,0,1,.33.34.9.9,0,0,1-.21.86,19.37,19.37,0,0,1-1.42,1.85,12.22,12.22,0,0,1-1.23,1.25,6.74,6.74,0,0,1-1.2.87c-.41.23-.85.44-1.31.65s-1,.43-1.57.65-1.23.5-2,.83q1.13,9.82,1.66,17.69a125.73,125.73,0,0,1,.25,14l.13.06a3.49,3.49,0,0,0,2,.54,5.66,5.66,0,0,0,2.11-.51,9.12,9.12,0,0,0,1.88-1.12,20.53,20.53,0,0,0,1.85-1.57,23.54,23.54,0,0,0,1.75-1.84c.57-.65,1.09-1.28,1.58-1.91s1.14-1.53,1.68-2.32S145,163.79,145.53,162.92Zm-28.29,33.89a10,10,0,0,0,2.93-1.95,13.82,13.82,0,0,0,2.27-2.91,20.17,20.17,0,0,0,1.69-3.69,36.27,36.27,0,0,0,1.2-4.3c-1.64,0-3.26,0-4.86.13s-3.12.23-4.57.43a38.49,38.49,0,0,0-4.1.75,20.18,20.18,0,0,0-3.42,1.12,6.25,6.25,0,0,0-2,1.35,4.76,4.76,0,0,0-1.11,1.69,4.44,4.44,0,0,0-.28,1.88,5.58,5.58,0,0,0,.46,1.88,7.26,7.26,0,0,0,1.68,2.34,8,8,0,0,0,2.68,1.67,9.15,9.15,0,0,0,3.46.57A10.46,10.46,0,0,0,117.24,196.81Z" transform="translate(-62.17 -7.05)" fill="#002dfb"/><path d="M151.61,167.31c-.21-.48-.42-1-.62-1.62s-.4-1.23-.6-1.9-.38-1.34-.55-2-.33-1.38-.47-2.07l-4,5.47a.93.93,0,0,1-.4.36.72.72,0,0,1-.52,0,.59.59,0,0,1-.36-.35,1.21,1.21,0,0,1,0-.74,3.41,3.41,0,0,1,.54-1.06l4-5.9c-.06-.75-.11-1.78-.17-3.07s-.07-2.76,0-4.38.13-3.37.3-5.24a51.21,51.21,0,0,1,.83-5.7,44.43,44.43,0,0,1,1.56-5.72,28.54,28.54,0,0,1,2.46-5.31,21.77,21.77,0,0,1,3.58-4.47,16.76,16.76,0,0,1,4.9-3.23,24.58,24.58,0,0,1,4.23-1.46,11.38,11.38,0,0,1,3.27-.33,5.07,5.07,0,0,1,2.29.64,3.21,3.21,0,0,1,1.3,1.48,5.55,5.55,0,0,1,.1,3.64,15.46,15.46,0,0,1-2.37,4.79l-17.58,25.53,2.31,8.77,1.6-2.28,1.49-2.19L160,157c.38-.58.68-1.06.9-1.45a6.74,6.74,0,0,1,.41-.76,7.4,7.4,0,0,1,.68-.91,8.17,8.17,0,0,1,.89-.87,5.15,5.15,0,0,1,1.12-.7,4.27,4.27,0,0,1,.94-.29,1.77,1.77,0,0,1,1,.08,2.79,2.79,0,0,1,1,.73,6.16,6.16,0,0,1,1,1.63l2.4,5.5.59-.83,1.05-1.46c.41-.57.86-1.19,1.36-1.86s1-1.35,1.49-2l3.82-5.31a1.82,1.82,0,0,1,.65-.59.48.48,0,0,1,.71.28,1.36,1.36,0,0,1,0,.86,3.37,3.37,0,0,1-.61,1.22q-1.74,2.41-3.34,4.61t-2.89,3.94c-.88,1.16-1.63,2.12-2.26,2.88a8.29,8.29,0,0,1-1.4,1.44,5.3,5.3,0,0,1-.47.28,4.59,4.59,0,0,1-.5.24,3.51,3.51,0,0,1-1.33.35,2.07,2.07,0,0,1-1-.23,2.17,2.17,0,0,1-.71-.64,4.79,4.79,0,0,1-.52-.92,3.76,3.76,0,0,1-.27-1.11,7.5,7.5,0,0,0-.26-1.32L163,154.86c-1.49,2.44-2.86,4.64-4.13,6.58-.4.77-.82,1.52-1.23,2.24s-.79,1.37-1.14,1.95a16.3,16.3,0,0,1-.94,1.41,2.31,2.31,0,0,1-.61.64c-.27.12-.57.23-.89.34a3.38,3.38,0,0,1-1,.18,2.07,2.07,0,0,1-.86-.18A1.35,1.35,0,0,1,151.61,167.31Zm.89-15.56c1.26-2,2.57-4.06,3.94-6.19s2.77-4.27,4.2-6.4,2.85-4.25,4.29-6.33,2.85-4.05,4.24-5.94a16.28,16.28,0,0,0,1.51-3.35,3.43,3.43,0,0,0,0-2.26q-.47-1.07-2.37-1a16.58,16.58,0,0,0-5.41,1.62,10.16,10.16,0,0,0-3,2.06,17.05,17.05,0,0,0-2.47,3.14,24.5,24.5,0,0,0-2,3.9,38.64,38.64,0,0,0-1.47,4.37c-.41,1.5-.74,3-1,4.55s-.45,3-.58,4.44-.18,2.77-.17,4A24.8,24.8,0,0,0,152.5,151.75Z" transform="translate(-62.17 -7.05)" fill="#002dfb"/><path d="M202.45,140.11c-1.65,2.24-3,4.16-4.16,5.77s-2.09,3-2.9,4a25.55,25.55,0,0,1-2.15,2.55,6,6,0,0,1-1.84,1.33,5,5,0,0,1-1.62.45,3.18,3.18,0,0,1-1.3-.14,2.41,2.41,0,0,1-1-.65,3.79,3.79,0,0,1-.69-1.07,2.66,2.66,0,0,1-.2-1,7.85,7.85,0,0,1,.06-1.16c.05-.41.1-.84.16-1.29s.08-.93.09-1.42l.08-8.62-8.52,11.68a1.24,1.24,0,0,1-.34.28.8.8,0,0,1-.53,0,.62.62,0,0,1-.4-.36,1.13,1.13,0,0,1,0-.67,2.9,2.9,0,0,1,.52-1l4.12-5.62,1.64-2.23,1.56-2.1,1.31-1.75.92-1.19,2.75-1.21a.66.66,0,0,1,.24.15,1.46,1.46,0,0,1,.26.42,6,6,0,0,1,.36,1.69c.08.77.14,1.64.19,2.61s.07,2,.08,3.08,0,2.11,0,3.08,0,1.91,0,2.88,0,2,0,3a5.36,5.36,0,0,0,1.58-1.37q1-1.11,2.34-2.88c.9-1.18,1.91-2.53,3-4.07l3.59-4.95c0-.08.12-.15.28-.22a.88.88,0,0,1,.56,0,.6.6,0,0,1,.42.37,1,1,0,0,1,0,.67A3,3,0,0,1,202.45,140.11Zm-13.12-14,.48-.2.82-.3c.31-.1.65-.19,1-.27a4.67,4.67,0,0,1,1-.11,2.3,2.3,0,0,1,.88.16,1,1,0,0,1,.6.55l-2.07,3.7L191,131a.89.89,0,0,1-.69,0,1.56,1.56,0,0,1-.52-.31Z" transform="translate(-62.17 -7.05)" fill="#002dfb"/><path d="M213,127.69a5.46,5.46,0,0,0,.7,1.27,7.44,7.44,0,0,0,.62.63,6.74,6.74,0,0,1,.62.59,4.3,4.3,0,0,1,.67,1.17,8.38,8.38,0,0,1,.45,1.34,7.18,7.18,0,0,1,.21,1.66,7.46,7.46,0,0,1-.24,1.88,6.49,6.49,0,0,1-.9,2l6.26-8.43a.75.75,0,0,1,.26-.22.62.62,0,0,1,.5,0,.73.73,0,0,1,.39.4,1.23,1.23,0,0,1,0,.66,2.11,2.11,0,0,1-.42.93c-1.31,1.75-2.44,3.28-3.38,4.56l-2.39,3.29c-.66.92-1.19,1.67-1.61,2.27s-.77,1.09-1.05,1.49a7.35,7.35,0,0,1-1.58,1.68,8.53,8.53,0,0,1-1.71,1,1.87,1.87,0,0,1-1.1.2.68.68,0,0,1-.52-.4A.76.76,0,0,1,209,145a1.62,1.62,0,0,1,.81-.65,3.65,3.65,0,0,0,1.71-1.6,7.11,7.11,0,0,0,.89-2.7,11.8,11.8,0,0,0,0-3.4,14,14,0,0,0-1.06-3.67,10,10,0,0,1-.35-1.12,14.39,14.39,0,0,1-.37-1.87,12,12,0,0,1-.12-2.08,3.94,3.94,0,0,1,.42-1.76l-9.25,14.44a.82.82,0,0,1-.38.34.53.53,0,0,1-.46,0,.71.71,0,0,1-.34-.36,1.41,1.41,0,0,1-.07-.76,2.27,2.27,0,0,1,.47-1q2.42-3.83,4.07-6.39l2.71-4.17,2.1-3.34a10,10,0,0,1,1.19-1,6.64,6.64,0,0,1,1.28-.75,2.65,2.65,0,0,1,1.21-.26.8.8,0,0,1,.75.52,1.21,1.21,0,0,1-.15.73c-.15.37-.31.78-.48,1.24a12.46,12.46,0,0,0-.44,1.35A1.54,1.54,0,0,0,213,127.69Z" transform="translate(-62.17 -7.05)" fill="#002dfb"/><path d="M257.18,116.14q-2.46,3.36-4.15,5.78t-2.9,4a25.83,25.83,0,0,1-2.15,2.56,6.21,6.21,0,0,1-1.84,1.33,4.94,4.94,0,0,1-1.62.44,3.18,3.18,0,0,1-1.3-.14,2.31,2.31,0,0,1-1-.65,3.79,3.79,0,0,1-.69-1.07,2.47,2.47,0,0,1-.2-1,7.91,7.91,0,0,1,.06-1.17c.05-.41.1-.84.16-1.29s.08-.93.09-1.42l.08-8.62-8.52,11.69a1.35,1.35,0,0,1-.34.27.7.7,0,0,1-.53,0,.61.61,0,0,1-.4-.35,1.14,1.14,0,0,1,0-.67,2.85,2.85,0,0,1,.52-1l4.12-5.62c.54-.74,1.08-1.48,1.64-2.23l1.56-2.1,1.31-1.75L242,112l2.75-1.21a.66.66,0,0,1,.24.15,1.46,1.46,0,0,1,.26.42,6.12,6.12,0,0,1,.36,1.7c.08.76.14,1.63.19,2.6s.07,2,.08,3.08,0,2.11,0,3.08,0,1.91,0,2.88,0,2,0,3a5.69,5.69,0,0,0,1.58-1.37c.66-.75,1.44-1.71,2.34-2.89s1.91-2.53,3-4.07,2.31-3.19,3.59-4.94a.48.48,0,0,1,.28-.23.93.93,0,0,1,.55,0,.59.59,0,0,1,.43.37,1.06,1.06,0,0,1,0,.67A2.82,2.82,0,0,1,257.18,116.14Zm-13.11-14,.48-.2.82-.29a9.06,9.06,0,0,1,1-.28,5.38,5.38,0,0,1,1-.11,2.46,2.46,0,0,1,.88.16,1.08,1.08,0,0,1,.6.55l-2.07,3.7L245.69,107a.89.89,0,0,1-.69,0,1.73,1.73,0,0,1-.52-.3Z" transform="translate(-62.17 -7.05)" fill="#002dfb"/><path d="M267.78,103.72a5.46,5.46,0,0,0,.7,1.27,5.31,5.31,0,0,0,.62.63,8.32,8.32,0,0,1,.62.59,4.46,4.46,0,0,1,.67,1.17,8.38,8.38,0,0,1,.45,1.34,7.18,7.18,0,0,1,.21,1.66,7.56,7.56,0,0,1-.25,1.89,6.17,6.17,0,0,1-.89,2l6.26-8.43a.87.87,0,0,1,.26-.22.62.62,0,0,1,.5,0,.73.73,0,0,1,.39.4,1.26,1.26,0,0,1,.05.67,2.13,2.13,0,0,1-.42.92q-2,2.64-3.38,4.56l-2.39,3.3c-.66.91-1.19,1.67-1.61,2.26l-1.05,1.49a7.35,7.35,0,0,1-1.58,1.68,8.53,8.53,0,0,1-1.71,1,1.79,1.79,0,0,1-1.1.2.72.72,0,0,1-.53-.39.82.82,0,0,1,.1-.68,1.62,1.62,0,0,1,.81-.65,3.6,3.6,0,0,0,1.71-1.6,7.11,7.11,0,0,0,.89-2.7,11.8,11.8,0,0,0,0-3.4A14.12,14.12,0,0,0,266,109a10,10,0,0,1-.35-1.12,14.39,14.39,0,0,1-.37-1.87,12,12,0,0,1-.12-2.08,3.84,3.84,0,0,1,.42-1.76l-9.25,14.44a.87.87,0,0,1-.39.35.51.51,0,0,1-.45,0,.64.64,0,0,1-.34-.36,1.37,1.37,0,0,1-.07-.75,2.3,2.3,0,0,1,.47-1q2.42-3.82,4.07-6.39l2.71-4.17,2.1-3.33a9.21,9.21,0,0,1,1.19-1,7.11,7.11,0,0,1,1.28-.74,2.67,2.67,0,0,1,1.21-.27.82.82,0,0,1,.75.52,1.2,1.2,0,0,1-.15.73c-.15.37-.31.79-.48,1.24a13.22,13.22,0,0,0-.44,1.35A1.54,1.54,0,0,0,267.78,103.72Z" transform="translate(-62.17 -7.05)" fill="#002dfb"/><path d="M308.74,81.52c.44,0,.71.14.82.38a1.67,1.67,0,0,1,0,1.21,4.39,4.39,0,0,1-.72,1.31,8.67,8.67,0,0,1-1.22,1.31,18.63,18.63,0,0,1-1.48,1.21c-.5.37-1,.71-1.48,1a8.53,8.53,0,0,1-1.24.65l-3.23,1.33-3.08,1.3,1.05,4.89c.3,1.34.54,2.51.75,3.5a15.67,15.67,0,0,0,.57,2.21c.18.49.37,1,.56,1.4a1.21,1.21,0,0,0,.38.52.48.48,0,0,0,.52,0,5.09,5.09,0,0,0,2-1.71A34.61,34.61,0,0,0,305,99l2.48-3.94a27.91,27.91,0,0,1,3.23-4.44l.34-.38a1,1,0,0,1,.29-.2.47.47,0,0,1,.69.28,1.53,1.53,0,0,1,0,.87,3.31,3.31,0,0,1-.59,1.2q-2.4,3.39-3.47,5.18l-2.49,4.24A25.48,25.48,0,0,1,303.4,105a6.64,6.64,0,0,1-2.45,1.88,2.77,2.77,0,0,1-2.14.17,4.34,4.34,0,0,1-1.63-1.16,8.16,8.16,0,0,1-1.25-1.84c-.36-.69-.66-1.32-.9-1.87a19.72,19.72,0,0,1-1.12-3.3c-.29-1.13-.56-2.22-.82-3.28l-2.44,3.55-2.54,3.53a.65.65,0,0,1-.21.16.72.72,0,0,1-.54,0,.75.75,0,0,1-.43-.41,1.09,1.09,0,0,1,0-.61,2.26,2.26,0,0,1,.44-.91l2.84-3.8c.88-1.23,1.68-2.43,2.39-3.6l-.05-.2-2.7,1.25-.39.2a3,3,0,0,1-.36.18.86.86,0,0,1-.68,0,1.07,1.07,0,0,1-.49-.39.67.67,0,0,1,.17-.61,4.59,4.59,0,0,1,.86-.83,14.28,14.28,0,0,1,1.42-1c.56-.37,1.2-.77,1.91-1.18a52.12,52.12,0,0,1-.28-8.18,21.45,21.45,0,0,1,1.22-6.34,13.29,13.29,0,0,1,2.91-4.69,15,15,0,0,1,4.79-3.22,3.5,3.5,0,0,1,2-.38A1.55,1.55,0,0,1,304,69a5.47,5.47,0,0,1,.18,2.87,23.87,23.87,0,0,1-1.1,4.3,54.82,54.82,0,0,1-2.22,5.42c-.92,2-2,4-3.19,6.21l2.66-1.45L303,84.94c.88-.47,1.73-.94,2.56-1.4s1.61-.92,2.35-1.36a.75.75,0,0,0,.26-.33.48.48,0,0,1,.3-.27A.83.83,0,0,1,308.74,81.52Zm-7.62-11.65A5.92,5.92,0,0,0,299,71.39a8.92,8.92,0,0,0-1.43,2.31,13.5,13.5,0,0,0-.89,2.92,27.43,27.43,0,0,0-.43,3.37,35.73,35.73,0,0,0-.06,3.6c0,1.24.13,2.46.26,3.68q2-3.33,3.32-6.13a53.85,53.85,0,0,0,2.16-5,18.8,18.8,0,0,0,1-3.69,4.26,4.26,0,0,0-.11-2.25,1,1,0,0,0-.56-.56A1.74,1.74,0,0,0,301.12,69.87Z" transform="translate(-62.17 -7.05)" fill="#002dfb"/><path d="M326.14,73.7a5.12,5.12,0,0,1,2.4-.47,5.28,5.28,0,0,1,2.2.6,6.58,6.58,0,0,1,1.85,1.51A8.67,8.67,0,0,1,334,77.57a8.83,8.83,0,0,1,.54,1.71,15.94,15.94,0,0,1,.3,2.06,16.53,16.53,0,0,1,0,2.23,13.37,13.37,0,0,1-.29,2.17c.21-.25.46-.58.75-1l.93-1.22,1-1.38,1.05-1.39,2.46-3.38a.93.93,0,0,1,.37-.27.48.48,0,0,1,.71.3,1.91,1.91,0,0,1-.31,1.73c-.36.56-.84,1.28-1.44,2.15s-1.28,1.76-2,2.67a32.23,32.23,0,0,1-2.36,2.58,10.46,10.46,0,0,1-2.47,1.85,15.22,15.22,0,0,1-3,3.78,17.08,17.08,0,0,1-4.88,3.07,11,11,0,0,1-2.6.83,4.69,4.69,0,0,1-2,0,3.2,3.2,0,0,1-1.44-.85,5.2,5.2,0,0,1-1-1.57,9.59,9.59,0,0,1-.72-3.16,22.06,22.06,0,0,1,.05-3.63,29.75,29.75,0,0,1,.55-3.52,28.84,28.84,0,0,1,.79-2.85,20.79,20.79,0,0,1-1.31,2.27c-.59.92-1.27,1.92-2,3s-1.59,2.23-2.47,3.42l-2.6,3.54a1.26,1.26,0,0,1-.42.31.56.56,0,0,1-.5,0,.67.67,0,0,1-.33-.35,1.17,1.17,0,0,1,0-.73,3.08,3.08,0,0,1,.51-1q2.42-3.3,4.1-5.66c1.12-1.58,2.1-2.92,2.93-4s1.58-2.05,2.24-2.79a17,17,0,0,1,2-1.93,13.55,13.55,0,0,1,2.2-1.46C324.08,74.64,325,74.19,326.14,73.7Zm-1.58,19.61a7.08,7.08,0,0,0,2.38-1.7,12,12,0,0,0,1.84-2.6,1.89,1.89,0,0,1-.7-.55,3.44,3.44,0,0,1-.47-.78,1.42,1.42,0,0,1,0-1.33,2.1,2.1,0,0,1,1-.89,2.9,2.9,0,0,1,1.59-.19,8.94,8.94,0,0,0,.79-1.74,10,10,0,0,0,.44-1.91,8,8,0,0,0,0-1.89,5.59,5.59,0,0,0-.42-1.69,3.59,3.59,0,0,0-.8-1.16,2.92,2.92,0,0,0-1.25-.71,4.45,4.45,0,0,0-1.74-.08,8.06,8.06,0,0,0-2.26.67,4.69,4.69,0,0,0-1.83,1.46,9.36,9.36,0,0,0-1.34,2.35,16.55,16.55,0,0,0-.85,2.87,19,19,0,0,0-.35,3.06,17.75,17.75,0,0,0,.14,2.87,9.09,9.09,0,0,0,.63,2.36,3.28,3.28,0,0,0,1.27,1.58A2,2,0,0,0,324.56,93.31Z" transform="translate(-62.17 -7.05)" fill="#002dfb"/><path d="M361.46,58.44c.43,0,.71.14.81.38a1.67,1.67,0,0,1,0,1.21,4.35,4.35,0,0,1-.71,1.31,9.31,9.31,0,0,1-1.23,1.31,18.63,18.63,0,0,1-1.48,1.21c-.5.37-1,.71-1.47,1a9.08,9.08,0,0,1-1.24.65c-1.1.44-2.17.89-3.24,1.34l-3.07,1.29L350.91,73c.29,1.34.54,2.51.74,3.5a15.67,15.67,0,0,0,.57,2.21c.18.49.37,1,.56,1.4a1.22,1.22,0,0,0,.39.52.48.48,0,0,0,.52,0,5.23,5.23,0,0,0,2-1.71,34.71,34.71,0,0,0,2.07-3L360.23,72a28.56,28.56,0,0,1,3.23-4.44c.06-.06.18-.19.34-.38a1,1,0,0,1,.3-.2.46.46,0,0,1,.68.28,1.61,1.61,0,0,1,.05.87,3.48,3.48,0,0,1-.59,1.2c-1.61,2.26-2.76,4-3.48,5.18l-2.48,4.24a27.9,27.9,0,0,1-2.16,3.13,6.67,6.67,0,0,1-2.46,1.88,2.74,2.74,0,0,1-2.13.17,4.37,4.37,0,0,1-1.64-1.16,8.5,8.5,0,0,1-1.25-1.84c-.35-.69-.65-1.32-.9-1.87a20.67,20.67,0,0,1-1.12-3.3c-.28-1.13-.56-2.22-.82-3.28L343.37,76l-2.55,3.53a.49.49,0,0,1-.21.16.69.69,0,0,1-.53,0,.73.73,0,0,1-.43-.41,1.08,1.08,0,0,1,0-.61,2.31,2.31,0,0,1,.45-.91l2.83-3.8q1.32-1.84,2.4-3.6l0-.2-2.7,1.25c-.15.07-.28.13-.4.2l-.35.18a.88.88,0,0,1-.69,0,1,1,0,0,1-.48-.39c-.07-.16,0-.36.16-.61a4.93,4.93,0,0,1,.86-.83,15.57,15.57,0,0,1,1.42-1c.57-.37,1.2-.77,1.91-1.18a52.12,52.12,0,0,1-.28-8.18,21.77,21.77,0,0,1,1.22-6.34,13.45,13.45,0,0,1,2.92-4.69,14.82,14.82,0,0,1,4.78-3.22,3.5,3.5,0,0,1,2-.38,1.55,1.55,0,0,1,1.1.94,5.46,5.46,0,0,1,.19,2.87,24,24,0,0,1-1.11,4.3,54.82,54.82,0,0,1-2.22,5.42q-1.38,3-3.19,6.21l2.66-1.45,2.67-1.44,2.55-1.4c.83-.46,1.61-.92,2.35-1.36a.69.69,0,0,0,.26-.33.5.5,0,0,1,.31-.27A.7.7,0,0,1,361.46,58.44Zm-7.63-11.65a5.8,5.8,0,0,0-2.07,1.52,8.68,8.68,0,0,0-1.44,2.31,14.08,14.08,0,0,0-.89,2.92,29.51,29.51,0,0,0-.43,3.37,33,33,0,0,0-.05,3.6c0,1.24.12,2.46.25,3.68q2-3.33,3.33-6.13t2.15-5a18.54,18.54,0,0,0,1-3.68,4.26,4.26,0,0,0-.11-2.25,1,1,0,0,0-.56-.56A1.75,1.75,0,0,0,353.83,46.79Z" transform="translate(-62.17 -7.05)" fill="#002dfb"/><path d="M363.31,69.73a.61.61,0,0,1-.24.2.38.38,0,0,1-.4,0,1,1,0,0,1-.31-.41,1.68,1.68,0,0,1-.13-.7,1.38,1.38,0,0,1,.3-.82l5.89-8.1A21.87,21.87,0,0,1,371,57a29.65,29.65,0,0,1,3-2.51,30.22,30.22,0,0,1,3.2-2.09,32,32,0,0,1,3.14-1.59,13,13,0,0,1,1.67-.6,6.41,6.41,0,0,1,1.44-.25,2.75,2.75,0,0,1,1.08.14,1,1,0,0,1,.6.55.51.51,0,0,1,0,.52,1.79,1.79,0,0,1-.42.4c-.18.12-.37.23-.57.34a1.23,1.23,0,0,0-.41.35c.07.39.13.91.19,1.55s.12,1.3.19,2,.12,1.27.17,1.8.08.84.09.92c.06.66.14,1.53.24,2.58s.29,2.44.57,4.13c0,0,.14-.16.37-.46s.54-.7.91-1.18l1.26-1.69c.47-.63.95-1.28,1.46-2l3.76-5.27a1.32,1.32,0,0,1,.44-.4.5.5,0,0,1,.43,0,.67.67,0,0,1,.3.34,1.53,1.53,0,0,1,.07.8,2.17,2.17,0,0,1-.46,1L385.2,68.08a3.55,3.55,0,0,1-.64.72,2.94,2.94,0,0,1-.62.4,1.5,1.5,0,0,1-.81.13,1.62,1.62,0,0,1-.73-.31,2.86,2.86,0,0,1-.62-.63,4.59,4.59,0,0,1-.5-.87,5.42,5.42,0,0,1-.36-1.12,8.18,8.18,0,0,1-.18-1.16,10.25,10.25,0,0,1-.53,2.74,10.67,10.67,0,0,1-1.12,2.27A8.34,8.34,0,0,1,377.56,72a7.55,7.55,0,0,1-1.81,1.15,5.91,5.91,0,0,1-1.92.49,4.52,4.52,0,0,1-3.51-1.25,5.66,5.66,0,0,1-1.24-1.85,9.23,9.23,0,0,1-.54-1.59c-.16-.6-.28-1.23-.39-1.87s-.17-1.28-.22-1.92-.07-1.23-.07-1.78Zm15.95-16.44a10,10,0,0,0-3,2A13.7,13.7,0,0,0,374,58.12a15.46,15.46,0,0,0-1.48,3.23,18.7,18.7,0,0,0-.75,3.31,15,15,0,0,0-.07,3,8,8,0,0,0,.57,2.43,3.26,3.26,0,0,0,1.26,1.56,1.93,1.93,0,0,0,1.87,0,3.22,3.22,0,0,0,1.23-1A9.51,9.51,0,0,0,377.71,69a17.71,17.71,0,0,0,.89-2.16,23.51,23.51,0,0,0,.67-2.29,19,19,0,0,0,.4-2.15,8.92,8.92,0,0,0,.08-1.72Z" transform="translate(-62.17 -7.05)" fill="#002dfb"/><path d="M416,44.55a.73.73,0,0,1,.29-.23.83.83,0,0,1,.54,0,.62.62,0,0,1,.42.37,1.08,1.08,0,0,1,0,.68,2.74,2.74,0,0,1-.5,1l-1.77,2.41-2,2.7c-.67.93-1.34,1.84-2,2.74s-1.32,1.74-1.94,2.52-1.18,1.47-1.7,2.06a12.71,12.71,0,0,1-1.32,1.33,4.43,4.43,0,0,1-.57.41c-.18.1-.35.19-.51.26a2.55,2.55,0,0,1-1.67.19,3.3,3.3,0,0,1-1.44-.82,7.43,7.43,0,0,1-1.24-1.58,19.78,19.78,0,0,1-1.07-2.11c-.45-1-.85-2.08-1.22-3.18s-.7-2.11-1-3L394,55l-1.39,1.92a.8.8,0,0,1-.3.24.74.74,0,0,1-.53,0,.63.63,0,0,1-.39-.38,1.09,1.09,0,0,1,0-.66,3,3,0,0,1,.49-1l4.92-6.79q-.52-4-.73-7.41a45.06,45.06,0,0,1,0-6.38,26.48,26.48,0,0,1,.95-5.41,16.5,16.5,0,0,1,2.06-4.5A15.81,15.81,0,0,1,402.38,21a21.89,21.89,0,0,1,4.83-2.84,10.53,10.53,0,0,1,2.5-.79,4.78,4.78,0,0,1,1.89,0,2.9,2.9,0,0,1,1.36.73,4,4,0,0,1,.9,1.3,4.44,4.44,0,0,1,.25,2.33,14.06,14.06,0,0,1-.74,3,30.8,30.8,0,0,1-1.49,3.48c-.6,1.21-1.26,2.44-2,3.68s-1.46,2.47-2.24,3.66-1.52,2.33-2.24,3.39-1.38,2-2,2.88-1.12,1.56-1.51,2.1c.13,1,.29,2,.46,3.14s.37,2.18.6,3.26.49,2.13.78,3.16a23.44,23.44,0,0,0,1,2.81,3.71,3.71,0,0,0,.48.83c.17.21.33.29.49.22a4.09,4.09,0,0,0,1.07-.84c.45-.44.94-1,1.49-1.64s1.13-1.4,1.77-2.23,1.28-1.69,2-2.6l2-2.78Zm-14.68-2.68c.66-.83,1.41-1.87,2.26-3.12s1.72-2.59,2.59-4,1.7-2.91,2.5-4.42,1.47-2.95,2-4.31a21.69,21.69,0,0,0,1.19-3.7,4.3,4.3,0,0,0-.07-2.59,1.56,1.56,0,0,0-1.37-.91,6.14,6.14,0,0,0-2.89.7,12.5,12.5,0,0,0-4.6,3.25,11.22,11.22,0,0,0-2.34,4.72,21.15,21.15,0,0,0-.44,6.33A63,63,0,0,0,401.36,41.87Z" transform="translate(-62.17 -7.05)" fill="#002dfb"/><path d="M439.4,34.32a.8.8,0,0,1,.29-.23.83.83,0,0,1,.54,0,.58.58,0,0,1,.42.37,1.08,1.08,0,0,1,0,.68,2.52,2.52,0,0,1-.5,1l-1.77,2.41c-.64.88-1.29,1.78-2,2.7s-1.34,1.84-2,2.74-1.32,1.75-1.93,2.52-1.19,1.47-1.71,2.06a12.71,12.71,0,0,1-1.32,1.33,3.63,3.63,0,0,1-.57.41,4.11,4.11,0,0,1-.51.26,2.48,2.48,0,0,1-1.67.19,3.21,3.21,0,0,1-1.43-.82,6.84,6.84,0,0,1-1.24-1.58A18.1,18.1,0,0,1,423,46.2c-.45-1-.85-2.08-1.21-3.17s-.7-2.12-1-3l-3.44,4.74-1.39,1.92a.73.73,0,0,1-.3.24.72.72,0,0,1-.52,0,.62.62,0,0,1-.4-.38,1.07,1.07,0,0,1,0-.65,2.75,2.75,0,0,1,.48-1l4.93-6.79c-.36-2.65-.6-5.12-.74-7.41a46.61,46.61,0,0,1,0-6.38,27.18,27.18,0,0,1,.95-5.41,16.22,16.22,0,0,1,2.07-4.5,15.55,15.55,0,0,1,3.36-3.63,21.49,21.49,0,0,1,4.83-2.83,10.16,10.16,0,0,1,2.5-.8,4.76,4.76,0,0,1,1.89,0,2.88,2.88,0,0,1,1.37.72,4.1,4.1,0,0,1,.89,1.3,4.45,4.45,0,0,1,.25,2.33,13.36,13.36,0,0,1-.74,3A30.64,30.64,0,0,1,435.25,18c-.61,1.22-1.27,2.44-2,3.69s-1.46,2.46-2.23,3.66-1.53,2.32-2.24,3.38-1.39,2-2,2.88-1.12,1.56-1.51,2.1c.14,1,.29,2.05.46,3.14s.37,2.18.6,3.26.49,2.13.79,3.16a23.47,23.47,0,0,0,1,2.81,3.71,3.71,0,0,0,.48.83c.17.22.33.29.49.22a4.09,4.09,0,0,0,1.07-.84,20,20,0,0,0,1.49-1.64q.82-1,1.77-2.22c.63-.83,1.29-1.7,2-2.61l2-2.78C438.09,36.12,438.76,35.21,439.4,34.32Zm-14.67-2.68q1-1.25,2.25-3.12t2.59-4c.87-1.43,1.7-2.91,2.5-4.42s1.48-2.95,2-4.31a20.58,20.58,0,0,0,1.19-3.7,4.39,4.39,0,0,0-.06-2.59,1.56,1.56,0,0,0-1.38-.91,6.14,6.14,0,0,0-2.89.7,12.5,12.5,0,0,0-4.6,3.25A11.2,11.2,0,0,0,424,17.24a21.06,21.06,0,0,0-.44,6.32A63.16,63.16,0,0,0,424.73,31.64Z" transform="translate(-62.17 -7.05)" fill="#002dfb"/><path d="M476.29,20.28c-.59.81-1.16,1.61-1.71,2.38s-1.09,1.58-1.63,2.41-1.07,1.69-1.61,2.61-1.09,1.91-1.64,3c.1,2.16.16,4.41.2,6.75s0,4.65-.09,6.94-.27,4.48-.53,6.6a36.78,36.78,0,0,1-1.12,5.76,18,18,0,0,1-1.85,4.41,6.15,6.15,0,0,1-2.68,2.51,5.49,5.49,0,0,1-1.57.45,3.14,3.14,0,0,1-1.24-.06,2.09,2.09,0,0,1-.91-.44,1.92,1.92,0,0,1-.55-.7,7,7,0,0,1-.39-2,17.91,17.91,0,0,1,0-3.33c.11-1.32.32-2.84.61-4.54s.73-3.58,1.29-5.61,1.3-4.23,2.2-6.57a80.37,80.37,0,0,1,3.31-7.42c0-2.28,0-4.2,0-5.77s0-2.86,0-3.9,0-1.87,0-2.49,0-1.12,0-1.52c-.26,1-.61,2.17-1,3.43s-.95,2.55-1.54,3.87a43.59,43.59,0,0,1-2,4,30.2,30.2,0,0,1-2.48,3.7,23.31,23.31,0,0,1-2.93,3.09A13,13,0,0,1,453.07,40a1.58,1.58,0,0,1-1.55,0,2.87,2.87,0,0,1-1-1.3,9.63,9.63,0,0,1-.59-2.09c-.15-.84-.28-1.75-.38-2.73s-.17-2-.21-3.06-.06-2.08,0-3.09,0-1.93,0-2.78,0-1.56,0-2.12c-.48.7-1.09,1.55-1.82,2.56l-2.41,3.28-2.76,3.75q-1.45,2-2.9,4a1.19,1.19,0,0,1-.46.4.62.62,0,0,1-.48,0,.56.56,0,0,1-.34-.35,1.23,1.23,0,0,1,0-.75,2.85,2.85,0,0,1,.55-1.09l3.62-5L445,25.83c.77-1.06,1.43-2,2-2.7s1.05-1.34,1.47-1.81a12.39,12.39,0,0,1,1.08-1.09,3.7,3.7,0,0,1,.89-.59,2.22,2.22,0,0,1,1.19-.2,2.25,2.25,0,0,1,1,.4,2.75,2.75,0,0,1,.73.75,5.78,5.78,0,0,1,.5.9,6.2,6.2,0,0,1,.45,2.32,23.8,23.8,0,0,1-.07,3c-.09,1.07-.21,2.16-.37,3.28s-.3,2.16-.42,3.15-.22,1.84-.26,2.59a3.77,3.77,0,0,0,.14,1.61.47.47,0,0,0,.7.27,6,6,0,0,0,1.77-1.39,24.7,24.7,0,0,0,2.09-2.62c.73-1,1.47-2.2,2.22-3.51s1.47-2.65,2.16-4.07,1.31-2.85,1.89-4.3,1-2.86,1.44-4.22a1.11,1.11,0,0,0-.09-.51,2.94,2.94,0,0,1-.12-.75,1.64,1.64,0,0,1,.18-.8,1.56,1.56,0,0,1,.84-.67,2.51,2.51,0,0,1,.91-.25,1.13,1.13,0,0,1,.63.13,1.26,1.26,0,0,1,.43.43,6.75,6.75,0,0,1,.33.66s0,0,0,0a4.49,4.49,0,0,0,0,.91c.05.6.12,1.43.21,2.48s.2,2.29.32,3.73.22,3,.32,4.71q1.32-2.25,2.79-4.51c1-1.5,2-3,3.19-4.63a.58.58,0,0,1,.23-.18.67.67,0,0,1,.52,0,.7.7,0,0,1,.41.4,1.07,1.07,0,0,1,0,.65A2.27,2.27,0,0,1,476.29,20.28ZM463.92,44.07a15.88,15.88,0,0,0-.65,2.62c-.18,1-.32,2.11-.43,3.25s-.19,2.3-.24,3.46-.06,2.25,0,3.24.07,1.86.14,2.59a5.74,5.74,0,0,0,.31,1.54.46.46,0,0,0,.68.28,2,2,0,0,0,.95-1,9.07,9.07,0,0,0,.69-2,23.21,23.21,0,0,0,.47-2.65c.13-1,.24-2,.33-3.08s.17-2.16.24-3.26.13-2.17.19-3.18c0-1.53-.05-3-.08-4.29s-.05-2.58-.06-3.76C465.63,39.65,464.8,41.73,463.92,44.07Z" transform="translate(-62.17 -7.05)" fill="#002dfb"/><path d="M201.21,221.08A8.16,8.16,0,0,0,203,219.5a25.9,25.9,0,0,0,2.06-2.65c.72-1,1.44-2.18,2.17-3.44s1.42-2.59,2.09-4,1.28-2.78,1.85-4.21,1-2.83,1.43-4.18a1.23,1.23,0,0,0-.08-.51,2.57,2.57,0,0,1-.13-.76,1.7,1.7,0,0,1,.18-.81,1.51,1.51,0,0,1,.83-.68,2.56,2.56,0,0,1,.91-.25,1.13,1.13,0,0,1,.63.14,1.36,1.36,0,0,1,.44.45,4.63,4.63,0,0,1,.34.67,4.19,4.19,0,0,1,.28,1.13c.08.5.14,1.08.2,1.75s.09,1.38.13,2.16.07,1.56.1,2.35.07,1.57.11,2.33.09,1.48.15,2.11c.14-.18.34-.45.6-.82l.9-1.28,1.07-1.56,1.12-1.66,2.83-4.16a.69.69,0,0,1,.28-.22.66.66,0,0,1,.5,0,.65.65,0,0,1,.4.38,1.16,1.16,0,0,1,0,.7,2.67,2.67,0,0,1-.45.92l-7.48,10.3a1.55,1.55,0,0,0-.19.48,3.93,3.93,0,0,1-.17.6,2.28,2.28,0,0,1-.32.59,1.64,1.64,0,0,1-.66.48,1.17,1.17,0,0,1-.81.08.8.8,0,0,1-.54-.49,4.85,4.85,0,0,1-.32-1.38c-.06-.6-.11-1.27-.14-2s0-1.52,0-2.35,0-1.64.05-2.44,0-1.54,0-2.24,0-1.31,0-1.8c-.27,1-.62,2.18-1.06,3.44s-.94,2.54-1.54,3.86-1.27,2.65-2,4a28,28,0,0,1-2.47,3.7,22.58,22.58,0,0,1-2.91,3.09,12.69,12.69,0,0,1-3.28,2.13,1.62,1.62,0,0,1-1.57,0,2.82,2.82,0,0,1-1-1.32,8.87,8.87,0,0,1-.6-2.07c-.16-.83-.28-1.73-.37-2.7s-.16-2-.19-3,0-2.07,0-3.05,0-1.91,0-2.76,0-1.57,0-2.14c-.53.66-1.14,1.45-1.84,2.38s-1.45,2-2.27,3.11l-2.65,3.73-3,4.18a1.08,1.08,0,0,1-.37.32.74.74,0,0,1-.53,0,.64.64,0,0,1-.38-.36,1.06,1.06,0,0,1,0-.69,3.24,3.24,0,0,1,.51-1.06c1.33-1.88,2.6-3.63,3.83-5.25s2.35-3,3.39-4.26,1.95-2.22,2.74-3a7.51,7.51,0,0,1,1.83-1.45,2.84,2.84,0,0,1,2.06-.29,2,2,0,0,1,1.15,1.17,6.49,6.49,0,0,1,.46,2.32,26.1,26.1,0,0,1-.08,3c-.09,1.07-.21,2.16-.37,3.28s-.29,2.16-.42,3.15-.21,1.85-.25,2.6a3.77,3.77,0,0,0,.14,1.61.46.46,0,0,0,.7.27A.4.4,0,0,0,201.21,221.08Z" transform="translate(-62.17 -7.05)" fill="#002dfb"/><path d="M222.46,202,230.63,190l.07-.31a4,4,0,0,1,.23-.76,11.5,11.5,0,0,1,.45-1.07,6.65,6.65,0,0,1,.74-1.19,7.2,7.2,0,0,1,1.09-1.13,5.83,5.83,0,0,1,1.51-.93,16.61,16.61,0,0,1,2.74-.9,8.6,8.6,0,0,1,3-.22,6,6,0,0,1,2.75,1,5.83,5.83,0,0,1,2.11,2.69,5.72,5.72,0,0,1,.39,2.19,13.52,13.52,0,0,1-.34,2.88,22.47,22.47,0,0,1-1,3.29,27.19,27.19,0,0,1-1.66,3.45l5.93-8.31a.86.86,0,0,1,.29-.21.54.54,0,0,1,.45,0,.73.73,0,0,1,.33.36,1.42,1.42,0,0,1,.07.73,1.91,1.91,0,0,1-.37.87c-1.3,1.82-2.49,3.4-3.56,4.76s-2.07,2.53-3,3.52a35.57,35.57,0,0,1-2.58,2.54,23.67,23.67,0,0,1-2.36,1.81,22.8,22.8,0,0,1-2.29,1.35c-.76.38-1.56.76-2.4,1.13,0,1.53-.08,3.08-.18,4.63s-.19,3.07-.27,4.54-.15,2.87-.2,4.2a32.77,32.77,0,0,0,.07,3.64,3.52,3.52,0,0,1,0,.64,5.93,5.93,0,0,1-.14.88,4,4,0,0,1-.28.82,1,1,0,0,1-.46.49,3.17,3.17,0,0,1-.79.24,3.89,3.89,0,0,1-.83.08,2,2,0,0,1-.72-.15.79.79,0,0,1-.44-.42.48.48,0,0,1-.05-.16,18,18,0,0,1-.34-3.32c0-1.33,0-2.82.05-4.46s.17-3.38.3-5.23.27-3.72.4-5.62.24-3.78.33-5.64.14-3.64.13-5.31a4,4,0,0,1,.06-.82c.05-.29.11-.59.17-.89s.13-.61.21-.9.14-.54.19-.77c-.18.24-.51.68-1,1.33l-1.66,2.33c-.64.9-1.36,1.89-2.13,3s-1.56,2.15-2.36,3.22a.63.63,0,0,1-.21.17.61.61,0,0,1-.51,0,.72.72,0,0,1-.41-.41,1.16,1.16,0,0,1,0-.63A2.14,2.14,0,0,1,222.46,202Zm14.82-15.53a4,4,0,0,0-1.9,2.19,18.12,18.12,0,0,0-1.18,4.18,47.9,47.9,0,0,0-.59,5.62q-.15,3.13-.12,6.51a11.33,11.33,0,0,0,2.52-1.53,16.79,16.79,0,0,0,2.38-2.26,19.06,19.06,0,0,0,2-2.76,14.55,14.55,0,0,0,1.38-3.05,11,11,0,0,0,.52-3.12,7,7,0,0,0-.6-2.95,8.51,8.51,0,0,0-.86-1.57,4.27,4.27,0,0,0-1-1.05,2.54,2.54,0,0,0-1.18-.46A2.71,2.71,0,0,0,237.28,186.51Z" transform="translate(-62.17 -7.05)" fill="#002dfb"/><path d="M281.17,166.28c.44,0,.71.14.81.38a1.62,1.62,0,0,1,0,1.21,4.39,4.39,0,0,1-.72,1.31,9.36,9.36,0,0,1-1.23,1.32q-.72.65-1.47,1.2c-.51.37-1,.71-1.48,1a9.08,9.08,0,0,1-1.24.65c-1.1.44-2.17.89-3.23,1.34L269.57,176l1.05,4.89c.29,1.35.54,2.52.74,3.5a16,16,0,0,0,.58,2.22c.18.48.36.95.56,1.39a1.14,1.14,0,0,0,.38.52.48.48,0,0,0,.52,0,5.21,5.21,0,0,0,2-1.7,35.56,35.56,0,0,0,2.07-3l2.49-3.94a28.22,28.22,0,0,1,3.22-4.45l.35-.38a.89.89,0,0,1,.29-.2.46.46,0,0,1,.68.28,1.61,1.61,0,0,1,.05.87,3.48,3.48,0,0,1-.59,1.2q-2.4,3.39-3.48,5.18L278,186.6a27.9,27.9,0,0,1-2.16,3.13,6.78,6.78,0,0,1-2.45,1.89,2.81,2.81,0,0,1-2.14.16,4.26,4.26,0,0,1-1.64-1.16,8.68,8.68,0,0,1-1.25-1.83c-.35-.7-.65-1.33-.9-1.88a22,22,0,0,1-1.12-3.29c-.28-1.14-.55-2.23-.82-3.28l-2.43,3.54-2.55,3.53a.45.45,0,0,1-.2.16.76.76,0,0,1-1-.41,1.08,1.08,0,0,1,0-.61,2.26,2.26,0,0,1,.44-.91l2.83-3.79c.89-1.23,1.69-2.44,2.4-3.61l-.05-.2-2.7,1.25c-.15.07-.28.13-.4.2l-.35.18a.86.86,0,0,1-.68,0,1,1,0,0,1-.49-.39c-.07-.15,0-.36.17-.6a4.49,4.49,0,0,1,.85-.84c.38-.32.86-.66,1.42-1s1.21-.77,1.92-1.18a51,51,0,0,1-.29-8.18,21.5,21.5,0,0,1,1.23-6.34,13.29,13.29,0,0,1,2.91-4.69,14.75,14.75,0,0,1,4.78-3.21,3.45,3.45,0,0,1,2-.39,1.53,1.53,0,0,1,1.1.94,5.47,5.47,0,0,1,.19,2.87,24.52,24.52,0,0,1-1.1,4.3,56.57,56.57,0,0,1-2.23,5.42q-1.38,3-3.19,6.21,1.31-.72,2.67-1.44l2.66-1.45c.88-.47,1.73-.93,2.55-1.4s1.61-.91,2.36-1.36a.72.72,0,0,0,.25-.33.53.53,0,0,1,.31-.27A.7.7,0,0,1,281.17,166.28Zm-7.63-11.65a5.89,5.89,0,0,0-2.07,1.52,9.22,9.22,0,0,0-1.44,2.31,13.6,13.6,0,0,0-.88,2.93,27,27,0,0,0-.43,3.36,35.73,35.73,0,0,0-.06,3.6c0,1.24.12,2.46.25,3.68q2-3.33,3.33-6.13t2.15-5a19.8,19.8,0,0,0,1-3.68,4.51,4.51,0,0,0-.11-2.26,1,1,0,0,0-.57-.56A1.81,1.81,0,0,0,273.54,154.63Z" transform="translate(-62.17 -7.05)" fill="#002dfb"/><path d="M298.56,158.46A5.26,5.26,0,0,1,301,158a5.19,5.19,0,0,1,2.19.6A6.76,6.76,0,0,1,305,160.1a8.81,8.81,0,0,1,1.38,2.23A9.82,9.82,0,0,1,307,164a15.94,15.94,0,0,1,.3,2.06,16.55,16.55,0,0,1,0,2.23,13.66,13.66,0,0,1-.28,2.18l.75-1c.29-.38.6-.79.92-1.23l1-1.37c.35-.48.7-.95,1.05-1.4l2.45-3.38a.9.9,0,0,1,.37-.26.48.48,0,0,1,.72.29,1.91,1.91,0,0,1-.31,1.73c-.37.57-.85,1.28-1.45,2.15s-1.27,1.76-2,2.67a32.12,32.12,0,0,1-2.35,2.58,10.36,10.36,0,0,1-2.48,1.86,15.08,15.08,0,0,1-3,3.77A17.22,17.22,0,0,1,297.8,180a11,11,0,0,1-2.6.83,4.74,4.74,0,0,1-2-.05,3.22,3.22,0,0,1-1.43-.85,5.08,5.08,0,0,1-1-1.57,9.35,9.35,0,0,1-.72-3.15,21,21,0,0,1,.05-3.63,27.7,27.7,0,0,1,.55-3.53,29.1,29.1,0,0,1,.78-2.85,19.57,19.57,0,0,1-1.3,2.27c-.59.92-1.27,1.92-2,3s-1.59,2.23-2.46,3.42l-2.6,3.54a1.37,1.37,0,0,1-.43.32.57.57,0,0,1-.49,0,.6.6,0,0,1-.33-.35,1.11,1.11,0,0,1,0-.73,3.18,3.18,0,0,1,.51-1q2.42-3.3,4.1-5.66c1.12-1.58,2.1-2.92,2.93-4s1.57-2.05,2.23-2.79a17,17,0,0,1,2-1.93,14.63,14.63,0,0,1,2.19-1.46C296.5,159.41,297.46,159,298.56,158.46ZM297,178.07a7,7,0,0,0,2.38-1.7,12.06,12.06,0,0,0,1.83-2.6,2,2,0,0,1-.7-.55,3.85,3.85,0,0,1-.47-.78,1.45,1.45,0,0,1,0-1.33,2.06,2.06,0,0,1,1-.89,2.9,2.9,0,0,1,1.59-.19,9.27,9.27,0,0,0,.79-1.74,10,10,0,0,0,.44-1.91,9.25,9.25,0,0,0,0-1.89,5.59,5.59,0,0,0-.42-1.69,3.76,3.76,0,0,0-.8-1.16,2.81,2.81,0,0,0-1.25-.7,4.46,4.46,0,0,0-1.74-.09,8.06,8.06,0,0,0-2.26.67A4.72,4.72,0,0,0,295.6,163a9.34,9.34,0,0,0-1.33,2.35,14.86,14.86,0,0,0-.85,2.88,18.76,18.76,0,0,0-.35,3,15.73,15.73,0,0,0,.14,2.87,8.72,8.72,0,0,0,.62,2.36,3.3,3.3,0,0,0,1.28,1.58A2,2,0,0,0,297,178.07Z" transform="translate(-62.17 -7.05)" fill="#002dfb"/><path d="M362,143c-.59.81-1.16,1.61-1.71,2.38s-1.1,1.58-1.63,2.4-1.07,1.7-1.61,2.62-1.09,1.91-1.65,3q.15,3.24.2,6.75t-.09,6.93c-.09,2.29-.27,4.49-.52,6.61a38,38,0,0,1-1.12,5.76,17.63,17.63,0,0,1-1.86,4.41,6.06,6.06,0,0,1-2.68,2.5,5.26,5.26,0,0,1-1.56.46,3.63,3.63,0,0,1-1.25-.06,2.28,2.28,0,0,1-.91-.44,2,2,0,0,1-.54-.71,7.07,7.07,0,0,1-.4-2,18.94,18.94,0,0,1,0-3.34c.12-1.32.32-2.83.62-4.53a54.81,54.81,0,0,1,1.29-5.61q.84-3.06,2.19-6.57a79.4,79.4,0,0,1,3.32-7.42c0-2.28,0-4.21,0-5.77s0-2.86,0-3.9,0-1.87,0-2.49,0-1.12,0-1.52c-.26,1-.61,2.17-1,3.43s-.94,2.54-1.54,3.87-1.27,2.65-2,4a32.17,32.17,0,0,1-2.49,3.69,23.33,23.33,0,0,1-2.92,3.1,13.45,13.45,0,0,1-3.34,2.15,1.58,1.58,0,0,1-1.55,0,2.87,2.87,0,0,1-1-1.3,9.75,9.75,0,0,1-.6-2.09c-.15-.84-.28-1.75-.37-2.73s-.17-2-.21-3.06-.06-2.09-.05-3.09,0-1.93.05-2.78,0-1.56,0-2.12c-.48.7-1.08,1.55-1.82,2.56l-2.4,3.28-2.77,3.75q-1.46,2-2.89,4a1.31,1.31,0,0,1-.46.41.6.6,0,0,1-.83-.33,1.23,1.23,0,0,1,0-.75,3.11,3.11,0,0,1,.55-1.1l3.63-5c1-1.44,1.94-2.7,2.71-3.76s1.43-2,2-2.7,1-1.34,1.46-1.81a12.73,12.73,0,0,1,1.08-1.1,3.89,3.89,0,0,1,.9-.58,2.1,2.1,0,0,1,1.19-.2,2.26,2.26,0,0,1,1,.4,2.78,2.78,0,0,1,.74.75,5.21,5.21,0,0,1,.49.89,6.5,6.5,0,0,1,.46,2.33,23.93,23.93,0,0,1-.08,3c-.09,1.07-.21,2.16-.37,3.28s-.29,2.16-.42,3.14-.21,1.85-.26,2.6a3.72,3.72,0,0,0,.14,1.6.48.48,0,0,0,.71.28,5.91,5.91,0,0,0,1.76-1.4,22.41,22.41,0,0,0,2.1-2.61q1.1-1.56,2.22-3.51t2.15-4.07c.69-1.41,1.32-2.85,1.89-4.3a40.7,40.7,0,0,0,1.44-4.23,1.23,1.23,0,0,0-.08-.51,2.49,2.49,0,0,1-.13-.74,1.77,1.77,0,0,1,.19-.8,1.63,1.63,0,0,1,.83-.68,2.74,2.74,0,0,1,.91-.24,1.13,1.13,0,0,1,.63.13,1.26,1.26,0,0,1,.43.43,5,5,0,0,1,.34.66s0,0,0,0a3.83,3.83,0,0,0,0,.92c0,.6.11,1.42.21,2.48s.2,2.29.31,3.73.22,3,.32,4.71q1.34-2.25,2.79-4.51c1-1.5,2-3.05,3.19-4.63a.66.66,0,0,1,.23-.18.67.67,0,0,1,.52,0,.72.72,0,0,1,.42.4,1.14,1.14,0,0,1,0,.65A2.57,2.57,0,0,1,362,143Zm-12.37,23.78a16.21,16.21,0,0,0-.66,2.63c-.17,1-.32,2.11-.43,3.25s-.18,2.3-.23,3.46-.07,2.25,0,3.24.07,1.85.15,2.59a5.65,5.65,0,0,0,.3,1.53.46.46,0,0,0,.68.29,2.1,2.1,0,0,0,1-1,9.66,9.66,0,0,0,.68-2,25.48,25.48,0,0,0,.48-2.65c.13-1,.24-2,.33-3.08s.16-2.16.23-3.27.13-2.16.2-3.17q0-2.29-.09-4.29c0-1.32,0-2.58-.06-3.76Q351,163.29,349.66,166.78Z" transform="translate(-62.17 -7.05)" fill="#002dfb"/><path d="M376.47,124.35a5.14,5.14,0,0,1,2.41-.47,5.19,5.19,0,0,1,2.19.6,6.76,6.76,0,0,1,1.86,1.51,8.92,8.92,0,0,1,1.38,2.23,8.83,8.83,0,0,1,.54,1.71,14.35,14.35,0,0,1,.31,2.06,18.38,18.38,0,0,1,0,2.23,13.81,13.81,0,0,1-.28,2.18c.21-.26.46-.58.75-1l.92-1.22,1-1.38,1.06-1.39,2.45-3.38a1,1,0,0,1,.37-.27.48.48,0,0,1,.71.3,1.87,1.87,0,0,1-.3,1.73c-.37.56-.85,1.28-1.45,2.15s-1.27,1.76-2,2.67a32.12,32.12,0,0,1-2.35,2.58,10.5,10.5,0,0,1-2.48,1.85,14.77,14.77,0,0,1-3,3.78,17.16,17.16,0,0,1-4.87,3.07,11.12,11.12,0,0,1-2.6.83,4.74,4.74,0,0,1-2-.05,3.11,3.11,0,0,1-1.43-.85,5.08,5.08,0,0,1-1-1.57,9.35,9.35,0,0,1-.72-3.16,22,22,0,0,1,0-3.63,29.73,29.73,0,0,1,.56-3.52,26.53,26.53,0,0,1,.78-2.85,19.57,19.57,0,0,1-1.3,2.27c-.59.92-1.27,1.92-2,3s-1.59,2.23-2.46,3.42l-2.61,3.54a1.09,1.09,0,0,1-.42.31.57.57,0,0,1-.49,0,.6.6,0,0,1-.33-.35,1.11,1.11,0,0,1,0-.73,3.08,3.08,0,0,1,.51-1c1.61-2.2,3-4.09,4.1-5.66s2.1-2.92,2.93-4,1.57-2,2.23-2.79a17,17,0,0,1,2-1.93,14.63,14.63,0,0,1,2.19-1.46C374.41,125.29,375.36,124.84,376.47,124.35ZM374.9,144a7.18,7.18,0,0,0,2.38-1.7,12.06,12.06,0,0,0,1.83-2.6,1.89,1.89,0,0,1-.7-.55,3.85,3.85,0,0,1-.47-.78,1.48,1.48,0,0,1,0-1.33,2.1,2.1,0,0,1,1-.89,3,3,0,0,1,1.6-.19,9.27,9.27,0,0,0,.79-1.74,10,10,0,0,0,.44-1.91,9.25,9.25,0,0,0,0-1.89,5.31,5.31,0,0,0-.43-1.69,3.59,3.59,0,0,0-.8-1.16,2.86,2.86,0,0,0-1.25-.71,4.41,4.41,0,0,0-1.73-.08,8,8,0,0,0-2.26.67,4.72,4.72,0,0,0-1.84,1.46,9.34,9.34,0,0,0-1.33,2.35,15,15,0,0,0-.85,2.87,19,19,0,0,0-.36,3.06,16.65,16.65,0,0,0,.15,2.87,8.72,8.72,0,0,0,.62,2.36A3.3,3.3,0,0,0,373,144,2,2,0,0,0,374.9,144Z" transform="translate(-62.17 -7.05)" fill="#002dfb"/><path d="M405.47,131.64a7.87,7.87,0,0,0,1.78-1.57,26.11,26.11,0,0,0,2.06-2.66c.72-1,1.44-2.18,2.16-3.44s1.43-2.59,2.09-4,1.29-2.78,1.86-4.21,1-2.82,1.43-4.18a1.23,1.23,0,0,0-.08-.51,2.56,2.56,0,0,1-.13-.75,1.72,1.72,0,0,1,.18-.82,1.55,1.55,0,0,1,.83-.68,2.46,2.46,0,0,1,.91-.24,1.13,1.13,0,0,1,.63.14,1.32,1.32,0,0,1,.44.44,6.92,6.92,0,0,1,.34.67,4.7,4.7,0,0,1,.28,1.14c.08.5.14,1.08.19,1.74s.1,1.38.14,2.16.07,1.56.1,2.35.07,1.57.11,2.34.09,1.47.14,2.1c.15-.18.35-.45.61-.82l.9-1.28,1.07-1.56,1.12-1.66,2.82-4.15a.73.73,0,0,1,.29-.23.66.66,0,0,1,.5,0,.65.65,0,0,1,.39.37,1.12,1.12,0,0,1,.05.71,2.63,2.63,0,0,1-.45.91l-7.48,10.31a1.28,1.28,0,0,0-.19.47,3.38,3.38,0,0,1-.17.6,2.28,2.28,0,0,1-.32.59,1.69,1.69,0,0,1-.67.49,1.19,1.19,0,0,1-.8.08.85.85,0,0,1-.55-.5,5.07,5.07,0,0,1-.31-1.38c-.06-.6-.11-1.27-.14-2s0-1.52,0-2.35,0-1.64.05-2.43,0-1.54,0-2.25,0-1.3,0-1.8c-.27,1-.63,2.19-1.06,3.44s-.94,2.55-1.54,3.87-1.27,2.64-2,4a29.77,29.77,0,0,1-2.47,3.7,23.18,23.18,0,0,1-2.91,3.09,12.65,12.65,0,0,1-3.28,2.12,1.62,1.62,0,0,1-1.57,0,2.92,2.92,0,0,1-1-1.31,9.69,9.69,0,0,1-.59-2.08c-.16-.83-.28-1.73-.37-2.7s-.16-2-.19-3-.05-2.06,0-3,0-1.9,0-2.76,0-1.56,0-2.13c-.53.65-1.14,1.44-1.84,2.37s-1.45,2-2.27,3.12-1.71,2.38-2.65,3.72l-3,4.19a1.13,1.13,0,0,1-.37.31.81.81,0,0,1-.53,0,.63.63,0,0,1-.38-.37,1.12,1.12,0,0,1,0-.69,3.36,3.36,0,0,1,.52-1c1.33-1.88,2.6-3.63,3.83-5.25s2.35-3,3.39-4.26,1.95-2.23,2.74-3a7.34,7.34,0,0,1,1.82-1.44,2.93,2.93,0,0,1,2.07-.3,2.07,2.07,0,0,1,1.15,1.17,6.3,6.3,0,0,1,.45,2.33,23.8,23.8,0,0,1-.07,3c-.09,1.07-.21,2.16-.37,3.28l-.42,3.15c-.12,1-.21,1.86-.26,2.6a3.71,3.71,0,0,0,.15,1.61.47.47,0,0,0,.7.28C405.41,131.7,405.47,131.66,405.47,131.64Z" transform="translate(-62.17 -7.05)" fill="#002dfb"/><path d="M435.89,119.42a2.94,2.94,0,0,1-1.37.27,2.72,2.72,0,0,1-1.19-.37,3.42,3.42,0,0,1-1-.86,5.24,5.24,0,0,1-.72-1.19,8.31,8.31,0,0,1-.61-2.39,8,8,0,0,1,.13-2.55,6.42,6.42,0,0,1,1-2.28,4.42,4.42,0,0,1,1.92-1.56,6.66,6.66,0,0,1,2.27-.61,4,4,0,0,1,1.78.23,3.39,3.39,0,0,1,1.3.89,4.77,4.77,0,0,1,.86,1.32,4.93,4.93,0,0,1,.38,2.61,7.56,7.56,0,0,1-.81,2.64,9,9,0,0,1-1.69,2.29A7.25,7.25,0,0,1,435.89,119.42Z" transform="translate(-62.17 -7.05)" fill="#002dfb"/><path d="M100.47,289.33a1,1,0,0,1,.76,0,.92.92,0,0,1,.48.49.7.7,0,0,1-.07.6,4.54,4.54,0,0,1-.47.79l-.66.88a9.5,9.5,0,0,0-.63.87,25.53,25.53,0,0,1,8.69,5.44,27.67,27.67,0,0,1,6.29,9.11,17.3,17.3,0,0,1,1.5,6,18,18,0,0,1-.6,5.77,21.5,21.5,0,0,1-2.31,5.44,33.49,33.49,0,0,1-3.64,5,3.68,3.68,0,0,0,1.55.12,5.78,5.78,0,0,0,1.6-.46,9.12,9.12,0,0,0,1.88-1.12,22.12,22.12,0,0,0,1.86-1.57c.6-.57,1.18-1.19,1.74-1.84s1.09-1.28,1.58-1.91,1.14-1.53,1.68-2.32,1.06-1.62,1.6-2.49a.35.35,0,0,1,.2-.17.6.6,0,0,1,.47,0,.81.81,0,0,1,.39.42,1.12,1.12,0,0,1,0,.76,5.79,5.79,0,0,1-.46,1.08c-.22.4-.48.82-.77,1.26s-.61.89-.93,1.32l-1,1.26-.84,1c-.56.7-1.17,1.42-1.84,2.14a29.16,29.16,0,0,1-2.1,2.06,24.94,24.94,0,0,1-2.31,1.82,14.82,14.82,0,0,1-2.43,1.37,10.67,10.67,0,0,1-2.06.65,8.59,8.59,0,0,1-2.08.16l-1.25-.07c-1.25,1.12-2.56,2.19-3.91,3.2s-2.73,1.93-4.11,2.79-2.74,1.65-4.08,2.36-2.63,1.34-3.85,1.87a18,18,0,0,1-3.21,1.06c-1.13.26-2.27.5-3.44.73A20.27,20.27,0,0,1,81,347.68a14.87,14.87,0,0,1-3.15,1.84,4,4,0,0,1-.93.26,3,3,0,0,1-1,0,2.23,2.23,0,0,1-.89-.36,1.91,1.91,0,0,1-.62-.79,1.36,1.36,0,0,1,0-1.15,2.8,2.8,0,0,1,.7-1,5.36,5.36,0,0,1,1.08-.79c.4-.23.76-.41,1.09-.56s.95-.38,1.44-.54a12.81,12.81,0,0,1,1.48-.37,40.11,40.11,0,0,0,2.85-5.81q1.18-3,2.1-6.25c.6-2.14,1.14-4.31,1.61-6.53s1-4.44,1.41-6.67.94-4.45,1.43-6.67,1.06-4.39,1.68-6.52a63,63,0,0,1,2.18-6.24,39,39,0,0,1,3-5.8,20.8,20.8,0,0,0-7.73-.79,27.92,27.92,0,0,0-9,2.41,34,34,0,0,0-4.57,2.46,31.07,31.07,0,0,0-4.28,3.3,27,27,0,0,0-3.55,4,17.44,17.44,0,0,0-2.4,4.6,14.39,14.39,0,0,0-.78,5.07,14.06,14.06,0,0,0,1.25,5.39,11,11,0,0,0,1.62,2.73,5.53,5.53,0,0,0,1.81,1.48,4,4,0,0,0,2,.42,5.65,5.65,0,0,0,2-.5,10,10,0,0,0,2.76-1.87A19.1,19.1,0,0,0,78,319.54a25.6,25.6,0,0,0,2.1-3.47,23.7,23.7,0,0,0,1.48-3.63,14.52,14.52,0,0,0,.65-3.35,5.8,5.8,0,0,0-.38-2.67,3.5,3.5,0,0,0-.86-1.15.29.29,0,0,1-.15-.16.34.34,0,0,1,0-.28,1,1,0,0,1,.16-.29,1.54,1.54,0,0,1,.26-.25.81.81,0,0,1,.27-.17.88.88,0,0,1,1.2.52l.06.12a8.22,8.22,0,0,1,2,2.75,8,8,0,0,1,.68,3.22,11.26,11.26,0,0,1-.54,3.33,14,14,0,0,1-1.55,3.22,19.64,19.64,0,0,1-5.14,5.41,17.41,17.41,0,0,1-3.16,1.82,13.59,13.59,0,0,1-3.39,1,8.23,8.23,0,0,1-3.22-.12,6.83,6.83,0,0,1-2.79-1.46,8,8,0,0,1-2.12-3,16,16,0,0,1-1.36-5.55,17.52,17.52,0,0,1,.56-5.41,19.53,19.53,0,0,1,2.15-5,26.24,26.24,0,0,1,3.41-4.48,28.61,28.61,0,0,1,9.23-6.5,31.78,31.78,0,0,1,10.13-2.66,28.13,28.13,0,0,1,9.82.86,16.44,16.44,0,0,1,1.28-1.47,10.54,10.54,0,0,1,1.57-1.28ZM77.39,347.7a3.22,3.22,0,0,0,1.33-1.19l-.32.14a8.3,8.3,0,0,0-1.07.55,4.51,4.51,0,0,0-.9.7,1.57,1.57,0,0,0,.49,0A3.27,3.27,0,0,0,77.39,347.7Zm26.33-17.93a4,4,0,0,1,1.56-1.34,3.21,3.21,0,0,1,.93-.21,26.72,26.72,0,0,0,2.73-6,27.46,27.46,0,0,0,1.18-6.15,24.87,24.87,0,0,0-.27-6,23.84,23.84,0,0,0-1.64-5.52,21,21,0,0,0-3.8-5.87,17.88,17.88,0,0,0-5.55-4.07,32,32,0,0,0-2.08,5.14c-.59,1.87-1.11,3.84-1.58,5.92s-.87,4.22-1.24,6.43-.74,4.44-1.12,6.68-.8,4.45-1.24,6.65-.94,4.34-1.5,6.41a53.48,53.48,0,0,1-1.94,5.93,29.21,29.21,0,0,1-2.64,5.14q1.32-.31,2.58-.69a20.85,20.85,0,0,0,2.5-.92,37.24,37.24,0,0,0,7.2-4.07,32.94,32.94,0,0,0,5.43-5,1,1,0,0,1-.22-.34,1.26,1.26,0,0,1,0-.88A4.22,4.22,0,0,1,103.72,329.77Z" transform="translate(-62.17 -7.05)" fill="#002dfb"/><path d="M138.52,301.22a5.14,5.14,0,0,1,2.41-.47,5.06,5.06,0,0,1,2.19.61,6.54,6.54,0,0,1,1.86,1.5,8.92,8.92,0,0,1,1.92,3.94,14.56,14.56,0,0,1,.31,2.06,18.38,18.38,0,0,1,0,2.23,13.66,13.66,0,0,1-.28,2.18l.75-1,.92-1.23c.32-.44.67-.9,1-1.37s.71-.95,1.06-1.4l2.45-3.38a.9.9,0,0,1,.37-.26.47.47,0,0,1,.71.29,1.87,1.87,0,0,1-.3,1.73c-.37.57-.85,1.28-1.45,2.15s-1.27,1.77-2,2.67a32.12,32.12,0,0,1-2.35,2.58,10.56,10.56,0,0,1-2.48,1.86,14.73,14.73,0,0,1-3,3.77,17,17,0,0,1-4.87,3.07,11.12,11.12,0,0,1-2.6.83,4.74,4.74,0,0,1-2-.05,3.11,3.11,0,0,1-1.43-.85,5.08,5.08,0,0,1-1-1.57A9.35,9.35,0,0,1,130,318a21,21,0,0,1,0-3.63,27.7,27.7,0,0,1,.55-3.53,26.53,26.53,0,0,1,.78-2.85,19.57,19.57,0,0,1-1.3,2.27c-.59.92-1.27,1.92-2,3s-1.59,2.23-2.46,3.42L123,320.23a1.24,1.24,0,0,1-.42.32.57.57,0,0,1-.49,0,.58.58,0,0,1-.33-.34,1.14,1.14,0,0,1,0-.74,3.18,3.18,0,0,1,.51-1c1.61-2.2,3-4.09,4.1-5.66s2.1-2.92,2.93-4,1.57-2,2.23-2.79a17,17,0,0,1,2-1.93,14.63,14.63,0,0,1,2.19-1.46Q136.86,302,138.52,301.22ZM137,320.84a7.21,7.21,0,0,0,2.38-1.71,12.06,12.06,0,0,0,1.83-2.6,1.89,1.89,0,0,1-.7-.55,3.85,3.85,0,0,1-.47-.78,1.48,1.48,0,0,1,0-1.33,2.1,2.1,0,0,1,1-.89,3,3,0,0,1,1.6-.19,9.27,9.27,0,0,0,.79-1.74,10,10,0,0,0,.44-1.91,9.25,9.25,0,0,0,0-1.89,5.31,5.31,0,0,0-.43-1.69,3.73,3.73,0,0,0-.79-1.16,2.86,2.86,0,0,0-1.25-.7,4.46,4.46,0,0,0-1.74-.09,8.06,8.06,0,0,0-2.26.67,4.81,4.81,0,0,0-1.84,1.46,9.52,9.52,0,0,0-1.33,2.35,14.86,14.86,0,0,0-.85,2.88,20,20,0,0,0-.36,3,16.82,16.82,0,0,0,.15,2.88,8.74,8.74,0,0,0,.62,2.35,3.37,3.37,0,0,0,1.28,1.59A2,2,0,0,0,137,320.84Z" transform="translate(-62.17 -7.05)" fill="#002dfb"/><path d="M175.84,289a6.42,6.42,0,0,0-1.82,1.34,21.67,21.67,0,0,0-2.11,2.43,34.22,34.22,0,0,0-2.19,3.2c-.73,1.18-1.41,2.42-2,3.71a41.33,41.33,0,0,0-1.67,3.95,26.37,26.37,0,0,0-1.11,3.88.76.76,0,0,0,.1.52,3.07,3.07,0,0,1,.22.83,1.7,1.7,0,0,1-.14.93,1.75,1.75,0,0,1-1,.81,2.46,2.46,0,0,1-.91.25,1.06,1.06,0,0,1-.63-.15,1.21,1.21,0,0,1-.43-.44,5.19,5.19,0,0,1-.35-.67,4.9,4.9,0,0,1-.28-1.23c-.08-.56-.15-1.21-.2-2s-.11-1.57-.16-2.45-.09-1.76-.13-2.64-.08-1.73-.13-2.56-.1-1.56-.16-2.21l-7.65,10.56a1.2,1.2,0,0,1-.17.11l-.11.06a.58.58,0,0,1-.51,0A.63.63,0,0,1,152,307a1.49,1.49,0,0,1-.06-.75,2.17,2.17,0,0,1,.39-.89c1.57-2.2,2.88-4,3.9-5.43l2.48-3.42c.63-.86,1.09-1.5,1.41-1.92l.72-.93a2.55,2.55,0,0,1,.45-.47,2.45,2.45,0,0,1,.51-.3,1.61,1.61,0,0,1,1.17-.09,1.14,1.14,0,0,1,.74.62,4.26,4.26,0,0,1,.26,1.34c0,.6.06,1.27.06,2s0,1.47,0,2.23,0,1.45.05,2.07c0,.25,0,.46,0,.61s0,.34,0,.54,0,.45,0,.76,0,.75,0,1.32a32.85,32.85,0,0,1,1-3.33,35.53,35.53,0,0,1,1.54-3.61,35,35,0,0,1,2-3.61,26.09,26.09,0,0,1,2.49-3.36,21.06,21.06,0,0,1,2.94-2.81,15,15,0,0,1,3.35-2,2.12,2.12,0,0,1,1.68-.21,1.84,1.84,0,0,1,.94,1,6.48,6.48,0,0,1,.44,1.64,17.83,17.83,0,0,1,.24,2.26c0,.84.08,1.74.1,2.7s0,1.95,0,2.95l0,3c0,1,0,2,0,2.87a21.47,21.47,0,0,0,2-2.38c.64-.91,1.32-1.91,2-3s1.46-2.26,2.24-3.51,1.64-2.55,2.57-3.9a1,1,0,0,1,.37-.27c.34-.15.6,0,.77.36a1.39,1.39,0,0,1,.05.75,2.51,2.51,0,0,1-.41.93q-1.85,2.68-3.27,5c-.94,1.55-1.82,2.94-2.62,4.17a26,26,0,0,1-2.31,3.1,6.55,6.55,0,0,1-2.29,1.78,3.7,3.7,0,0,1-1.32.36,2.54,2.54,0,0,1-1.05-.11,1.81,1.81,0,0,1-.8-.5,2.52,2.52,0,0,1-.54-.79,2.68,2.68,0,0,1-.22-1.06,6.77,6.77,0,0,1,.11-1.28c0-1.16.06-2.38.14-3.68s.13-2.52.17-3.67,0-2.16,0-3a5.26,5.26,0,0,0-.23-1.8C176.17,289,176,288.92,175.84,289Z" transform="translate(-62.17 -7.05)" fill="#002dfb"/><path d="M188.19,260.32a2.69,2.69,0,0,0,1.59-1.46,4,4,0,0,0,.21-2,9.77,9.77,0,0,0-.62-2.27c-.3-.78-.59-1.51-.85-2.2a9.08,9.08,0,0,1-.51-1.84,1.13,1.13,0,0,1,.42-1.18l.47-.31a3,3,0,0,1,.42-.24,2,2,0,0,1,1.06-.19,1.71,1.71,0,0,1,.8.32,2.31,2.31,0,0,1,.57.66,6.64,6.64,0,0,1,.41.79,7.26,7.26,0,0,1,.51,1.85,10.53,10.53,0,0,1,.06,2.11,11.76,11.76,0,0,1-.38,2.17,8.88,8.88,0,0,1-.8,2,8.09,8.09,0,0,1-1.24,1.69,5.18,5.18,0,0,1-1.67,1.16.65.65,0,0,1-.52,0,.62.62,0,0,1-.31-.31.61.61,0,0,1,0-.42A.64.64,0,0,1,188.19,260.32Z" transform="translate(-62.17 -7.05)" fill="#002dfb"/><path d="M239.06,257.41c.44,0,.72.13.82.37a1.68,1.68,0,0,1,0,1.21,4.51,4.51,0,0,1-.71,1.32,9.89,9.89,0,0,1-1.23,1.31,18.49,18.49,0,0,1-1.48,1.2c-.5.38-1,.71-1.47,1a10,10,0,0,1-1.24.64c-1.1.44-2.18.89-3.24,1.34l-3.07,1.3,1.05,4.88c.29,1.35.54,2.52.74,3.5a16.27,16.27,0,0,0,.57,2.22c.18.49.37,1,.56,1.39a1.23,1.23,0,0,0,.38.52.5.5,0,0,0,.53,0,5.29,5.29,0,0,0,2-1.7c.64-.84,1.34-1.85,2.07-3l2.48-3.94a28.61,28.61,0,0,1,3.23-4.45,4.32,4.32,0,0,0,.34-.38,1,1,0,0,1,.3-.2.46.46,0,0,1,.68.29,1.57,1.57,0,0,1,.05.86,3.48,3.48,0,0,1-.59,1.2c-1.61,2.26-2.76,4-3.48,5.18l-2.48,4.24a26.61,26.61,0,0,1-2.17,3.13,6.7,6.7,0,0,1-2.45,1.89,2.78,2.78,0,0,1-2.13.17,4.4,4.4,0,0,1-1.64-1.16,8.75,8.75,0,0,1-1.25-1.84c-.35-.7-.66-1.32-.9-1.88a20.9,20.9,0,0,1-1.12-3.29c-.28-1.14-.56-2.23-.82-3.28L221,275l-2.55,3.52a.51.51,0,0,1-.21.17.75.75,0,0,1-.53,0,.7.7,0,0,1-.43-.41,1.07,1.07,0,0,1,0-.61,2.22,2.22,0,0,1,.45-.9l2.83-3.8q1.32-1.85,2.4-3.61l0-.2-2.7,1.26a3,3,0,0,0-.4.2l-.35.18a.92.92,0,0,1-.69,0,1,1,0,0,1-.48-.38c-.07-.16,0-.36.16-.61a4.3,4.3,0,0,1,.86-.83,17.6,17.6,0,0,1,1.42-1.05c.57-.37,1.2-.76,1.91-1.18a52.09,52.09,0,0,1-.28-8.18,21.84,21.84,0,0,1,1.22-6.34,13.55,13.55,0,0,1,2.92-4.69,14.8,14.8,0,0,1,4.78-3.21,3.52,3.52,0,0,1,2-.39,1.53,1.53,0,0,1,1.1.94,5.47,5.47,0,0,1,.19,2.87,23.78,23.78,0,0,1-1.11,4.3,53.85,53.85,0,0,1-2.22,5.42q-1.38,3-3.19,6.21l2.66-1.44,2.67-1.45c.87-.47,1.73-.93,2.55-1.39s1.61-.92,2.35-1.37a.72.72,0,0,0,.26-.32.54.54,0,0,1,.31-.28A1.11,1.11,0,0,1,239.06,257.41Zm-7.62-11.66a5.92,5.92,0,0,0-2.07,1.52,8.68,8.68,0,0,0-1.44,2.31,14.37,14.37,0,0,0-.89,2.93,29.05,29.05,0,0,0-.43,3.36,33.2,33.2,0,0,0-.05,3.61c0,1.23.12,2.46.25,3.67,1.31-2.21,2.42-4.26,3.33-6.13s1.62-3.53,2.15-5a18.73,18.73,0,0,0,1-3.68,4.24,4.24,0,0,0-.11-2.25,1,1,0,0,0-.56-.57A1.81,1.81,0,0,0,231.44,245.75Z" transform="translate(-62.17 -7.05)" fill="#002dfb"/><path d="M276.65,251a1.24,1.24,0,0,1,.34-.28.6.6,0,0,1,.49,0,.69.69,0,0,1,.36.39,1.41,1.41,0,0,1,.08.73,2.27,2.27,0,0,1-.44,1l-3.68,5.83-1.6,2.54-1.62,2.62c-.53.87-1,1.71-1.52,2.52s-.91,1.54-1.3,2.21a51.94,51.94,0,0,1,.43,8.85,28,28,0,0,1-1,6.63A13.93,13.93,0,0,1,265,288.4a6.75,6.75,0,0,1-2.53,2.23,2.62,2.62,0,0,1-2.08.11,2.84,2.84,0,0,1-1.51-1.63,7.21,7.21,0,0,1-.38-3,25.83,25.83,0,0,1,.62-4.59,52.1,52.1,0,0,1,1.54-5.56,60.57,60.57,0,0,1,2.36-5.94,28.61,28.61,0,0,1-.67-3.39c-.19-1.3-.39-2.71-.61-4.21s-.45-3.08-.68-4.72-.45-3.3-.64-5l-7.52,10.74a1.49,1.49,0,0,1-.33.28.75.75,0,0,1-.53,0,.67.67,0,0,1-.39-.37,1.1,1.1,0,0,1,0-.68,3.27,3.27,0,0,1,.5-1l2.31-3.21c.77-1.08,1.52-2.12,2.24-3.11l2-2.79,1.58-2.2-.1-.47c-.08-.28-.17-.68-.28-1.18s-.23-1.09-.35-1.74-.23-1.34-.33-2-.19-1.4-.27-2.1a17.22,17.22,0,0,1-.12-1.94,24.64,24.64,0,0,1,.18-3.35,26.37,26.37,0,0,1,.64-3.56,24.52,24.52,0,0,1,1.14-3.49,18.67,18.67,0,0,1,1.68-3.2,14.42,14.42,0,0,1,2.24-2.66,9.72,9.72,0,0,1,2.81-1.85,10.84,10.84,0,0,1,2.8-.86,6,6,0,0,1,2.17,0,3.6,3.6,0,0,1,1.52.67,2.89,2.89,0,0,1,.88,1.11,8.13,8.13,0,0,1,.69,3.57,13.78,13.78,0,0,1-.7,3.8,22.38,22.38,0,0,1-1.75,3.93q-1.12,2-2.47,4t-2.82,4q-1.49,2-2.86,3.85.38,2.82.71,5.3c.22,1.65.42,3.21.6,4.7s.37,2.9.53,4.25a11,11,0,0,1-.22,4l1.36-1.94,1.56-2.22,1.66-2.36,1.63-2.3ZM260.76,287.2q.48.92,1.05.66a2.61,2.61,0,0,0,1.05-1.38,13.07,13.07,0,0,0,.86-3,29.7,29.7,0,0,0,.43-4.28,34,34,0,0,0-.26-5.21c-.32.77-.64,1.59-1,2.47s-.61,1.75-.89,2.64-.51,1.74-.73,2.58-.38,1.63-.51,2.35a13.36,13.36,0,0,0-.2,1.91A3.05,3.05,0,0,0,260.76,287.2Zm4.05-42.44c1.63-2.27,3-4.41,4.25-6.41a46.65,46.65,0,0,0,2.88-5.55,18.23,18.23,0,0,0,1.34-4.58,6.5,6.5,0,0,0-.39-3.53,4.69,4.69,0,0,0-.43-.77,1.82,1.82,0,0,0-.8-.63,3,3,0,0,0-1.34-.17,6.69,6.69,0,0,0-2.07.6,5.28,5.28,0,0,0-2.31,1.92,9.93,9.93,0,0,0-1.35,3,18.11,18.11,0,0,0-.6,3.79,36.35,36.35,0,0,0,0,4.18c.06,1.42.17,2.83.34,4.22S264.63,243.56,264.81,244.76Z" transform="translate(-62.17 -7.05)" fill="#002dfb"/><path d="M292,234a5.26,5.26,0,0,1,2.4-.48,5.2,5.2,0,0,1,2.19.61,6.41,6.41,0,0,1,1.86,1.51,8.88,8.88,0,0,1,1.39,2.22,10.59,10.59,0,0,1,.54,1.72,15.68,15.68,0,0,1,.3,2.06,16.48,16.48,0,0,1,0,2.23,13.52,13.52,0,0,1-.29,2.17l.75-1c.29-.38.6-.79.92-1.23l1-1.37c.35-.48.71-.94,1.05-1.4l2.46-3.38a.8.8,0,0,1,.36-.26.49.49,0,0,1,.72.3,1.91,1.91,0,0,1-.31,1.73c-.36.56-.85,1.28-1.45,2.15s-1.27,1.76-2,2.67a32,32,0,0,1-2.35,2.57,10.36,10.36,0,0,1-2.48,1.86,15.12,15.12,0,0,1-3,3.78,17.45,17.45,0,0,1-4.88,3.07,10.9,10.9,0,0,1-2.6.82,4.53,4.53,0,0,1-2-.05,3.09,3.09,0,0,1-1.44-.84,5.13,5.13,0,0,1-1-1.58,9.23,9.23,0,0,1-.72-3.15,22,22,0,0,1,.05-3.63,27.54,27.54,0,0,1,.55-3.52,25.69,25.69,0,0,1,.79-2.85,23.77,23.77,0,0,1-1.31,2.27c-.59.91-1.27,1.92-2,3s-1.59,2.23-2.46,3.42l-2.6,3.55a1.42,1.42,0,0,1-.42.31.58.58,0,0,1-.83-.32,1.11,1.11,0,0,1,0-.73,3.21,3.21,0,0,1,.51-1c1.61-2.2,3-4.08,4.1-5.66s2.1-2.92,2.93-4,1.57-2.05,2.23-2.79a16.9,16.9,0,0,1,2-1.92,14,14,0,0,1,2.19-1.47C289.94,235,290.89,234.51,292,234Zm-1.58,19.61a7.08,7.08,0,0,0,2.38-1.7,12.71,12.71,0,0,0,1.84-2.6,1.94,1.94,0,0,1-.71-.56,3.34,3.34,0,0,1-.46-.78,1.42,1.42,0,0,1,0-1.33,2,2,0,0,1,1-.88,2.73,2.73,0,0,1,1.59-.19,9.89,9.89,0,0,0,.79-1.74,10.05,10.05,0,0,0,.44-1.92,8.56,8.56,0,0,0,0-1.89,5.66,5.66,0,0,0-.42-1.69,3.71,3.71,0,0,0-.8-1.15,2.82,2.82,0,0,0-1.25-.71,4.44,4.44,0,0,0-1.74-.09,8.41,8.41,0,0,0-2.26.67,4.84,4.84,0,0,0-1.84,1.47,9.78,9.78,0,0,0-1.33,2.34,15.59,15.59,0,0,0-.85,2.88,18.89,18.89,0,0,0-.35,3,16.85,16.85,0,0,0,.14,2.88,8.45,8.45,0,0,0,.63,2.36,3.32,3.32,0,0,0,1.27,1.58A2,2,0,0,0,290.42,253.64Z" transform="translate(-62.17 -7.05)" fill="#002dfb"/><path d="M330,227.59a.7.7,0,0,1,.28-.23.85.85,0,0,1,.55,0,.62.62,0,0,1,.42.37,1.25,1.25,0,0,1,0,.68,2.83,2.83,0,0,1-.5,1c-.55.73-1.14,1.53-1.78,2.41l-2,2.71-2,2.73c-.67.91-1.31,1.75-1.93,2.52s-1.18,1.47-1.7,2.06a12.64,12.64,0,0,1-1.33,1.33,2.9,2.9,0,0,1-.57.41,4.88,4.88,0,0,1-.5.26,2.5,2.5,0,0,1-1.67.19,3.19,3.19,0,0,1-1.44-.82,7.12,7.12,0,0,1-1.24-1.58,21.85,21.85,0,0,1-1.08-2.11c-.44-1-.85-2.08-1.21-3.18l-1-3L307.93,238l-1.39,1.92a.74.74,0,0,1-.31.24.77.77,0,0,1-.52,0,.67.67,0,0,1-.4-.39,1.15,1.15,0,0,1,0-.65,2.75,2.75,0,0,1,.48-1l4.93-6.79q-.53-4-.74-7.41a46.61,46.61,0,0,1,0-6.38,27.16,27.16,0,0,1,1-5.41,15.65,15.65,0,0,1,5.42-8.13,22.29,22.29,0,0,1,4.83-2.84,10.53,10.53,0,0,1,2.5-.79,4.75,4.75,0,0,1,1.89,0,2.92,2.92,0,0,1,1.37.72,4.05,4.05,0,0,1,.89,1.3,4.55,4.55,0,0,1,.26,2.33,14,14,0,0,1-.75,3,30.64,30.64,0,0,1-1.48,3.48c-.61,1.22-1.27,2.44-2,3.69s-1.46,2.46-2.23,3.66-1.52,2.32-2.24,3.38-1.39,2-2,2.88-1.12,1.56-1.52,2.1c.14,1,.29,2,.46,3.14s.38,2.18.6,3.26.49,2.14.79,3.16a22.86,22.86,0,0,0,1,2.81,3.71,3.71,0,0,0,.48.83c.17.22.33.29.49.22a4.27,4.27,0,0,0,1.08-.84c.44-.44.94-1,1.48-1.64s1.14-1.4,1.77-2.22,1.29-1.7,2-2.61l2-2.78Zm-14.68-2.68c.65-.83,1.41-1.87,2.26-3.12s1.71-2.59,2.58-4,1.71-2.91,2.5-4.42,1.48-3,2-4.31a20.58,20.58,0,0,0,1.19-3.7,4.39,4.39,0,0,0-.06-2.59,1.56,1.56,0,0,0-1.38-.91,6.11,6.11,0,0,0-2.88.7,12.54,12.54,0,0,0-4.61,3.25,11.32,11.32,0,0,0-2.34,4.73,20.76,20.76,0,0,0-.43,6.32A61.27,61.27,0,0,0,315.34,224.91Z" transform="translate(-62.17 -7.05)" fill="#002dfb"/><path d="M353.38,217.36a.74.74,0,0,1,.28-.22.8.8,0,0,1,.55,0,.63.63,0,0,1,.42.38,1.21,1.21,0,0,1,0,.67,2.83,2.83,0,0,1-.5,1c-.54.73-1.14,1.53-1.77,2.41l-2,2.71c-.67.92-1.35,1.83-2,2.73s-1.31,1.75-1.93,2.53-1.18,1.46-1.7,2.05a11.75,11.75,0,0,1-1.33,1.33,3.18,3.18,0,0,1-.56.41c-.19.11-.36.19-.51.26a2.49,2.49,0,0,1-1.67.19,3.26,3.26,0,0,1-1.44-.81,7.44,7.44,0,0,1-1.24-1.59,18.88,18.88,0,0,1-1.07-2.11c-.45-1-.86-2.08-1.22-3.17s-.7-2.12-1-3l-3.43,4.74-1.39,1.93a.81.81,0,0,1-.31.23.77.77,0,0,1-.52,0,.63.63,0,0,1-.39-.39,1.06,1.06,0,0,1,0-.65,2.8,2.8,0,0,1,.49-1l4.92-6.79q-.53-4-.74-7.41a45,45,0,0,1,0-6.38,26.48,26.48,0,0,1,1-5.41,15.92,15.92,0,0,1,2.06-4.5,16.23,16.23,0,0,1,3.37-3.63,21.42,21.42,0,0,1,4.83-2.83,10.41,10.41,0,0,1,2.49-.8,4.75,4.75,0,0,1,1.89,0,2.92,2.92,0,0,1,1.37.72,3.9,3.9,0,0,1,.89,1.3,4.44,4.44,0,0,1,.26,2.33,14.53,14.53,0,0,1-.74,3,30.8,30.8,0,0,1-1.49,3.48c-.6,1.22-1.26,2.44-2,3.69s-1.45,2.46-2.23,3.66-1.52,2.33-2.24,3.38-1.38,2-2,2.88l-1.51,2.1c.13,1,.29,2.06.46,3.14s.37,2.18.6,3.26.49,2.14.78,3.16a22,22,0,0,0,1,2.82,3.62,3.62,0,0,0,.47.82c.17.22.34.29.49.22a4.27,4.27,0,0,0,1.08-.84c.44-.43.94-1,1.49-1.64s1.13-1.4,1.76-2.22,1.29-1.7,2-2.61l2-2.77Zm-14.68-2.68c.65-.83,1.41-1.87,2.26-3.12s1.71-2.59,2.58-4,1.71-2.91,2.5-4.42,1.48-3,2-4.31a21.42,21.42,0,0,0,1.19-3.7,4.38,4.38,0,0,0-.07-2.59,1.55,1.55,0,0,0-1.37-.9,6.08,6.08,0,0,0-2.89.69,12.5,12.5,0,0,0-4.6,3.25,11.39,11.39,0,0,0-2.35,4.73,21.08,21.08,0,0,0-.43,6.32A61.27,61.27,0,0,0,338.7,214.68Z" transform="translate(-62.17 -7.05)" fill="#002dfb"/><path d="M368.77,200.41a5.18,5.18,0,0,1,4.6.13,6.76,6.76,0,0,1,1.86,1.51,8.64,8.64,0,0,1,1.38,2.23,9.3,9.3,0,0,1,.55,1.71,15.94,15.94,0,0,1,.3,2.06,18.36,18.36,0,0,1,0,2.23,14.75,14.75,0,0,1-.29,2.17l.75-1,.92-1.22,1-1.38c.35-.47.7-.94,1.05-1.39l2.46-3.38a.89.89,0,0,1,.36-.27.49.49,0,0,1,.72.3,1.91,1.91,0,0,1-.31,1.73c-.37.56-.85,1.28-1.45,2.15s-1.27,1.76-2,2.67a32.12,32.12,0,0,1-2.35,2.58,10.58,10.58,0,0,1-2.48,1.85,15.12,15.12,0,0,1-3,3.78A17.22,17.22,0,0,1,368,222a11,11,0,0,1-2.6.83,4.57,4.57,0,0,1-2-.06,3.11,3.11,0,0,1-1.43-.84,5.2,5.2,0,0,1-1-1.57,9.35,9.35,0,0,1-.72-3.16,21,21,0,0,1,.05-3.63,27.82,27.82,0,0,1,.55-3.52,29.1,29.1,0,0,1,.78-2.85,20.44,20.44,0,0,1-1.3,2.27c-.59.92-1.27,1.92-2,3l-2.46,3.42-2.6,3.54a1.2,1.2,0,0,1-.43.31.61.61,0,0,1-.49,0,.6.6,0,0,1-.33-.35,1.11,1.11,0,0,1,0-.73,3.08,3.08,0,0,1,.51-1q2.41-3.3,4.1-5.66c1.12-1.58,2.1-2.92,2.93-4s1.57-2.05,2.23-2.79a16.25,16.25,0,0,1,2-1.93,14.69,14.69,0,0,1,2.19-1.47C366.71,201.35,367.67,200.9,368.77,200.41ZM367.2,220a7.08,7.08,0,0,0,2.38-1.7,12.31,12.31,0,0,0,1.83-2.6,2,2,0,0,1-.7-.55,3.41,3.41,0,0,1-.46-.78,1.42,1.42,0,0,1,0-1.33,2,2,0,0,1,1-.89,2.9,2.9,0,0,1,1.59-.19,9.67,9.67,0,0,0,1.23-3.66,8.48,8.48,0,0,0,0-1.88,5.59,5.59,0,0,0-.42-1.69,3.76,3.76,0,0,0-.8-1.16,2.92,2.92,0,0,0-1.25-.71,4.29,4.29,0,0,0-1.74-.08,8.06,8.06,0,0,0-2.26.67,4.72,4.72,0,0,0-1.84,1.46,9.34,9.34,0,0,0-1.33,2.35,15,15,0,0,0-.85,2.87,19,19,0,0,0-.35,3.06,16.68,16.68,0,0,0,.14,2.87,8.36,8.36,0,0,0,.63,2.36,3.27,3.27,0,0,0,1.27,1.58A2,2,0,0,0,367.2,220Z" transform="translate(-62.17 -7.05)" fill="#002dfb"/><path d="M418,196.79s.12-.19.24-.53l.42-1.36c.16-.56.35-1.2.55-1.92s.39-1.47.59-2.24.39-1.54.59-2.3.37-1.47.53-2.12c-.13-.19-.24-.37-.35-.54a5.12,5.12,0,0,1-.3-.57,7.15,7.15,0,0,1-.65-3,7.54,7.54,0,0,1,.52-2.62,6.58,6.58,0,0,1,1.25-2,4.63,4.63,0,0,1,1.55-1.18,2.34,2.34,0,0,1,1.72-.24,1.69,1.69,0,0,1,1,1A5.36,5.36,0,0,1,426,179a16.18,16.18,0,0,1-.07,2.47,26.56,26.56,0,0,1-.42,2.85c-.19,1-.41,2-.65,3a6.43,6.43,0,0,0,2,.94,2.86,2.86,0,0,0,1.9-.14A3.13,3.13,0,0,0,430,187l3.33-4.7a.58.58,0,0,1,.26-.21.52.52,0,0,1,.47,0,.72.72,0,0,1,.37.41,1.27,1.27,0,0,1,.08.69,2.12,2.12,0,0,1-.4.9l-2.36,3.3a6.53,6.53,0,0,1-1.24,1.35,5.36,5.36,0,0,1-1.34.83,5,5,0,0,1-2.44.44,6.33,6.33,0,0,1-2.37-.69c-.14.53-.31,1.14-.52,1.81s-.45,1.36-.73,2.08-.6,1.45-.95,2.17a17,17,0,0,1-1.16,2,10.77,10.77,0,0,1-1.38,1.65,5.51,5.51,0,0,1-1.62,1.11,2.78,2.78,0,0,1-1.9.18,4.14,4.14,0,0,1-1.7-1,9.24,9.24,0,0,1-1.51-2,25,25,0,0,1-1.38-2.74c-.62-1.42-1.19-2.92-1.71-4.52l-1.55-4.74a2,2,0,0,0-.88,1.19,16.82,16.82,0,0,0-.69,2.41q-.3,1.44-.6,3.24c-.19,1.2-.41,2.44-.64,3.73s-.5,2.57-.81,3.83a25.22,25.22,0,0,1-1.12,3.53,13.26,13.26,0,0,1-1.58,2.84,5.43,5.43,0,0,1-2.15,1.76,1.62,1.62,0,0,1-1.12.08,2.63,2.63,0,0,1-1.05-.66,5.47,5.47,0,0,1-1-1.26,18.34,18.34,0,0,1-.87-1.72,31.55,31.55,0,0,1-1.18-3.22c-.35-1.15-.66-2.26-.92-3.32s-.47-2-.64-2.83-.29-1.42-.35-1.75c-.33.52-.72,1.1-1.16,1.75l-1.41,2c-.5.7-1,1.42-1.55,2.16L387,201.24l-3.65,5a1.31,1.31,0,0,1-.27.3,1.64,1.64,0,0,1-.26.17.49.49,0,0,1-.72-.3,1.47,1.47,0,0,1-.06-.81,2.72,2.72,0,0,1,.53-1.14l9.48-13.1.38-.5c.23-.3.53-.65.89-1a16.24,16.24,0,0,1,1.18-1.16,4.61,4.61,0,0,1,1.26-.84l.61.06a2.72,2.72,0,0,1,.62.17,2.1,2.1,0,0,1,.54.31,1.25,1.25,0,0,1,.39.51l.06.14a.57.57,0,0,1,0,.14l3.28,13.71,1.32-4.36c.29-1,.57-2.05.83-3.18s.52-2.3.81-3.47.62-2.32,1-3.44a20.85,20.85,0,0,1,1.31-3.12,12.3,12.3,0,0,1,1.79-2.56,7.2,7.2,0,0,1,2.43-1.75,2.51,2.51,0,0,1,1.18-.28.66.66,0,0,1,.55.42,2,2,0,0,1,.14.87c0,.37,0,.77,0,1.22a11.85,11.85,0,0,0,0,1.44,6.17,6.17,0,0,0,.29,1.53c.11.3.25.69.42,1.18s.36,1,.56,1.62.41,1.2.62,1.82.5,1.36.87,2.21c.26.58.51,1.12.75,1.6a12.71,12.71,0,0,0,.71,1.23,3.77,3.77,0,0,0,.62.76A.49.49,0,0,0,418,196.79Zm3.45-13.89a1.09,1.09,0,0,0,.07.3q0,.13.09.3a9.59,9.59,0,0,0,.3-1.87,2.63,2.63,0,0,0-.1-.91c-.06-.14-.13-.19-.22-.15s-.2.27-.27.68A4.61,4.61,0,0,0,421.44,182.9Z" transform="translate(-62.17 -7.05)" fill="#002dfb"/><path d="M445.1,179.29a.66.66,0,0,1-.24.21.39.39,0,0,1-.4,0,1,1,0,0,1-.31-.42,1.82,1.82,0,0,1-.13-.7,1.36,1.36,0,0,1,.31-.82l5.88-8.1a23.24,23.24,0,0,1,2.53-2.86,31.67,31.67,0,0,1,6.19-4.59,34.58,34.58,0,0,1,3.14-1.6,12,12,0,0,1,1.67-.59,6.05,6.05,0,0,1,1.44-.25,2.74,2.74,0,0,1,1.08.13,1.07,1.07,0,0,1,.61.55.53.53,0,0,1,0,.52,1.79,1.79,0,0,1-.42.4l-.56.35a1,1,0,0,0-.42.35c.07.39.13.9.19,1.54s.13,1.3.19,2,.12,1.28.17,1.81.08.84.09.91c.06.67.15,1.53.25,2.59s.29,2.43.56,4.12a4.33,4.33,0,0,0,.38-.46c.23-.3.54-.69.91-1.18s.79-1,1.25-1.68l1.46-1.95,3.76-5.28a1.17,1.17,0,0,1,.44-.39.47.47,0,0,1,.43,0,.67.67,0,0,1,.31.35,1.59,1.59,0,0,1,.07.79,2.21,2.21,0,0,1-.47,1L467,177.65a4.17,4.17,0,0,1-.64.71,2.63,2.63,0,0,1-.63.4,1.39,1.39,0,0,1-.81.13,1.6,1.6,0,0,1-.73-.3,3.16,3.16,0,0,1-.62-.64,4.22,4.22,0,0,1-.5-.86,6.2,6.2,0,0,1-.36-1.13,7.92,7.92,0,0,1-.17-1.16,10.66,10.66,0,0,1-.54,2.74,10,10,0,0,1-1.11,2.27,8.16,8.16,0,0,1-1.54,1.75,7,7,0,0,1-1.81,1.14,5.79,5.79,0,0,1-1.92.49,4.63,4.63,0,0,1-1.86-.23,4.35,4.35,0,0,1-1.64-1,5.68,5.68,0,0,1-1.25-1.86,11.32,11.32,0,0,1-.54-1.59c-.15-.6-.28-1.22-.38-1.86s-.18-1.28-.23-1.92-.07-1.24-.06-1.79Zm15.95-16.44a10.43,10.43,0,0,0-3,2,14.34,14.34,0,0,0-2.24,2.81,15.42,15.42,0,0,0-1.47,3.23,17.25,17.25,0,0,0-.75,3.31,13.7,13.7,0,0,0-.07,3.05,7.63,7.63,0,0,0,.56,2.43,3.29,3.29,0,0,0,1.26,1.57,2,2,0,0,0,1.88,0,3.59,3.59,0,0,0,1.23-1,9.85,9.85,0,0,0,1.08-1.73,17.71,17.71,0,0,0,.89-2.16,23.68,23.68,0,0,0,.67-2.3,18.64,18.64,0,0,0,.4-2.15,8.11,8.11,0,0,0,.08-1.71Z" transform="translate(-62.17 -7.05)" fill="#002dfb"/><path d="M485.5,159.56l8.17-12.08.06-.32a4.26,4.26,0,0,1,.23-.76c.11-.31.27-.67.46-1.07a6.94,6.94,0,0,1,.73-1.19,7.68,7.68,0,0,1,1.09-1.13,6.29,6.29,0,0,1,1.52-.93,16,16,0,0,1,2.74-.9,8.78,8.78,0,0,1,3-.22,6.17,6.17,0,0,1,2.76,1,5.94,5.94,0,0,1,2.1,2.69,5.54,5.54,0,0,1,.39,2.19,13.38,13.38,0,0,1-.34,2.88,22.86,22.86,0,0,1-1,3.3,27.83,27.83,0,0,1-1.67,3.44l5.94-8.31a.75.75,0,0,1,.29-.2.49.49,0,0,1,.44,0,.69.69,0,0,1,.33.36,1.41,1.41,0,0,1,.08.73,1.93,1.93,0,0,1-.37.87q-2,2.73-3.57,4.76c-1.08,1.36-2.07,2.53-3,3.52a31.89,31.89,0,0,1-2.59,2.54,25,25,0,0,1-2.35,1.82,21,21,0,0,1-2.3,1.34c-.76.39-1.56.76-2.4,1.13,0,1.53-.08,3.08-.18,4.64s-.19,3.07-.27,4.54-.15,2.86-.19,4.2a30.69,30.69,0,0,0,.06,3.64,3.52,3.52,0,0,1,0,.64,5.55,5.55,0,0,1-.13.87,4.37,4.37,0,0,1-.29.82,1,1,0,0,1-.46.5,4.45,4.45,0,0,1-.78.24,4,4,0,0,1-.84.07,2,2,0,0,1-.72-.14.84.84,0,0,1-.44-.43c0-.09-.05-.14,0-.16a17,17,0,0,1-.35-3.31c0-1.34,0-2.82.06-4.46s.16-3.38.3-5.23.26-3.73.39-5.63.25-3.78.34-5.64.13-3.63.13-5.31a3.87,3.87,0,0,1,.06-.81c.05-.3.1-.6.16-.9s.13-.61.21-.89.14-.55.2-.77c-.19.23-.51.67-1,1.32l-1.66,2.33-2.14,3c-.77,1.08-1.56,2.15-2.36,3.23a.49.49,0,0,1-.2.16.63.63,0,0,1-.52,0,.8.8,0,0,1-.41-.42,1.14,1.14,0,0,1-.05-.63A2.18,2.18,0,0,1,485.5,159.56ZM500.31,144a3.93,3.93,0,0,0-1.89,2.19,17.81,17.81,0,0,0-1.19,4.18,47.57,47.57,0,0,0-.58,5.62q-.16,3.12-.12,6.51A12,12,0,0,0,499,161a16.27,16.27,0,0,0,2.38-2.26,19.06,19.06,0,0,0,2-2.76,14.88,14.88,0,0,0,1.39-3,10.61,10.61,0,0,0,.51-3.12,7.23,7.23,0,0,0-.59-2.95,9.54,9.54,0,0,0-.87-1.57,4.26,4.26,0,0,0-1-1,2.54,2.54,0,0,0-1.18-.46A2.66,2.66,0,0,0,500.31,144Z" transform="translate(-62.17 -7.05)" fill="#002dfb"/><path d="M511.48,150.23a.75.75,0,0,1-.24.21.38.38,0,0,1-.4-.05,1,1,0,0,1-.31-.41,1.68,1.68,0,0,1-.13-.7,1.41,1.41,0,0,1,.3-.82l5.89-8.1a22.53,22.53,0,0,1,2.53-2.86,31,31,0,0,1,3-2.51,33.44,33.44,0,0,1,6.34-3.68,13,13,0,0,1,1.67-.6,7,7,0,0,1,1.44-.25,3,3,0,0,1,1.08.14,1,1,0,0,1,.6.55.51.51,0,0,1,0,.52,1.79,1.79,0,0,1-.42.4,5.36,5.36,0,0,1-.57.34,1.23,1.23,0,0,0-.41.35c.07.39.13.91.19,1.55s.12,1.3.19,2,.12,1.27.17,1.81.08.84.09.91q.09,1,.24,2.58c.1,1.06.29,2.44.57,4.13,0,0,.14-.16.37-.46s.54-.7.91-1.18l1.26-1.68c.47-.64,1-1.29,1.46-1.95l3.76-5.28a1.17,1.17,0,0,1,.44-.39.47.47,0,0,1,.43,0,.67.67,0,0,1,.3.34,1.53,1.53,0,0,1,.07.8,2.13,2.13,0,0,1-.46,1l-8.44,11.64a3.55,3.55,0,0,1-.64.72,2.59,2.59,0,0,1-.62.4,1.5,1.5,0,0,1-.81.13,1.72,1.72,0,0,1-.73-.3,2.91,2.91,0,0,1-.62-.64,4.59,4.59,0,0,1-.5-.87,5.42,5.42,0,0,1-.36-1.12,8,8,0,0,1-.18-1.16,10.25,10.25,0,0,1-.53,2.74,10.67,10.67,0,0,1-1.12,2.27,8.34,8.34,0,0,1-1.53,1.74,7.25,7.25,0,0,1-1.81,1.15,5.91,5.91,0,0,1-1.92.49,4.7,4.7,0,0,1-1.87-.23,4.54,4.54,0,0,1-1.64-1,5.66,5.66,0,0,1-1.24-1.85,9.23,9.23,0,0,1-.54-1.59c-.16-.6-.28-1.22-.39-1.87s-.17-1.28-.22-1.91-.07-1.24-.07-1.79Zm15.95-16.44a10.17,10.17,0,0,0-3,2,13.7,13.7,0,0,0-2.24,2.81,15.46,15.46,0,0,0-1.48,3.23,18.9,18.9,0,0,0-.75,3.31,15,15,0,0,0-.07,3.05,7.9,7.9,0,0,0,.57,2.43,3.29,3.29,0,0,0,1.26,1.57,2,2,0,0,0,1.87,0,3.35,3.35,0,0,0,1.23-1,9.17,9.17,0,0,0,1.09-1.73,16.48,16.48,0,0,0,.89-2.16,23.51,23.51,0,0,0,.67-2.29,19,19,0,0,0,.4-2.15,8.92,8.92,0,0,0,.08-1.72Z" transform="translate(-62.17 -7.05)" fill="#002dfb"/><path d="M561.51,116.23c.44,0,.71.14.81.38a1.6,1.6,0,0,1,0,1.2,4.56,4.56,0,0,1-.72,1.32,9.89,9.89,0,0,1-1.23,1.31c-.48.43-1,.83-1.47,1.21s-1,.7-1.48,1a8.77,8.77,0,0,1-1.24.64c-1.09.45-2.17.89-3.23,1.34l-3.08,1.3,1.05,4.88c.29,1.35.54,2.52.74,3.51a17.33,17.33,0,0,0,.58,2.21c.18.49.36.95.56,1.39a1.17,1.17,0,0,0,.38.53.53.53,0,0,0,.52,0,5.34,5.34,0,0,0,2-1.71,35.56,35.56,0,0,0,2.07-3l2.49-3.94a28,28,0,0,1,3.22-4.44l.35-.38a1.12,1.12,0,0,1,.29-.21.46.46,0,0,1,.68.29,1.51,1.51,0,0,1,0,.87,3.66,3.66,0,0,1-.59,1.2q-2.4,3.39-3.47,5.17l-2.49,4.24a27,27,0,0,1-2.16,3.13,6.57,6.57,0,0,1-2.45,1.89,2.77,2.77,0,0,1-2.14.17,4.37,4.37,0,0,1-1.64-1.16,8.87,8.87,0,0,1-1.25-1.84c-.35-.69-.65-1.32-.9-1.88a21.6,21.6,0,0,1-1.12-3.29c-.28-1.13-.55-2.23-.82-3.28l-2.43,3.55-2.55,3.52a.47.47,0,0,1-.2.17.72.72,0,0,1-.54,0,.68.68,0,0,1-.43-.4,1.12,1.12,0,0,1,0-.62,2.3,2.3,0,0,1,.44-.9l2.83-3.8q1.34-1.84,2.4-3.61l-.05-.2-2.7,1.26a3.73,3.73,0,0,0-.4.2l-.35.18a.81.81,0,0,1-.68,0,1,1,0,0,1-.49-.38c-.07-.16,0-.36.17-.61a4.49,4.49,0,0,1,.85-.83,17.1,17.1,0,0,1,1.42-1c.57-.38,1.21-.77,1.92-1.18a50.93,50.93,0,0,1-.28-8.18,21.58,21.58,0,0,1,1.22-6.35,13.34,13.34,0,0,1,2.91-4.68,14.93,14.93,0,0,1,4.78-3.22,3.42,3.42,0,0,1,2-.38,1.51,1.51,0,0,1,1.1.94,5.42,5.42,0,0,1,.19,2.86,24.6,24.6,0,0,1-1.1,4.31,55.08,55.08,0,0,1-2.23,5.42c-.92,2-2,4-3.19,6.21.87-.49,1.76-1,2.67-1.45l2.66-1.44c.88-.47,1.73-.94,2.55-1.4l2.36-1.36a.72.72,0,0,0,.25-.33.54.54,0,0,1,.31-.28A1.09,1.09,0,0,1,561.51,116.23Zm-7.62-11.65a5.72,5.72,0,0,0-2.08,1.52,9,9,0,0,0-1.44,2.3,13.77,13.77,0,0,0-.88,2.93,27.27,27.27,0,0,0-.43,3.36,35.93,35.93,0,0,0-.06,3.61c0,1.24.13,2.46.25,3.68q2-3.33,3.33-6.14t2.15-5a19.59,19.59,0,0,0,1-3.68,4.48,4.48,0,0,0-.11-2.25,1.06,1.06,0,0,0-.57-.57A1.74,1.74,0,0,0,553.89,104.58Z" transform="translate(-62.17 -7.05)" fill="#002dfb"/><path d="M569.62,129.67c-.21-.48-.42-1-.62-1.62s-.4-1.23-.6-1.9-.39-1.34-.55-2-.33-1.39-.48-2.07l-4,5.47a.87.87,0,0,1-.41.35.65.65,0,0,1-.51,0,.62.62,0,0,1-.37-.34,1.29,1.29,0,0,1,0-.74,3.41,3.41,0,0,1,.54-1.06l4-5.9c-.06-.76-.12-1.78-.18-3.08s-.07-2.75,0-4.37.13-3.37.3-5.24a50.54,50.54,0,0,1,.83-5.7,44.43,44.43,0,0,1,1.56-5.72,28.54,28.54,0,0,1,2.46-5.31A21.18,21.18,0,0,1,575.18,86a16.63,16.63,0,0,1,4.9-3.23,24.8,24.8,0,0,1,4.22-1.46,11.09,11.09,0,0,1,3.27-.33,4.91,4.91,0,0,1,2.29.64,3.23,3.23,0,0,1,1.31,1.48,5.55,5.55,0,0,1,.09,3.64,15,15,0,0,1-2.37,4.79L571.32,117l2.31,8.77,1.59-2.29q.79-1.14,1.5-2.19l1.27-1.91c.38-.58.68-1.07.9-1.45a6.76,6.76,0,0,1,.41-.77,6.54,6.54,0,0,1,.67-.9,10.76,10.76,0,0,1,.9-.88,4.76,4.76,0,0,1,1.12-.69,4.27,4.27,0,0,1,.94-.29,1.79,1.79,0,0,1,1,.08,2.77,2.77,0,0,1,1,.73,5.54,5.54,0,0,1,1,1.63l2.41,5.5.59-.83,1.05-1.46,1.35-1.87,1.49-2,3.83-5.31a1.73,1.73,0,0,1,.65-.59.48.48,0,0,1,.71.28,1.36,1.36,0,0,1,0,.86,3.5,3.5,0,0,1-.62,1.22l-3.33,4.61c-1.06,1.46-2,2.78-2.9,3.94s-1.62,2.12-2.25,2.88a8.23,8.23,0,0,1-1.41,1.44c-.14.09-.29.19-.46.28s-.33.17-.5.24a3.52,3.52,0,0,1-1.34.34,1.94,1.94,0,0,1-1-.22,2.2,2.2,0,0,1-.72-.64,5.36,5.36,0,0,1-.51-.92,3.23,3.23,0,0,1-.27-1.11,7.78,7.78,0,0,0-.26-1.33L581,117.21c-1.49,2.45-2.86,4.65-4.13,6.59-.41.77-.82,1.52-1.23,2.24s-.79,1.37-1.14,1.95-.66,1-.94,1.41a2.46,2.46,0,0,1-.61.64c-.27.12-.57.23-.9.34a3.23,3.23,0,0,1-.95.17,1.77,1.77,0,0,1-.86-.18A1.29,1.29,0,0,1,569.62,129.67Zm.88-15.56c1.26-2,2.58-4.06,4-6.19s2.76-4.27,4.19-6.41,2.86-4.24,4.3-6.32,2.85-4.06,4.24-5.94a16.17,16.17,0,0,0,1.5-3.35,3.34,3.34,0,0,0,.05-2.27c-.31-.71-1.1-1-2.36-1A16.51,16.51,0,0,0,581,84.27a9.68,9.68,0,0,0-3,2.06,17.53,17.53,0,0,0-2.48,3.14,24.92,24.92,0,0,0-2,3.9,38.61,38.61,0,0,0-1.46,4.37c-.41,1.5-.75,3-1,4.54s-.45,3-.58,4.44a38.25,38.25,0,0,0-.17,4A26.72,26.72,0,0,0,570.5,114.11Z" transform="translate(-62.17 -7.05)" fill="#002dfb"/><path d="M602.6,122.78a3.88,3.88,0,0,0,1.11-.31,4.37,4.37,0,0,0,2.11-2,10,10,0,0,0,1-3.16,5.25,5.25,0,0,1-1.9.38,3.77,3.77,0,0,1-1.51-.29,3.5,3.5,0,0,1-1.83-1.8,4.86,4.86,0,0,1-.4-1.93,6.05,6.05,0,0,1,1.26-3.87,4,4,0,0,1,1.57-1.24,4.69,4.69,0,0,1,1.55-.37,4.94,4.94,0,0,1,1.59.14,4.09,4.09,0,0,1,1.39.68,3.07,3.07,0,0,1,.94,1.2,7.74,7.74,0,0,1,.56,2.12,11.18,11.18,0,0,1,0,2.46,13,13,0,0,1-.48,2.57,12.26,12.26,0,0,1-1,2.45,9.72,9.72,0,0,1-1.52,2.1,6.16,6.16,0,0,1-2.05,1.46,8.94,8.94,0,0,1-2.24.59Z" transform="translate(-62.17 -7.05)" fill="#002dfb"/><path d="M307.37,310.19a1.64,1.64,0,0,1,.4-.3,1.09,1.09,0,0,1,.61-.09.55.55,0,0,1,.44.32c.08.2,0,.57-.29,1.1a16.93,16.93,0,0,1-1.06,1.8c-.44.67-.9,1.34-1.38,2s-.9,1.26-1.24,1.75c-.45.68-.93,1.48-1.46,2.4s-1.09,1.83-1.68,2.73a23.39,23.39,0,0,1-1.85,2.45,5.52,5.52,0,0,1-1.93,1.51,2.12,2.12,0,0,1-1.76,0,3.13,3.13,0,0,1-1.5-1.77,9.38,9.38,0,0,1-.59-2.05,19.19,19.19,0,0,1-.27-2.94c0-1.36-.07-2.55-.11-3.57s-.07-1.9-.11-2.62-.1-1.31-.16-1.76a3.83,3.83,0,0,0-.24-1c-.21-.48-.5-.64-.85-.49a3.29,3.29,0,0,0-1.19,1.34,22.84,22.84,0,0,0-1.35,2.75c-.46,1.09-.91,2.31-1.35,3.65s-.82,2.7-1.15,4.07-.59,2.69-.78,4a19,19,0,0,0-.24,3.35,1.17,1.17,0,0,1-.13.57,2.9,2.9,0,0,1-.38.61,3.62,3.62,0,0,1-.55.56,2.84,2.84,0,0,1-.66.4,1.71,1.71,0,0,1-1.15.1,1.52,1.52,0,0,1-.94-1,5.9,5.9,0,0,1-.42-1.67c-.07-.67-.14-1.29-.2-1.89-.13-.95-.24-1.92-.35-2.91s-.19-1.89-.26-2.71-.15-1.89-.21-2.81c0-.26.07-.55.12-.87a7.11,7.11,0,0,0,.06-.92,6.19,6.19,0,0,0,0-.87,2.72,2.72,0,0,0-.17-.72c-.16-.35-.4-.46-.72-.31a5.35,5.35,0,0,0-2,1.71,19.86,19.86,0,0,0-1.86,3,37.59,37.59,0,0,0-1.62,3.76c-.49,1.34-.91,2.67-1.25,4a32.71,32.71,0,0,0-.77,3.64,12.26,12.26,0,0,0-.17,2.75c0,.44.07.82.09,1.15a3.9,3.9,0,0,1,0,.87,1.4,1.4,0,0,1-.29.63,1.73,1.73,0,0,1-.66.45,1.43,1.43,0,0,1-1.43,0,2.82,2.82,0,0,1-.88-1.17,5.42,5.42,0,0,1-.27-1.21c-.08-.56-.14-1.21-.19-2s-.09-1.57-.14-2.45-.09-1.75-.13-2.63-.07-1.74-.11-2.56-.09-1.55-.14-2.18l-7.68,10.54a1.36,1.36,0,0,1-.47.38.67.67,0,0,1-.5,0,.5.5,0,0,1-.36-.32,1.24,1.24,0,0,1,0-.75A3,3,0,0,1,260,331l5.67-7.77a7,7,0,0,1,.46-.71,8.42,8.42,0,0,1,.62-.72,6.4,6.4,0,0,1,.73-.65,4.35,4.35,0,0,1,.8-.48,1.82,1.82,0,0,1,.94-.14,2.6,2.6,0,0,1,.87.27,2.55,2.55,0,0,1,.71.56,2.57,2.57,0,0,1,.48.7,5.41,5.41,0,0,1,.27.77,9.52,9.52,0,0,1,.19,1c0,.41.09.91.14,1.51s.09,1.38.15,2.33c.2-.89.42-1.81.66-2.77s.5-1.92.81-2.87a29.39,29.39,0,0,1,1.08-2.83,16,16,0,0,1,1.47-2.6,12,12,0,0,1,2-2.19,9.83,9.83,0,0,1,2.53-1.61,2.24,2.24,0,0,1,.94-.16,2.4,2.4,0,0,1,1,.31,3.87,3.87,0,0,1,1,.88,6.32,6.32,0,0,1,.9,1.49,12.1,12.1,0,0,1,.73,2.52,19.63,19.63,0,0,1,.28,3.51,26.27,26.27,0,0,1,1.43-5.05,23.45,23.45,0,0,1,1.92-3.79,15.48,15.48,0,0,1,2.12-2.71,18.52,18.52,0,0,1,2-1.82,5.29,5.29,0,0,1,1.33-.38,4.52,4.52,0,0,1,1.42,0,3.27,3.27,0,0,1,1.25.47,2.23,2.23,0,0,1,.88,1.05,3.12,3.12,0,0,1,.15.39,2.63,2.63,0,0,1,.09.44,18.58,18.58,0,0,1,.14,2.22c0,.81,0,1.65-.05,2.5s-.08,1.7-.14,2.54-.1,1.62-.12,2.34,0,1.36,0,1.92a3.4,3.4,0,0,0,.21,1.22c.15.34.35.46.61.34a2.5,2.5,0,0,0,.81-.83c.32-.46.69-1,1.09-1.68s.84-1.37,1.31-2.15,1-1.53,1.45-2.26Z" transform="translate(-62.17 -7.05)" fill="#002dfb"/><path d="M307.24,312.34a.75.75,0,0,1-.24.21.38.38,0,0,1-.4,0,1,1,0,0,1-.31-.42,1.82,1.82,0,0,1-.13-.7,1.36,1.36,0,0,1,.31-.82l5.88-8.1a23.24,23.24,0,0,1,2.53-2.86,31,31,0,0,1,3-2.51,33,33,0,0,1,3.2-2.09,32,32,0,0,1,3.14-1.59,13,13,0,0,1,1.67-.6,6.53,6.53,0,0,1,1.44-.24,2.76,2.76,0,0,1,1.08.13,1.07,1.07,0,0,1,.61.55.53.53,0,0,1,0,.52,1.79,1.79,0,0,1-.42.4l-.56.35a1.07,1.07,0,0,0-.42.34c.07.4.13.91.19,1.55s.13,1.3.19,2,.12,1.28.17,1.81.08.84.09.91c.06.67.14,1.53.24,2.59s.29,2.43.57,4.12c0,0,.14-.16.38-.46l.91-1.18,1.25-1.68c.47-.64,1-1.29,1.46-1.95l3.76-5.28a1.17,1.17,0,0,1,.44-.39.47.47,0,0,1,.43,0,.74.74,0,0,1,.31.34,1.55,1.55,0,0,1,.06.8,2.13,2.13,0,0,1-.46,1l-8.43,11.65a4.59,4.59,0,0,1-.64.71,2.84,2.84,0,0,1-.63.4,1.4,1.4,0,0,1-.81.13,1.6,1.6,0,0,1-.73-.3,3.16,3.16,0,0,1-.62-.64,4.51,4.51,0,0,1-.5-.86,6.2,6.2,0,0,1-.36-1.13,6.77,6.77,0,0,1-.17-1.16,10.66,10.66,0,0,1-.54,2.74,10.44,10.44,0,0,1-1.12,2.27,8.12,8.12,0,0,1-1.53,1.75,7.5,7.5,0,0,1-1.81,1.14,5.79,5.79,0,0,1-1.92.49,4.7,4.7,0,0,1-1.87-.23,4.42,4.42,0,0,1-1.63-1,5.52,5.52,0,0,1-1.25-1.85,10.17,10.17,0,0,1-.54-1.59,18,18,0,0,1-.38-1.86c-.1-.65-.18-1.28-.23-1.92s-.07-1.24-.06-1.79Zm15.95-16.44a10.3,10.3,0,0,0-3,2,14,14,0,0,0-2.24,2.81,14.93,14.93,0,0,0-1.47,3.23,17.25,17.25,0,0,0-.75,3.31,14.36,14.36,0,0,0-.08,3.05,7.9,7.9,0,0,0,.57,2.43,3.29,3.29,0,0,0,1.26,1.57,2,2,0,0,0,1.87,0,3.41,3.41,0,0,0,1.23-1,9.09,9.09,0,0,0,1.09-1.74,16.48,16.48,0,0,0,.89-2.16,22.72,22.72,0,0,0,.67-2.29,18.64,18.64,0,0,0,.4-2.15,8.11,8.11,0,0,0,.08-1.71Z" transform="translate(-62.17 -7.05)" fill="#002dfb"/><path d="M357.87,279.32c-.17-.38-.51-.46-1-.23a5.65,5.65,0,0,0-1.81,1.58,24,24,0,0,0-2.17,3.09,40.51,40.51,0,0,0-2.15,4.13,38.93,38.93,0,0,0-1.77,4.69,28.58,28.58,0,0,0-1,4.78,13.71,13.71,0,0,0,.12,4.41,1.06,1.06,0,0,1-.14.75,2.75,2.75,0,0,1-.56.78,4.54,4.54,0,0,1-.79.66,2.56,2.56,0,0,1-.86.35,1.33,1.33,0,0,1-.75-.09.92.92,0,0,1-.45-.7,8.4,8.4,0,0,0-.25-1.21c-.17-.7-.42-2-.76-3.78l-1.29-6.88-5.66,7.89a1,1,0,0,1-.43.37.62.62,0,0,1-.48,0,.59.59,0,0,1-.34-.35,1.26,1.26,0,0,1,0-.76,2.93,2.93,0,0,1,.51-1.05l5.77-8q-.69-4.75-1-8.76a28.1,28.1,0,0,1,.32-7.18,13.21,13.21,0,0,1,2.35-5.52,12.35,12.35,0,0,1,5.09-3.81,5.42,5.42,0,0,1,3.12-.61,2.17,2.17,0,0,1,1.6,1.32,5.5,5.5,0,0,1,.35,2.54,18.23,18.23,0,0,1-.54,3.45,40.13,40.13,0,0,1-1.24,4c-.52,1.41-1.09,2.81-1.73,4.21s-1.31,2.74-2,4-1.43,2.47-2.14,3.51l1.84,10.37a17.53,17.53,0,0,1-.24-4.2,20.32,20.32,0,0,1,.76-4.07,21.08,21.08,0,0,1,1.47-3.74,21.73,21.73,0,0,1,2-3.2,16.51,16.51,0,0,1,2.29-2.46,9.79,9.79,0,0,1,2.37-1.55,4.63,4.63,0,0,1,1.42-.38,2.91,2.91,0,0,1,1.29.17,3.2,3.2,0,0,1,1.14.77,4.83,4.83,0,0,1,.91,1.42,1.91,1.91,0,0,1-.11,1.4,10,10,0,0,1-1,1.9,22.93,22.93,0,0,1-1.48,2.07c-.56.71-1.08,1.34-1.58,1.92a4.41,4.41,0,0,1,1.64.8,3.31,3.31,0,0,1,1,1.28,4.28,4.28,0,0,1,.13,2.58,21.71,21.71,0,0,1-1.09,3.46l.74-1.06,1.05-1.5,1.29-1.82,1.42-1.94,3.48-4.85a.7.7,0,0,1,.29-.22.66.66,0,0,1,.5,0,.64.64,0,0,1,.39.38,1.22,1.22,0,0,1,.05.68,2.38,2.38,0,0,1-.45.95l-4.3,6-1.63,2.32-1.4,2.08-1.18,1.64c-.34.47-.58.78-.71.94a2.36,2.36,0,0,1-.34.36.79.79,0,0,1-.35.22,2.88,2.88,0,0,1-2.09.28,1.76,1.76,0,0,1-1.14-1,1.28,1.28,0,0,1,0-1,4.65,4.65,0,0,1,.94-1.34l.84-1.92c.24-.6.45-1.13.61-1.59a10.69,10.69,0,0,0,.35-1.17,1.13,1.13,0,0,0,0-.71,1.36,1.36,0,0,0-.76-.84,2.9,2.9,0,0,0-.93-.12,6.42,6.42,0,0,1-.91-.06.93.93,0,0,1-.66-.63c-.11-.24,0-.61.24-1.1a15.54,15.54,0,0,1,1.07-1.71l1.16-1.9c.41-.69.79-1.37,1.15-2.05a9.64,9.64,0,0,0,.77-1.94A2.37,2.37,0,0,0,357.87,279.32Zm-13.15,5.91a26.74,26.74,0,0,0,1.92-3.23c.6-1.18,1.15-2.38,1.64-3.62s.91-2.47,1.28-3.7a35.33,35.33,0,0,0,.83-3.44,18.94,18.94,0,0,0,.31-2.86,5,5,0,0,0-.29-2,1.23,1.23,0,0,0-.65-.69,1.42,1.42,0,0,0-1.06.11,7.43,7.43,0,0,0-3.4,2.84,11.05,11.05,0,0,0-1.53,4.39,23.28,23.28,0,0,0-.07,5.63A60.92,60.92,0,0,0,344.72,285.23Z" transform="translate(-62.17 -7.05)" fill="#002dfb"/><path d="M366.49,286.53a.93.93,0,0,1-.42.36.73.73,0,0,1-.52,0,.65.65,0,0,1-.36-.35,1.27,1.27,0,0,1,0-.74,2.88,2.88,0,0,1,.55-1.1l4-5.56a11.39,11.39,0,0,1,.25-3.6,10.16,10.16,0,0,1,1.17-2.94A9.22,9.22,0,0,1,373,270.4a8.55,8.55,0,0,1,2.22-1.45,3.33,3.33,0,0,1,2.25-.23,2.59,2.59,0,0,1,1.64,1.62,3.48,3.48,0,0,1,.16,2,9.45,9.45,0,0,1-.83,2.47,15.24,15.24,0,0,1-1.68,2.67,19.28,19.28,0,0,1-2.35,2.54c.3.69.58,1.34.83,2s.49,1.21.73,1.75.4.88.59,1.25a4.34,4.34,0,0,0,.61.88,1.62,1.62,0,0,0,.66.46.94.94,0,0,0,.73-.06,3.21,3.21,0,0,0,1.24-1.12l1.6-2.19c.57-.8,1.3-1.82,2.2-3l3.3-4.48a.41.41,0,0,1,.21-.17.57.57,0,0,1,.51,0,.79.79,0,0,1,.4.42,1.26,1.26,0,0,1,.06.63,2,2,0,0,1-.4.86c-1,1.46-2,2.9-3,4.34s-1.85,2.77-2.72,4a32.74,32.74,0,0,1-2.49,3.15,7,7,0,0,1-2.31,1.81,2.66,2.66,0,0,1-2.85-.32,6.55,6.55,0,0,1-1.39-1.55,17.17,17.17,0,0,1-1.4-2.65l-.33-.84c-.14-.39-.29-.81-.43-1.27s-.27-.91-.39-1.36a4.78,4.78,0,0,1-.17-1.08c-.08.1-.18.25-.32.45s-.31.43-.5.7l-.6.83-.63.89Zm10.34-15a1.11,1.11,0,0,0-.08-.3,1.53,1.53,0,0,0-.53-.72.76.76,0,0,0-.72,0,2.56,2.56,0,0,0-1,.87,5.22,5.22,0,0,0-.77,1.66,8.38,8.38,0,0,0-.29,2.31,9.76,9.76,0,0,0,.45,2.8,15.54,15.54,0,0,0,1.25-1.8,16.88,16.88,0,0,0,1-1.86,9.44,9.44,0,0,0,.58-1.69A3.29,3.29,0,0,0,376.83,271.52Z" transform="translate(-62.17 -7.05)" fill="#002dfb"/><path d="M414.16,253.23a5.3,5.3,0,0,1,2.41-.48,5.06,5.06,0,0,1,2.19.61,6.41,6.41,0,0,1,1.86,1.51,8.88,8.88,0,0,1,1.39,2.22,10.59,10.59,0,0,1,.54,1.72,15.78,15.78,0,0,1,.3,2.05,16.53,16.53,0,0,1,0,2.23,13.65,13.65,0,0,1-.29,2.18l.75-1c.29-.38.6-.79.92-1.23l1-1.37c.35-.48.71-.95,1-1.4l2.46-3.38a.8.8,0,0,1,.36-.26.49.49,0,0,1,.72.29,1.9,1.9,0,0,1-.31,1.73c-.37.57-.85,1.29-1.45,2.16s-1.27,1.76-2,2.67a33.77,33.77,0,0,1-2.35,2.57,10.36,10.36,0,0,1-2.48,1.86,15.12,15.12,0,0,1-3,3.78,17.68,17.68,0,0,1-4.88,3.07,10.9,10.9,0,0,1-2.6.82,4.74,4.74,0,0,1-2-.05,3.24,3.24,0,0,1-1.43-.84,5.26,5.26,0,0,1-1-1.58,9.29,9.29,0,0,1-.72-3.15,21,21,0,0,1,0-3.63,27.54,27.54,0,0,1,.55-3.52A25.29,25.29,0,0,1,407,260a20.46,20.46,0,0,1-1.3,2.26c-.59.92-1.27,1.92-2,3s-1.59,2.23-2.46,3.42l-2.6,3.55a1.42,1.42,0,0,1-.42.31.58.58,0,0,1-.83-.32,1.11,1.11,0,0,1,0-.73,3.21,3.21,0,0,1,.51-1c1.61-2.2,3-4.08,4.1-5.66s2.1-2.92,2.93-4,1.57-2,2.23-2.79a17.88,17.88,0,0,1,2-1.93,14.63,14.63,0,0,1,2.19-1.46C412.1,254.17,413.06,253.71,414.16,253.23Zm-1.57,19.61a7.08,7.08,0,0,0,2.38-1.7,12.31,12.31,0,0,0,1.83-2.6,2,2,0,0,1-.7-.56,3.81,3.81,0,0,1-.46-.78,1.42,1.42,0,0,1,0-1.33,2,2,0,0,1,1-.88,2.82,2.82,0,0,1,1.59-.2,9.47,9.47,0,0,0,.79-1.73,10.23,10.23,0,0,0,.44-1.92,8.56,8.56,0,0,0,0-1.89,5.59,5.59,0,0,0-.42-1.69,3.88,3.88,0,0,0-.8-1.16,2.91,2.91,0,0,0-1.25-.7,4.45,4.45,0,0,0-1.74-.09,8.41,8.41,0,0,0-2.26.67,4.84,4.84,0,0,0-1.84,1.47,9.78,9.78,0,0,0-1.33,2.34A14.86,14.86,0,0,0,409,263a18.76,18.76,0,0,0-.35,3,16.85,16.85,0,0,0,.14,2.88,8.92,8.92,0,0,0,.62,2.36,3.39,3.39,0,0,0,1.28,1.58A2,2,0,0,0,412.59,272.84Z" transform="translate(-62.17 -7.05)" fill="#002dfb"/><path d="M451.49,241a6.65,6.65,0,0,0-1.83,1.34,22.75,22.75,0,0,0-2.11,2.43,34.22,34.22,0,0,0-2.19,3.2c-.73,1.19-1.41,2.42-2,3.72s-1.18,2.6-1.67,3.94a26.37,26.37,0,0,0-1.11,3.88.76.76,0,0,0,.1.52,3.07,3.07,0,0,1,.23.83,1.78,1.78,0,0,1-.14.93,1.82,1.82,0,0,1-1,.81,2.31,2.31,0,0,1-.92.25,1.15,1.15,0,0,1-.63-.14,1.24,1.24,0,0,1-.43-.45,4.61,4.61,0,0,1-.35-.67,5.28,5.28,0,0,1-.28-1.22c-.08-.56-.14-1.22-.2-2s-.11-1.57-.16-2.45-.09-1.76-.12-2.64-.09-1.73-.13-2.56-.11-1.56-.17-2.21L428.7,259.1l-.16.11-.12.07a.63.63,0,0,1-.5,0,.67.67,0,0,1-.32-.34,1.44,1.44,0,0,1-.06-.74,2.21,2.21,0,0,1,.39-.9l3.91-5.43,2.47-3.42,1.41-1.91.72-.94a2.55,2.55,0,0,1,.45-.47,2.27,2.27,0,0,1,.51-.29,1.62,1.62,0,0,1,1.17-.1,1.17,1.17,0,0,1,.74.62,4.27,4.27,0,0,1,.26,1.35c0,.6.06,1.26.06,2s0,1.47,0,2.23,0,1.45,0,2.07c0,.26,0,.46,0,.62s0,.33,0,.53,0,.45,0,.77,0,.75,0,1.31a32.64,32.64,0,0,1,1-3.33,37.94,37.94,0,0,1,1.54-3.61,36.1,36.1,0,0,1,2-3.61,26,26,0,0,1,2.49-3.35,21.14,21.14,0,0,1,2.94-2.82,15,15,0,0,1,3.35-2,2.17,2.17,0,0,1,1.68-.21,1.92,1.92,0,0,1,.95,1,7.45,7.45,0,0,1,.44,1.64,22.66,22.66,0,0,1,.24,2.27q.06,1.25.09,2.7c0,1,0,1.94,0,2.94s0,2,0,3,0,2,0,2.87a19.6,19.6,0,0,0,2-2.38q1-1.37,2-3c.71-1.1,1.46-2.26,2.25-3.51s1.64-2.55,2.57-3.91a.8.8,0,0,1,.36-.26c.34-.15.6,0,.77.35a1.4,1.4,0,0,1,.05.75,2.51,2.51,0,0,1-.41.93q-1.85,2.69-3.27,5c-.94,1.55-1.82,2.94-2.62,4.17a28.3,28.3,0,0,1-2.3,3.11,6.79,6.79,0,0,1-2.3,1.78,4.1,4.1,0,0,1-1.32.36,2.72,2.72,0,0,1-1.05-.11,2.08,2.08,0,0,1-.8-.5,2.57,2.57,0,0,1-.54-.8,2.63,2.63,0,0,1-.22-1.05,6.87,6.87,0,0,1,.11-1.29c0-1.16.06-2.38.14-3.68s.14-2.52.17-3.67,0-2.16,0-3a5.09,5.09,0,0,0-.23-1.8C451.81,241,451.67,240.92,451.49,241Z" transform="translate(-62.17 -7.05)" fill="#002dfb"/><path d="M465.31,243.26a.93.93,0,0,1-.42.36.68.68,0,0,1-.52,0,.62.62,0,0,1-.36-.35,1.27,1.27,0,0,1,0-.74,3,3,0,0,1,.55-1.1l4-5.56a11.39,11.39,0,0,1,.25-3.6,10.39,10.39,0,0,1,1.17-2.94,9.42,9.42,0,0,1,1.84-2.24,8.81,8.81,0,0,1,2.22-1.45,3.39,3.39,0,0,1,2.25-.23,2.64,2.64,0,0,1,1.64,1.62,3.5,3.5,0,0,1,.16,2,9.51,9.51,0,0,1-.83,2.46,15.24,15.24,0,0,1-1.68,2.67,18.67,18.67,0,0,1-2.35,2.54c.3.69.58,1.35.83,2s.49,1.21.73,1.76.4.87.59,1.24a4.74,4.74,0,0,0,.61.89,1.69,1.69,0,0,0,.66.45,1,1,0,0,0,.73-.05,3.33,3.33,0,0,0,1.24-1.13c.43-.57,1-1.3,1.6-2.19s1.3-1.82,2.2-3l3.3-4.48a.46.46,0,0,1,.21-.17.61.61,0,0,1,.51,0,.79.79,0,0,1,.4.42,1.26,1.26,0,0,1,.06.63,1.93,1.93,0,0,1-.4.86c-1,1.46-2,2.9-3,4.34s-1.85,2.77-2.72,4a37.36,37.36,0,0,1-2.49,3.15,7.26,7.26,0,0,1-2.31,1.81,3,3,0,0,1-1.45.26,2.83,2.83,0,0,1-1.4-.59,6.36,6.36,0,0,1-1.39-1.55,17.17,17.17,0,0,1-1.4-2.65l-.33-.84c-.15-.39-.29-.81-.43-1.27s-.27-.91-.39-1.36a4.71,4.71,0,0,1-.17-1.07c-.08.1-.18.25-.32.45l-.5.69-.6.84L467,241Zm10.34-15a1.11,1.11,0,0,0-.08-.3,1.44,1.44,0,0,0-.53-.71.76.76,0,0,0-.72,0,2.59,2.59,0,0,0-1,.88,5.26,5.26,0,0,0-.77,1.65,8.48,8.48,0,0,0-.29,2.31,9.76,9.76,0,0,0,.45,2.8,15.41,15.41,0,0,0,1.25-1.79,16.09,16.09,0,0,0,1-1.87,8.56,8.56,0,0,0,.59-1.69A3.29,3.29,0,0,0,475.65,228.25Z" transform="translate(-62.17 -7.05)" fill="#002dfb"/></svg>