<svg xmlns="http://www.w3.org/2000/svg" viewBox="0 0 812.52 639.13"><path d="M271,104.14c15.7,8.73,34.73,1,45.11-12.41,12.84-16.54,9.29-38.92-1.67-55.48S284.51,5.2,264,5c-9.18-.08-18.12,3.53-23.48,11.2-5.52,7.88-6.11,18.35-3.7,27.43,2.91,11,10.49,20,18.61,27.59,8.86,8.29,18.53,15.71,27.68,23.67,18.22,15.85,36.28,33.6,46.32,56,9.32,20.78,12.05,46.45.94,67.12-9.19,17.07-28.21,26.93-47.48,25.65-9.12-.6-18.13-4-24.6-10.61-7.87-8-10.72-19.24-12.91-29.89-2.15-10.46-3.78-21.3-8.91-30.82a42.5,42.5,0,0,0-20-18.48c-37.29-16.82-79,9.22-96.89,42-9.52,17.43-13.83,37.78-11,57.53,2.84,19.91,13.67,41.26,33.66,48.45,17.32,6.24,38.73.28,45.79-17.85,7.75-19.92-3.83-42.36-14.93-58.5a217,217,0,0,0-48-50.09c-17.45-13.19-37.36-25.08-59.24-28.74-18.76-3.13-39.41.9-50.18,18-10.45,16.63-7.5,38.88,1.25,55.55,8.94,17,26.21,30.94,45.41,34.19,17.14,2.9,34.81-4.3,42.33-20.52,6.72-14.48,5.11-32.61-3.3-46.08-9.37-15-26.94-21.66-44.15-19.73-18.16,2-35.48,12.57-45.08,28.22C-.06,216.07.19,241.57,7.82,262.92c8,22.31,23.89,40.85,41.62,56.12C68,335,88.82,348.25,110.26,360c44,24.07,91.21,41.73,134.92,66.33,38.63,21.74,75.77,49.8,100,87.53,12.39,19.28,19.66,40,24,62.43,2.24,11.52,4.49,23.32,10.07,33.79a55.23,55.23,0,0,0,19.59,20.84c17,10.62,38.13,12.79,57.73,13.16a657.11,657.11,0,0,0,67.58-2.61c43.85-3.73,89.4-13.37,123.82-42.56,19.6-16.63,33.63-38.4,49.74-58.16,15-18.38,33.09-36.69,56.43-43.69,19.89-6,43.48-3.19,58.25,12.45,1.36,1.44,3.53-.74,2.17-2.17-12.9-13.66-32.34-18.1-50.51-15.57-20.94,2.91-38.93,15.39-53.56,30.06-16.61,16.66-29.42,36.52-44.59,54.42-14.53,17.15-31.57,31.15-51.92,40.86-39.44,18.84-84.51,21.93-127.54,23.39-36.82,1.25-89.23,4.27-106.7-36.49-4.51-10.53-6.27-22-8.49-33.14a170.58,170.58,0,0,0-8.53-29.71,182,182,0,0,0-30.83-50.28c-27-31.75-62.33-55.57-99-74.7-42.05-21.92-86.43-39.14-127.72-62.54C84.78,342.08,65,329.06,47.6,313.33c-17.14-15.51-32.22-34.43-38.66-57C2.76,234.76,4.37,209,19.46,191.3c12-14.09,31.35-22.5,49.87-20.13,18,2.29,31.32,15.21,35.2,32.76,3.48,15.72-1,34.35-15.49,43-17.5,10.45-39.4,3.23-53.93-9C19.82,225,10.43,204.69,12.29,184.55c.93-10.13,5.19-19.75,13-26.46s17.65-9.38,27.61-9.49c21.12-.25,41,9.48,58.26,20.73a213.85,213.85,0,0,1,50.08,45.33c13,16.23,27.65,37.08,25.92,59-.83,10.47-6.65,19.87-16.27,24.38-8.63,4.06-19,4-27.88.77-20.85-7.54-30.76-31.52-32.1-52.11-2.53-39.09,23.17-80.62,61.53-91.87,17.63-5.18,39.56-4.12,53.64,9,16,14.9,13.47,38.84,21.28,57.72,6.36,15.33,20,24.46,36.47,25.23,15.9.74,32.66-5.89,43-18.12,12.65-14.93,15.65-35.76,12.7-54.58-3.35-21.27-14.31-40-28.32-56-15.15-17.33-33.51-31-50.64-46.26C252,64.15,243.4,55.25,240,43.94c-3-10-2-22.25,6.18-29.68,16.5-15,42.69-1,55.76,11.76,14.78,14.47,25.95,38.49,15.21,58.44-8.2,15.22-28.26,26.15-44.66,17-1.73-1-3.28,1.69-1.55,2.65Z" transform="translate(-2.46 -5.01)" fill="#dbb67c"/></svg>