<svg xmlns="http://www.w3.org/2000/svg" viewBox="0 0 1030.2 1182.45"><path d="M969.29,1118.14H30.82a10.66,10.66,0,1,1,0-21.32H969.29a10.66,10.66,0,0,1,0,21.32Z" fill="#1d1d1b"/><path d="M710.65,1012c-.11-2-.44,2,0,0Z" fill="#1d70b7" stroke="#1d1d1b" stroke-linecap="round" stroke-linejoin="round" stroke-width="21.49"/><path d="M785.4,981.34,763.73,964.5l-.62-.56c-7.16-6.18-18.14-4.58-23.65,3.11a250.77,250.77,0,0,1-26.21,31c-1.79,1.79-3.59,3.54-5.43,5.25a29.9,29.9,0,0,0-9.51,22.78l.23,7.79a50.26,50.26,0,0,1-6.51,26.52c-.72,1.24-4.7,5-10,9.73a19.73,19.73,0,0,0-2.37,27,19.43,19.43,0,0,0,26.27,3.65l18.12-10.9a55.72,55.72,0,0,0,17.31-16.38l47.11-69.29A16.45,16.45,0,0,0,785.4,981.34Z" fill="#1d70b7"/><polygon points="918.9 47.8 593.89 237.75 989.62 520.45 918.9 47.8" fill="#fff"/><path d="M725.11,644.81c-87.72-87.27-224.61-109-335.34-70.29,4,24.56,9.7,48.79,18.16,72.36,8.89,24.77,19.64,48.79,29.82,73-1.07.9-2.13,1.82-3.18,2.74l-.09.08c-1,.9-2,1.82-3,2.74l-.15.14c-1,.91-1.94,1.83-2.9,2.77l-.18.17c-.94.92-1.88,1.86-2.8,2.81l-.19.19q-1.38,1.42-2.73,2.88l-.18.19c-.9,1-1.79,2-2.67,3l-.16.18c-.89,1-1.77,2-2.64,3.08l-.09.12c-.9,1.07-1.78,2.15-2.65,3.25h0a167,167,0,0,0-18.35,28.65l-.24.47c-.55,1.09-1.08,2.19-1.61,3.29-.13.27-.25.55-.38.82-.46,1-.92,2-1.37,3-.15.35-.31.7-.46,1.06-.41.93-.81,1.86-1.2,2.8-.17.41-.33.83-.5,1.24-.36.89-.71,1.78-1.06,2.68-.18.46-.35.91-.52,1.37-.32.86-.64,1.73-.95,2.6l-.51,1.47c-.3.85-.58,1.7-.86,2.55-.17.52-.34,1-.5,1.56-.27.83-.52,1.67-.77,2.5-.17.55-.33,1.09-.49,1.64l-.69,2.48-.45,1.69c-.21.82-.42,1.64-.62,2.46l-.42,1.75c-.19.82-.37,1.64-.55,2.46-.13.6-.26,1.19-.38,1.78-.17.83-.33,1.65-.49,2.48-.11.6-.23,1.2-.34,1.8l-.42,2.51c-.1.6-.2,1.2-.29,1.81-.13.85-.25,1.71-.36,2.57-.08.59-.17,1.18-.24,1.78-.12.89-.21,1.79-.31,2.69-.06.56-.13,1.12-.19,1.69-.1,1-.18,2-.26,3,0,.47-.09.94-.12,1.41-.11,1.48-.2,3-.27,4.45h0c-.08,1.65-.13,3.29-.17,4.93,0,.19,0,.39,0,.58,0,1.54-.05,3.08-.05,4.62,0,.28,0,.57,0,.85,0,1.48,0,3,.07,4.43l0,1c0,1.44.1,2.89.18,4.32l.06,1c.08,1.43.17,2.86.29,4.28,0,.33,0,.65.08,1,.1,1.25.22,2.49.34,3.73.05.44.09.87.14,1.31.13,1.23.28,2.45.43,3.67l.18,1.41c.17,1.24.34,2.48.53,3.71.08.54.17,1.09.25,1.62.17,1.07.35,2.13.54,3.19v0c16.15,91.65,93.1,163.49,189.4,170,.79.06,1.59.1,2.38.14l1.87.11h0A199.3,199.3,0,0,0,726,998.05C823.3,900.26,822.9,742.11,725.11,644.81Z" fill="#c99d66"/><path d="M278.54,1037.3a20.45,20.45,0,0,1-.63-11.66,11.49,11.49,0,0,0-13.41-13.72l-.18,0-29,6.33c-12.73,2.56-21.08,2.16-32.15-3.66a17,17,0,0,0-15.92,30.07l40.35,21.48c4,2.12,35.9,20.26,61.8,34.17a16.87,16.87,0,0,0,22.3-5.92l15.77-25.22.14-.21c5.92-8.91-1.9-20.61-12.41-18.65C299,1053.37,283.89,1051.77,278.54,1037.3Z" fill="#1d70b7"/><path d="M377.94,840.75a167.64,167.64,0,0,1,59.81-120.82c-10.18-24.26-20.93-48.28-29.82-73-15.06-42-21.39-86-24.86-130.28-4.66-59.67-2.53-117.55,22.64-172.76,5.29-10.34,11-20.49,16.92-30.48,7-11.73,18-22.31,23.14-34.87,7.25-17.82-4-37.73-21.87-43.35-15-4.73-32.2,3-38.88,17.19-3.61,7.66-4,16.12-5.81,24.27Q376,290.91,371.85,305a556.22,556.22,0,0,1-50.57,118.66c-.36.62-.71,1.23-1.06,1.82-1.76,3-3.42,5.56-5,7.7,8.87-44.07,18.72-88.11,27-132.24,1.79-9.56,3.59-19,5.76-28.49,2.56-11.18,4.82-24.32-1.44-34.62a33.92,33.92,0,0,0-24.36-16.46,33.31,33.31,0,0,0-33,50.29c13.65,22.41,10.09,49.5,3,73.47-8.41,28.45-17.27,56.77-25.9,85.15-11.28,37.07-22.87,73.87-26.58,112.6a437.35,437.35,0,0,0,4,113.12A404.67,404.67,0,0,0,269,745.2c12.11,29.31,25.92,58.16,33.67,89,14.44,57.49,8,120-17.32,173.52-4.37,9.25-10.69,19.15-6.85,29.54,10.75,29.09,61.16,6.18,79.58-1.77a233.28,233.28,0,0,0,71.46-48.26A205.75,205.75,0,0,1,377.94,840.75Z" fill="#89aabc"/><path d="M1000.16,518.88,929.48,46.44v0l0-.18c0-.06,0-.11,0-.17a8.24,8.24,0,0,0-.21-1,3.37,3.37,0,0,0-.09-.34c-.08-.27-.18-.55-.28-.82-.05-.12-.09-.24-.14-.35-.12-.27-.25-.53-.39-.79,0-.1-.1-.21-.16-.31l0-.06a10.34,10.34,0,0,0-.62-1l-.08-.09c-.22-.29-.45-.57-.7-.84l-.21-.21c-.22-.22-.44-.43-.67-.63l-.26-.21a7,7,0,0,0-.76-.55,1.88,1.88,0,0,0-.23-.16,10.31,10.31,0,0,0-2.17-1l-.36-.12c-.26-.08-.53-.15-.79-.21l-.4-.09-.88-.12-.29,0a9.61,9.61,0,0,0-1.2,0h-.14a9.32,9.32,0,0,0-1.05.1l-.31.06c-.29.05-.58.12-.87.2l-.34.09a8.64,8.64,0,0,0-.85.31c-.1,0-.21.07-.31.12a9.27,9.27,0,0,0-1.09.55l-325,190h0L430.6,320.84l1.2-2a137.61,137.61,0,0,1,9-12.72c5.53-7.24,11.25-14.73,14.85-23.57a41.36,41.36,0,0,0-1.1-33.47A45.59,45.59,0,0,0,427.11,225c-20-6.31-42.75,3.7-51.74,22.81-3.12,6.62-4.25,13.42-5.25,19.42-.42,2.48-.81,4.82-1.31,7.06-2.08,9.26-4.49,18.57-7.18,27.69a552.06,552.06,0,0,1-19.84,55.84c3.78-18.23,7.5-36.66,10.91-54.94,1.67-8.92,3.48-18.45,5.68-28.07,3.28-14.35,5.22-29.44-2.73-42.52a44.62,44.62,0,0,0-32-21.49,44,44,0,0,0-43.54,66.4c9.68,15.89,10.28,36.51,1.89,64.9-5.59,18.91-11.49,38.11-17.19,56.68q-3.56,11.57-7.08,23.14l-80.12,46.82a10.66,10.66,0,0,0,10.76,18.41l60.26-35.22c-8.63,29-16.53,58.94-19.5,89.92a447.33,447.33,0,0,0,4.09,115.89,414.06,414.06,0,0,0,26,91.55c2.62,6.35,5.36,12.76,8,19,9.49,22.21,19.3,45.18,25.19,68.62a245.37,245.37,0,0,1,6,84.57,249.53,249.53,0,0,1-22.47,81.53,22,22,0,0,0-13.59-1.53l-.18,0H262l-28.91,6.32c-11.17,2.24-16.77,1.64-24.93-2.66a27.76,27.76,0,0,0-26,49.06l40.35,21.49c1.1.58,5,2.78,10,5.57,12.54,7,33.54,18.79,51.77,28.58a27.67,27.67,0,0,0,36.49-9.7l15.66-25,.08-.13a22.74,22.74,0,0,0,2.51-20.18c8.21-2.92,15.7-6.16,21.56-8.71l1.73-.75a245.14,245.14,0,0,0,66.73-42.93A215.57,215.57,0,0,0,568.65,1067q7.8.57,15.69.57h.55a209.28,209.28,0,0,0,102.59-26.9,38.49,38.49,0,0,1-4.44,13.76c-.79.86-2.88,2.91-8.19,7.71a30.15,30.15,0,0,0,20,52.81,30,30,0,0,0,17-5.22L729.62,1099a66.92,66.92,0,0,0,20.66-19.54l47-69.13a27.34,27.34,0,0,0-5.28-37.5h0L771.62,957a260.22,260.22,0,0,0-39-319.77,304.2,304.2,0,0,0-82.08-58,337.58,337.58,0,0,0-94.61-29.49,353.81,353.81,0,0,0-157.49,10.68c-1.92-13.82-3.49-28.64-4.75-44.72-2.63-33.6-2.6-61,.1-86.08,2.87-26.68,8.8-50.72,18.05-73.2l181.46-106L983.42,529.13a10.67,10.67,0,0,0,16.74-10.25ZM285.15,405c5.72-18.61,11.63-37.87,17.25-56.88,10.08-34.1,8.74-60.94-4.12-82a22.65,22.65,0,0,1,19.32-34.4,23.77,23.77,0,0,1,3.14.21,23.44,23.44,0,0,1,16.69,11.43c4.2,6.92,2.29,17.42.16,26.71-2.28,10-4.14,19.77-5.85,28.91-5.12,27.46-11,55.4-16.64,82.42-.56,2.64-1.11,5.29-1.67,7.95L284.84,406C284.94,405.69,285.05,405.35,285.15,405Zm33.47,658.1c-.09.13-.18.27-.26.41l-15.77,25.21a6.15,6.15,0,0,1-8.11,2.16c-18.05-9.7-39-21.4-51.43-28.4-5.48-3.07-9.1-5.1-10.4-5.79l-40.35-21.49a6.27,6.27,0,0,1,5.87-11.08c14.41,7.59,25.7,7.42,39.26,4.69l.18,0,29-6.32.08,0a.49.49,0,0,1,.52.19.74.74,0,0,1,.23.75,31.25,31.25,0,0,0,1.06,17.63h0a31,31,0,0,0,21.43,19.7c7.58,2.14,16.5,2.21,27.28.19a1.29,1.29,0,0,1,1.46.65A1.21,1.21,0,0,1,318.62,1063.11Zm460.19-73.29a5.74,5.74,0,0,1,1.07,7.91l-.26.37-47.11,69.3a45.19,45.19,0,0,1-14,13.21l-18.12,10.91-.63.41A8.72,8.72,0,0,1,688,1090.3a9,9,0,0,1,1.23-12.21c8.86-8,10.79-10.11,12.07-12.34a60.93,60.93,0,0,0,7.94-32.2l-.21-6.85a214.16,214.16,0,0,0,24.49-21.13A262.36,262.36,0,0,0,759.68,975ZM552.61,570.87a316.34,316.34,0,0,1,88.63,27.61,282.64,282.64,0,0,1,76.35,53.89,239.1,239.1,0,0,1,.86,338.16,187.92,187.92,0,0,1-133.61,55.74h-.49q-4.22,0-8.43-.14a9.16,9.16,0,0,0-.93-.09,195.82,195.82,0,0,1-186.4-204.79A157.42,157.42,0,0,1,553.23,691.39a126.32,126.32,0,0,1,120.12,132A100.74,100.74,0,0,1,568,919.25a80,80,0,0,1-76.19-83.7,63.25,63.25,0,0,1,66.07-60.13,49.44,49.44,0,0,1,47.07,51.71,38.28,38.28,0,0,1-40,36.43,10.66,10.66,0,0,0-1,21.29,59.58,59.58,0,0,0,62.32-56.72,70.84,70.84,0,0,0-67.36-74,84.59,84.59,0,0,0-88.36,80.43,101.34,101.34,0,0,0,96.48,106c2,.1,3.91.14,5.86.14A122.07,122.07,0,0,0,694.64,824.35c3.82-81.24-59.17-150.44-140.41-154.26A177.45,177.45,0,0,0,442.16,703q-.95-2.25-1.91-4.5c-7.68-18-15.61-36.63-22.29-55.23a380,380,0,0,1-16.13-61.51C449.36,566.73,501.83,562.82,552.61,570.87ZM413.46,307.93c-6.62,11.16-12.26,21.32-17.24,31.06l-.21.43c-12.28,26.95-19.94,55.73-23.4,88-2.85,26.47-2.9,55.07-.16,90,4.3,54.95,12.15,96,25.44,133,6.89,19.18,14.95,38.1,22.75,56.39q2.14,5,4.3,10.13a177.55,177.55,0,0,0-57.65,123.25,215.51,215.51,0,0,0,47.64,146.19,223.59,223.59,0,0,1-61,39.3l-1.76.76c-7.6,3.3-23.17,10-37.18,13-.58.06-1.16.14-1.74.25-20.86,3.9-23.58-3.45-24.6-6.22h0a9.67,9.67,0,0,1-.21-5.67c.09-.42.16-.84.23-1.26a65.59,65.59,0,0,1,4.45-10.35c.66-1.34,1.32-2.66,1.94-4a270.93,270.93,0,0,0,24.53-88.76,266.4,266.4,0,0,0-6.51-91.9c-6.29-25.08-16.44-48.83-26.25-71.8-2.62-6.14-5.34-12.49-7.91-18.72a393.21,393.21,0,0,1-24.68-86.91,425.92,425.92,0,0,1-3.9-110.35c3.44-35.93,13.74-69.73,24.65-105.53l.68-2.24,31.95-18.68q-1.39,6.82-2.77,13.63a10.66,10.66,0,0,0,19.11,8.31c1.68-2.34,3.51-5.19,5.46-8.47.37-.63.75-1.28,1.13-1.95A569,569,0,0,0,382.07,308c2.83-9.56,5.36-19.34,7.54-29.05.63-2.82,1.09-5.56,1.54-8.22.84-5.09,1.65-9.9,3.51-13.85,4.47-9.49,16.15-14.68,26-11.56a24.55,24.55,0,0,1,14.56,12.8,20.17,20.17,0,0,1,.65,16.36c-2.53,6.21-7.15,12.27-12,18.68A155.37,155.37,0,0,0,413.46,307.93Zm200-69.28L787.65,136.86,910.69,65l64.66,432.22Z" fill="#1d1d1b"/><path d="M315.5,540.11c-14.29,0-31.53-4.82-49.67-20.62a10.66,10.66,0,1,1,14-16.07c15.8,13.76,32,18.32,48.15,13.53a52,52,0,0,0,19.79-11.09,10.66,10.66,0,0,1,15.1,15A72.24,72.24,0,0,1,334,537.39,65.11,65.11,0,0,1,315.5,540.11Z" fill="#1d1d1b"/></svg>