<svg xmlns="http://www.w3.org/2000/svg" viewBox="0 0 1004.83 1212.9"><path d="M512.32,819.9s139.29-141.7,282.45-92.68,96.5,104.24,31.91,104.42c-39.85.11-150.23-4.39-228.91-7.85C548.94,821.65,512.32,819.9,512.32,819.9Z" fill="#fff"/><path d="M512.32,821.42s-46.6-198.94,72.31-292.53,147.4-26.8,108.29,35C671.59,597.51,607.64,687.6,562,751.79,533.68,791.62,512.32,821.42,512.32,821.42Z" fill="#fff"/><polygon points="500.48 58.09 351.74 382.22 811.99 387.3 500.48 58.09" fill="#1d70b7"/><path d="M819.73,380,508.35,50.9l0,0-.1-.11c-.17-.18-.35-.35-.54-.52l-.21-.19c-.19-.17-.39-.33-.59-.48l-.12-.1c-.26-.18-.52-.35-.79-.51l-.15-.09a8.93,8.93,0,0,0-.87-.45l0,0-.05,0c-.32-.14-.63-.27-.95-.38h0c-.3-.11-.61-.19-.92-.27l-.2,0a8.85,8.85,0,0,0-.87-.16l-.23,0c-.24,0-.49,0-.73-.06h-.22c-.28,0-.56,0-.84,0l-.28,0c-.26,0-.52.05-.77.09a11.23,11.23,0,0,0-1.28.28l-.34.11c-.27.08-.53.18-.8.29l-.35.15-.82.41-.23.13a11.15,11.15,0,0,0-1,.68l-.07.06a8.08,8.08,0,0,0-.83.72l-.22.21c-.21.22-.41.44-.61.68l-.22.27c-.18.23-.35.48-.52.73l-.18.28a11.21,11.21,0,0,0-.58,1.08L101.34,902.36a10.66,10.66,0,1,0,19.37,8.89L358.55,393l453.32,5H812a10.66,10.66,0,0,0,7.74-18Zm-451.45-8.23L503.58,76.88,787,376.36Z" fill="#1d1d1b"/><path d="M877.3,757c-16.93-14.3-43.54-27.72-79.07-39.89-34.44-11.79-71.45-14-110-6.58-30.48,5.87-62,17.75-93.55,35.31-9.65,5.36-18.69,10.91-27,16.41l3.06-4.3c52.68-74.09,110.61-155.86,131.23-188.42,10.17-16.06,16.32-32.61,17.78-47.86,1.63-16.93-2.89-31.14-12.71-40-8.1-7.31-23.47-14.34-50.71-6.35-22,6.45-48.34,21.65-78.24,45.18-28.64,22.54-50.45,52.73-64.81,89.71-11.34,29.2-18.06,62.67-20,99.47a465.34,465.34,0,0,0,5.46,97.23A40.7,40.7,0,0,0,460.45,819,27.57,27.57,0,0,0,417,791.62l-7.64-8.47a39.62,39.62,0,0,0-46.57-9.31,36.48,36.48,0,0,0-3.5,1.95,11.53,11.53,0,0,1-15.81-3.48l-6.09-9.46a32.7,32.7,0,0,0-38.58-13.13l-30.52,10.86a11.42,11.42,0,0,1-9.9-1.06L184.9,714a10.66,10.66,0,1,0-11.23,18.12l73.51,45.55a32.59,32.59,0,0,0,28.28,3L306,769.8a11.46,11.46,0,0,1,13.51,4.6l6.1,9.46a32.9,32.9,0,0,0,45.14,9.93,15.77,15.77,0,0,1,1.44-.8,18.23,18.23,0,0,1,21.38,4.43L406,811.19a27.57,27.57,0,0,0,45.36,23.56A40.93,40.93,0,0,0,454,865.57,193,193,0,0,1,428.61,877c-36.15,13.21-70.88,13.67-103.22,1.37a10.64,10.64,0,0,0-14.17,12.37c1.58,7,2.91,26.21-3.33,49.06a155.48,155.48,0,0,1-23.3,48.52,210.49,210.49,0,0,1-34.26,37.37l-81.72-28.54c-17-4.28-28.6,17.3-15.35,28.73.28.24.56.47.86.7L225.89,1083c12.77,10,31.74,3,34.73-12.94a56.33,56.33,0,0,0-.67-24.54,234,234,0,0,0,42.65-45.72A175.87,175.87,0,0,0,328.83,944a147.17,147.17,0,0,0,5-40.61c32.64,8.5,67.86,6.28,102.83-6.65a216,216,0,0,0,32.19-15,41.06,41.06,0,0,0,4.23,2.28,193.93,193.93,0,0,1,32.62,30c25.14,29.14,37.86,61.46,37.8,96.06a10.64,10.64,0,0,0,16.58,8.88c6-3.95,23.49-12,47.07-14.25a155.56,155.56,0,0,1,53.62,4.62,193.29,193.29,0,0,1,24.92,8.33,35.86,35.86,0,0,1,12.15,8.24l52.81,54.54c13.24,11.44,33.33-2.62,26.62-18.77q-.21-.51-.45-1L738,978c-6.87-14.63-26.91-17-36.73-4.15a56.27,56.27,0,0,0-10.61,22.79,213.11,213.11,0,0,0-25.53-8.24,176,176,0,0,0-61.42-4.81,146.71,146.71,0,0,0-39.75,9.72c-3.59-33.55-18.14-65.69-42.6-93.83-4.91-5.65-9.82-10.67-14.47-15.07a40.71,40.71,0,0,0,15.57-12c6.56,6.28,23.64,23.34,60.28,63.82,27.2,30.06,72.66,26.74,108.63,17.37a7.35,7.35,0,0,0,3.78-11.82c-17.3-20.69-36.47-44.13-54.36-57.92-32.36-24.93-79.19-33.06-109.49-35.66a40.89,40.89,0,0,0-2.46-15.2c-.19-.54-.41-1.08-.63-1.62,15.33.72,40.17,1.86,69.13,3.13,81.83,3.6,187.26,7.86,227.88,7.86h1.53c17.08,0,33.52-3.67,46.29-10.19,14.66-7.49,23.88-18.5,25.94-31C900.65,790.76,898.27,774.75,877.3,757ZM514.56,710.28c1.85-34.44,8.12-65.6,18.65-92.61,13-33.26,32.48-60.31,58-80.41,41.6-32.75,70.47-44.1,87.37-44.1,6.4,0,11.09,1.63,14.1,4.35,4.69,4.23,6.75,12.1,5.78,22.14-1.13,11.77-6.3,25.44-14.57,38.49-22,34.81-92.66,134.12-130.6,187.47-13.8,19.42-26,36.55-34.88,48.95A444.8,444.8,0,0,1,514.56,710.28Zm363.35,87.33c-2.11,12.81-25.11,23.3-51.26,23.37-39.06.13-145.76-4.2-228.41-7.83-23.56-1-44.39-2-59.58-2.69a429.29,429.29,0,0,1,66.85-46.23c29.56-16.37,58.85-27.41,87-32.8,34.75-6.64,68-4.67,98.77,5.87C858.77,760.39,880.12,784.22,877.91,797.61Z" fill="#1d1d1b"/><path d="M948.51,1164.59H51.24a10.66,10.66,0,0,1,0-21.32H948.51a10.66,10.66,0,0,1,0,21.32Z" fill="#1d1d1b"/></svg>